SplineFontDB: 3.2
FontName: RisingSun-SemiBoldItalic
FullName: Rising Sun SemiBold Italic
FamilyName: Rising Sun SemiBold
Weight: Demi
Copyright: Copyright (c) 2012, The Raleway Project Authors (matt@pixelspread.com)
Version: 4.322
ItalicAngle: -12
UnderlinePosition: -125
UnderlineWidth: 50
Ascent: 800
Descent: 200
InvalidEm: 0
sfntRevision: 0x0004526e
LayerCount: 2
Layer: 0 1 "Back" 1
Layer: 1 1 "Fore" 0
XUID: [1021 158 994486733 13852737]
StyleMap: 0x0001
FSType: 0
OS2Version: 4
OS2_WeightWidthSlopeOnly: 0
OS2_UseTypoMetrics: 1
CreationTime: 1683073834
ModificationTime: 1710188652
PfmFamily: 81
TTFWeight: 600
TTFWidth: 5
LineGap: 21
VLineGap: 0
Panose: 0 0 0 0 0 0 0 0 0 0
OS2TypoAscent: 923
OS2TypoAOffset: 0
OS2TypoDescent: -213
OS2TypoDOffset: 0
OS2TypoLinegap: 21
OS2WinAscent: 944
OS2WinAOffset: 0
OS2WinDescent: 234
OS2WinDOffset: 0
HheadAscent: 923
HheadAOffset: 0
HheadDescent: -213
HheadDOffset: 0
OS2SubXSize: 650
OS2SubYSize: 600
OS2SubXOff: 0
OS2SubYOff: 75
OS2SupXSize: 650
OS2SupYSize: 600
OS2SupXOff: 0
OS2SupYOff: 350
OS2StrikeYSize: 50
OS2StrikeYPos: 300
OS2CapHeight: 710
OS2XHeight: 524
OS2Vendor: '    '
OS2CodePages: 2000019f.00000000
OS2UnicodeRanges: a00002ff.4000205b.00000000.00000000
Lookup: 1 0 0 "'aalt' Access All Alternates lookup 0" { "'aalt' Access All Alternates lookup 0 subtable"  } ['aalt' ('DFLT' <'dflt' > 'cyrl' <'BGR ' 'MKD ' 'SRB ' 'dflt' > 'latn' <'AZE ' 'CAT ' 'CRT ' 'KAZ ' 'MOL ' 'ROM ' 'TAT ' 'TRK ' 'dflt' > ) ]
Lookup: 3 0 0 "'aalt' Access All Alternates lookup 1" { "'aalt' Access All Alternates lookup 1 subtable"  } ['aalt' ('DFLT' <'dflt' > 'cyrl' <'BGR ' 'MKD ' 'SRB ' 'dflt' > 'latn' <'AZE ' 'CAT ' 'CRT ' 'KAZ ' 'MOL ' 'ROM ' 'TAT ' 'TRK ' 'dflt' > ) ]

StartChar: .notdef
Encoding: 65536 -1 0
Width: 608
GlyphClass: 1
Flags: W
LayerCount: 2
Fore
SplineSet
558 689 m 2,0,1
 558 699 558 699 553 704.5 c 128,-1,2
 548 710 548 710 540 710 c 2,3,-1
 69 710 l 2,4,5
 61 710 61 710 55.5 704 c 128,-1,6
 50 698 50 698 50 687 c 2,7,-1
 50 25 l 2,8,9
 50 12 50 12 55.5 6 c 128,-1,10
 61 0 61 0 77 0 c 2,11,-1
 525 0 l 2,12,13
 542 0 542 0 550 6.5 c 128,-1,14
 558 13 558 13 558 29 c 2,15,-1
 558 689 l 2,0,1
506 74 m 2,16,17
 506 61 506 61 499 55.5 c 128,-1,18
 492 50 492 50 478 50 c 2,19,-1
 125 50 l 2,20,21
 111 50 111 50 106.5 55 c 128,-1,22
 102 60 102 60 102 71 c 2,23,-1
 102 641 l 2,24,25
 102 650 102 650 106.5 655 c 128,-1,26
 111 660 111 660 118 660 c 2,27,-1
 491 660 l 2,28,29
 498 660 498 660 502 655 c 128,-1,30
 506 650 506 650 506 642 c 2,31,-1
 506 74 l 2,16,17
538 33 m 1,32,-1
 123 696 l 1,33,-1
 71 669 l 1,34,-1
 478 28 l 1,35,-1
 538 33 l 1,32,-1
EndSplineSet
EndChar

StartChar: exclam
Encoding: 33 33 4
Width: 287
GlyphClass: 1
Flags: W
LayerCount: 2
Fore
SplineSet
9 72 m 256,0,1
 5 55 5 55 8.5 40.5 c 128,-1,2
 12 26 12 26 21 14.5 c 128,-1,3
 30 3 30 3 43.5 -3.5 c 128,-1,4
 57 -10 57 -10 74 -10 c 256,5,6
 91 -10 91 -10 107 -3.5 c 128,-1,7
 123 3 123 3 137 14.5 c 128,-1,8
 151 26 151 26 160.5 40.5 c 128,-1,9
 170 55 170 55 174 72 c 256,10,11
 178 89 178 89 174.5 104 c 128,-1,12
 171 119 171 119 162 130.5 c 128,-1,13
 153 142 153 142 139.5 148 c 128,-1,14
 126 154 126 154 109 154 c 256,15,16
 92 154 92 154 75.5 148 c 128,-1,17
 59 142 59 142 45.5 130.5 c 128,-1,18
 32 119 32 119 22.5 104 c 128,-1,19
 13 89 13 89 9 72 c 256,0,1
178 264 m 1,20,-1
 251 520 l 1,21,-1
 292 717 l 1,22,-1
 163 717 l 1,23,-1
 122 520 l 1,24,-1
 85 264 l 1,25,-1
 178 264 l 1,20,-1
EndSplineSet
EndChar

StartChar: quotedbl
Encoding: 34 34 5
Width: 416
GlyphClass: 1
Flags: W
LayerCount: 2
Fore
SplineSet
111 506 m 1,0,-1
 169 506 l 1,1,-1
 309 725 l 1,2,-1
 197 725 l 1,3,-1
 111 506 l 1,0,-1
268 506 m 1,4,-1
 327 506 l 1,5,-1
 467 725 l 1,6,-1
 354 725 l 1,7,-1
 268 506 l 1,4,-1
EndSplineSet
EndChar

StartChar: numbersign
Encoding: 35 35 6
Width: 689
GlyphClass: 1
Flags: W
LayerCount: 2
Fore
SplineSet
699 517 m 1,0,-1
 583 517 l 1,1,-1
 669 710 l 1,2,-1
 565 710 l 1,3,-1
 480 517 l 1,4,-1
 369 517 l 1,5,-1
 454 710 l 1,6,-1
 351 710 l 1,7,-1
 265 517 l 1,8,-1
 127 517 l 1,9,-1
 108 427 l 1,10,-1
 223 427 l 1,11,-1
 163 285 l 1,12,-1
 33 285 l 1,13,-1
 12 189 l 1,14,-1
 119 189 l 1,15,-1
 35 0 l 1,16,-1
 139 0 l 1,17,-1
 222 189 l 1,18,-1
 334 189 l 1,19,-1
 250 0 l 1,20,-1
 354 0 l 1,21,-1
 437 189 l 1,22,-1
 584 189 l 1,23,-1
 605 285 l 1,24,-1
 481 285 l 1,25,-1
 542 427 l 1,26,-1
 680 427 l 1,27,-1
 699 517 l 1,0,-1
266 285 m 1,28,-1
 327 427 l 1,29,-1
 438 427 l 1,30,-1
 378 285 l 1,31,-1
 266 285 l 1,28,-1
EndSplineSet
EndChar

StartChar: dollar
Encoding: 36 36 7
Width: 610
GlyphClass: 1
Flags: W
LayerCount: 2
Fore
SplineSet
190 -116 m 1,0,-1
 248 -116 l 1,1,-1
 285 61 l 1,2,-1
 228 61 l 1,3,-1
 190 -116 l 1,0,-1
279 75 m 1,4,-1
 399 641 l 1,5,-1
 358 631 l 1,6,-1
 240 77 l 1,7,-1
 279 75 l 1,4,-1
351 643 m 1,8,-1
 411 652 l 1,9,-1
 445 815 l 1,10,-1
 388 815 l 1,11,-1
 351 643 l 1,8,-1
615 636 m 1,12,13
 597 652 597 652 573.5 666 c 128,-1,14
 550 680 550 680 522.5 691 c 128,-1,15
 495 702 495 702 463.5 708.5 c 128,-1,16
 432 715 432 715 396 715 c 0,17,18
 338 715 338 715 283.5 697.5 c 128,-1,19
 229 680 229 680 187.5 646.5 c 128,-1,20
 146 613 146 613 121.5 565 c 128,-1,21
 97 517 97 517 97 455 c 0,22,23
 97 425 97 425 107 401.5 c 128,-1,24
 117 378 117 378 136.5 359.5 c 128,-1,25
 156 341 156 341 185 327 c 128,-1,26
 214 313 214 313 252 302 c 0,27,28
 286 292 286 292 314 282.5 c 128,-1,29
 342 273 342 273 362 261.5 c 128,-1,30
 382 250 382 250 393 236 c 128,-1,31
 404 222 404 222 404 202 c 0,32,33
 404 181 404 181 396 164.5 c 128,-1,34
 388 148 388 148 372.5 136 c 128,-1,35
 357 124 357 124 334 117.5 c 128,-1,36
 311 111 311 111 279 111 c 0,37,38
 241 111 241 111 205.5 121 c 128,-1,39
 170 131 170 131 142.5 145 c 128,-1,40
 115 159 115 159 96.5 174 c 128,-1,41
 78 189 78 189 72 199 c 1,42,-1
 -12 85 l 1,43,44
 13 63 13 63 43 46 c 128,-1,45
 73 29 73 29 107 17 c 128,-1,46
 141 5 141 5 177.5 -1.5 c 128,-1,47
 214 -8 214 -8 252 -8 c 0,48,49
 309 -8 309 -8 363 6.5 c 128,-1,50
 417 21 417 21 459 51 c 128,-1,51
 501 81 501 81 526.5 128.5 c 128,-1,52
 552 176 552 176 552 242 c 0,53,54
 552 279 552 279 539.5 305.5 c 128,-1,55
 527 332 527 332 503.5 351.5 c 128,-1,56
 480 371 480 371 447.5 385 c 128,-1,57
 415 399 415 399 375 411 c 0,58,59
 343 420 343 420 318 428.5 c 128,-1,60
 293 437 293 437 276 446.5 c 128,-1,61
 259 456 259 456 250.5 468.5 c 128,-1,62
 242 481 242 481 242 499 c 0,63,64
 242 522 242 522 249.5 540 c 128,-1,65
 257 558 257 558 273 571 c 128,-1,66
 289 584 289 584 312.5 591 c 128,-1,67
 336 598 336 598 368 598 c 0,68,69
 398 598 398 598 426 590 c 128,-1,70
 454 582 454 582 476.5 571 c 128,-1,71
 499 560 499 560 514.5 548 c 128,-1,72
 530 536 530 536 534 528 c 1,73,-1
 615 636 l 1,12,13
EndSplineSet
EndChar

StartChar: percent
Encoding: 37 37 8
Width: 754
GlyphClass: 1
Flags: W
LayerCount: 2
Fore
SplineSet
218 418 m 0,0,1
 255 418 255 418 289.5 432.5 c 128,-1,2
 324 447 324 447 351 471 c 128,-1,3
 378 495 378 495 394 527 c 128,-1,4
 410 559 410 559 410 595 c 0,5,6
 410 621 410 621 401 644 c 128,-1,7
 392 667 392 667 375 684 c 128,-1,8
 358 701 358 701 334.5 710.5 c 128,-1,9
 311 720 311 720 282 720 c 0,10,11
 246 720 246 720 211 706 c 128,-1,12
 176 692 176 692 149 668 c 128,-1,13
 122 644 122 644 106 612 c 128,-1,14
 90 580 90 580 90 544 c 0,15,16
 90 518 90 518 99 494.5 c 128,-1,17
 108 471 108 471 125 454.5 c 128,-1,18
 142 438 142 438 165.5 428 c 128,-1,19
 189 418 189 418 218 418 c 0,0,1
232 483 m 0,20,21
 209 483 209 483 195 502.5 c 128,-1,22
 181 522 181 522 181 551 c 0,23,24
 181 571 181 571 188.5 590 c 128,-1,25
 196 609 196 609 208.5 623.5 c 128,-1,26
 221 638 221 638 236.5 646.5 c 128,-1,27
 252 655 252 655 268 655 c 0,28,29
 291 655 291 655 305 635.5 c 128,-1,30
 319 616 319 616 319 588 c 0,31,32
 319 568 319 568 311.5 549 c 128,-1,33
 304 530 304 530 291.5 515.5 c 128,-1,34
 279 501 279 501 263.5 492 c 128,-1,35
 248 483 248 483 232 483 c 0,20,21
495 -10 m 0,36,37
 533 -10 533 -10 567.5 4 c 128,-1,38
 602 18 602 18 628.5 42 c 128,-1,39
 655 66 655 66 671 98.5 c 128,-1,40
 687 131 687 131 687 166 c 0,41,42
 687 193 687 193 678 216 c 128,-1,43
 669 239 669 239 652 255.5 c 128,-1,44
 635 272 635 272 611.5 282 c 128,-1,45
 588 292 588 292 559 292 c 0,46,47
 523 292 523 292 488 277.5 c 128,-1,48
 453 263 453 263 426 239 c 128,-1,49
 399 215 399 215 383 183 c 128,-1,50
 367 151 367 151 367 115 c 0,51,52
 367 89 367 89 376.5 66 c 128,-1,53
 386 43 386 43 402.5 26 c 128,-1,54
 419 9 419 9 442.5 -0.5 c 128,-1,55
 466 -10 466 -10 495 -10 c 0,36,37
509 55 m 0,56,57
 486 55 486 55 471.5 74.5 c 128,-1,58
 457 94 457 94 457 122 c 0,59,60
 457 143 457 143 465 161.5 c 128,-1,61
 473 180 473 180 485.5 194.5 c 128,-1,62
 498 209 498 209 513.5 218 c 128,-1,63
 529 227 529 227 545 227 c 0,64,65
 568 227 568 227 582 207.5 c 128,-1,66
 596 188 596 188 596 159 c 0,67,68
 596 139 596 139 588 120 c 128,-1,69
 580 101 580 101 568 86.5 c 128,-1,70
 556 72 556 72 540.5 63.5 c 128,-1,71
 525 55 525 55 509 55 c 0,56,57
83 -7 m 1,72,-1
 411 341 l 1,73,-1
 741 665 l 1,74,-1
 693 717 l 1,75,-1
 374 376 l 1,76,-1
 36 46 l 1,77,-1
 83 -7 l 1,72,-1
EndSplineSet
EndChar

StartChar: ampersand
Encoding: 38 38 9
Width: 694
GlyphClass: 1
Flags: W
LayerCount: 2
Fore
SplineSet
194 -10 m 0,0,1
 256 -10 256 -10 319 19 c 128,-1,2
 382 48 382 48 437 103.5 c 128,-1,3
 492 159 492 159 534.5 237.5 c 128,-1,4
 577 316 577 316 597 416 c 1,5,-1
 489 416 l 1,6,7
 478 343 478 343 450.5 283 c 128,-1,8
 423 223 423 223 387.5 180 c 128,-1,9
 352 137 352 137 310 113.5 c 128,-1,10
 268 90 268 90 227 90 c 0,11,12
 191 90 191 90 166 112 c 128,-1,13
 141 134 141 134 141 177 c 0,14,15
 141 203 141 203 152 225 c 128,-1,16
 163 247 163 247 184 267 c 128,-1,17
 205 287 205 287 236.5 306 c 128,-1,18
 268 325 268 325 309 346 c 1,19,-1
 251 428 l 1,20,21
 208 403 208 403 165.5 377 c 128,-1,22
 123 351 123 351 89.5 320 c 128,-1,23
 56 289 56 289 35.5 251 c 128,-1,24
 15 213 15 213 15 163 c 0,25,26
 15 127 15 127 27 95.5 c 128,-1,27
 39 64 39 64 62 41 c 128,-1,28
 85 18 85 18 118 4 c 128,-1,29
 151 -10 151 -10 194 -10 c 0,0,1
447 0 m 1,30,-1
 612 0 l 1,31,-1
 317 424 l 2,32,33
 300 449 300 449 288.5 467 c 128,-1,34
 277 485 277 485 269.5 499 c 128,-1,35
 262 513 262 513 259 523.5 c 128,-1,36
 256 534 256 534 256 544 c 0,37,38
 256 561 256 561 263.5 575.5 c 128,-1,39
 271 590 271 590 283 601 c 128,-1,40
 295 612 295 612 311 618 c 128,-1,41
 327 624 327 624 344 624 c 0,42,43
 375 624 375 624 400.5 602 c 128,-1,44
 426 580 426 580 437 542 c 1,45,-1
 527 594 l 1,46,47
 518 625 518 625 501 648.5 c 128,-1,48
 484 672 484 672 461.5 687.5 c 128,-1,49
 439 703 439 703 412.5 711 c 128,-1,50
 386 719 386 719 356 719 c 0,51,52
 313 719 313 719 273 704 c 128,-1,53
 233 689 233 689 202 663 c 128,-1,54
 171 637 171 637 153 601 c 128,-1,55
 135 565 135 565 135 523 c 0,56,57
 135 505 135 505 139 487 c 128,-1,58
 143 469 143 469 152 448.5 c 128,-1,59
 161 428 161 428 174.5 405.5 c 128,-1,60
 188 383 188 383 206 355 c 2,61,-1
 447 0 l 1,30,-1
484 323 m 1,62,-1
 654 323 l 1,63,-1
 669 416 l 1,64,-1
 499 416 l 1,65,-1
 484 323 l 1,62,-1
EndSplineSet
EndChar

StartChar: quotesingle
Encoding: 39 39 10
Width: 232
GlyphClass: 1
Flags: W
LayerCount: 2
Fore
SplineSet
144 504 m 1,0,-1
 284 722 l 1,1,-1
 171 722 l 1,2,-1
 85 504 l 1,3,-1
 144 504 l 1,0,-1
EndSplineSet
EndChar

StartChar: parenleft
Encoding: 40 40 11
Width: 301
GlyphClass: 1
Flags: W
LayerCount: 2
Fore
SplineSet
36 263 m 0,0,1
 36 224 36 224 41 183 c 128,-1,2
 46 142 46 142 55 101.5 c 128,-1,3
 64 61 64 61 76.5 22 c 128,-1,4
 89 -17 89 -17 104 -52 c 1,5,-1
 208 -4 l 1,6,7
 196 29 196 29 186.5 64.5 c 128,-1,8
 177 100 177 100 170.5 136 c 128,-1,9
 164 172 164 172 160.5 206 c 128,-1,10
 157 240 157 240 157 271 c 0,11,12
 157 324 157 324 175 382 c 128,-1,13
 193 440 193 440 222 497.5 c 128,-1,14
 251 555 251 555 288.5 610 c 128,-1,15
 326 665 326 665 364 714 c 1,16,-1
 274 755 l 1,17,18
 225 691 225 691 181 631 c 128,-1,19
 137 571 137 571 105 511 c 128,-1,20
 73 451 73 451 54.5 390 c 128,-1,21
 36 329 36 329 36 263 c 0,0,1
EndSplineSet
EndChar

StartChar: parenright
Encoding: 41 41 12
Width: 301
GlyphClass: 1
Flags: W
LayerCount: 2
Fore
SplineSet
285 431 m 0,0,1
 285 508 285 508 266.5 592.5 c 128,-1,2
 248 677 248 677 220 755 c 1,3,-1
 113 714 l 1,4,5
 120 695 120 695 129 663 c 128,-1,6
 138 631 138 631 145.5 592 c 128,-1,7
 153 553 153 553 158.5 509.5 c 128,-1,8
 164 466 164 466 164 424 c 0,9,10
 164 368 164 368 149 315 c 128,-1,11
 134 262 134 262 107 209.5 c 128,-1,12
 80 157 80 157 43.5 104 c 128,-1,13
 7 51 7 51 -37 -4 c 1,14,-1
 48 -52 l 1,15,16
 95 5 95 5 138 62.5 c 128,-1,17
 181 120 181 120 213.5 180 c 128,-1,18
 246 240 246 240 265.5 302.5 c 128,-1,19
 285 365 285 365 285 431 c 0,0,1
EndSplineSet
EndChar

StartChar: asterisk
Encoding: 42 42 13
Width: 336
GlyphClass: 1
Flags: W
LayerCount: 2
Fore
SplineSet
164 489 m 1,0,-1
 223 563 l 1,1,-1
 250 489 l 1,2,-1
 307 522 l 1,3,-1
 277 593 l 1,4,-1
 349 614 l 1,5,-1
 344 670 l 1,6,-1
 269 640 l 1,7,-1
 290 717 l 1,8,-1
 221 717 l 1,9,-1
 209 640 l 1,10,-1
 147 670 l 1,11,-1
 118 614 l 1,12,-1
 180 593 l 1,13,-1
 121 522 l 1,14,-1
 164 489 l 1,0,-1
EndSplineSet
EndChar

StartChar: plus
Encoding: 43 43 14
Width: 426
GlyphClass: 1
Flags: W
LayerCount: 2
Fore
SplineSet
280 407 m 1,0,-1
 280 521 l 1,1,-1
 164 521 l 1,2,-1
 164 407 l 1,3,-1
 59 407 l 1,4,-1
 59 303 l 1,5,-1
 164 303 l 1,6,-1
 164 189 l 1,7,-1
 280 189 l 1,8,-1
 280 303 l 1,9,-1
 385 303 l 1,10,-1
 385 407 l 1,11,-1
 280 407 l 1,0,-1
EndSplineSet
EndChar

StartChar: comma
Encoding: 44 44 15
Width: 229
GlyphClass: 1
Flags: W
LayerCount: 2
Fore
SplineSet
48 -160 m 1,0,-1
 205 100 l 1,1,-1
 93 100 l 1,2,-1
 -10 -160 l 1,3,-1
 48 -160 l 1,0,-1
EndSplineSet
EndChar

StartChar: hyphen
Encoding: 45 45 16
Width: 403
GlyphClass: 1
Flags: W
LayerCount: 2
Fore
SplineSet
327 216 m 1,0,-1
 352 332 l 1,1,-1
 64 332 l 1,2,-1
 39 216 l 1,3,-1
 327 216 l 1,0,-1
EndSplineSet
EndChar

StartChar: period
Encoding: 46 46 17
Width: 223
GlyphClass: 1
Flags: W
LayerCount: 2
Fore
SplineSet
39 61 m 0,0,1
 32 32 32 32 48.5 11 c 128,-1,2
 65 -10 65 -10 95 -10 c 0,3,4
 124 -10 124 -10 149.5 11 c 128,-1,5
 175 32 175 32 181 61 c 0,6,7
 187 91 187 91 170.5 111.5 c 128,-1,8
 154 132 154 132 125 132 c 0,9,10
 95 132 95 132 70 111.5 c 128,-1,11
 45 91 45 91 39 61 c 0,0,1
EndSplineSet
EndChar

StartChar: slash
Encoding: 47 47 18
Width: 685
GlyphClass: 1
Flags: W
LayerCount: 2
Fore
SplineSet
596 710 m 1,0,-1
 -27 0 l 1,1,-1
 116 0 l 1,2,-1
 738 710 l 1,3,-1
 596 710 l 1,0,-1
EndSplineSet
Substitution2: "'frac' Diagonal Fractions lookup 23 subtable" fraction
Substitution2: "'aalt' Access All Alternates lookup 0 subtable" fraction
EndChar

StartChar: zero
Encoding: 48 48 19
Width: 675
GlyphClass: 1
Flags: W
LayerCount: 2
Fore
SplineSet
271 -10 m 0,0,1
 350 -10 350 -10 418.5 29.5 c 128,-1,2
 487 69 487 69 539 131 c 128,-1,3
 591 193 591 193 620.5 269.5 c 128,-1,4
 650 346 650 346 650 420 c 0,5,6
 650 471 650 471 637.5 522.5 c 128,-1,7
 625 574 625 574 597 616 c 128,-1,8
 569 658 569 658 526.5 684 c 128,-1,9
 484 710 484 710 424 710 c 0,10,11
 346 710 346 710 277 670 c 128,-1,12
 208 630 208 630 156.5 567.5 c 128,-1,13
 105 505 105 505 75 428.5 c 128,-1,14
 45 352 45 352 45 278 c 0,15,16
 45 227 45 227 58 175.5 c 128,-1,17
 71 124 71 124 98.5 82.5 c 128,-1,18
 126 41 126 41 169 15.5 c 128,-1,19
 212 -10 212 -10 271 -10 c 0,0,1
296 108 m 0,20,21
 264 108 264 108 242 121.5 c 128,-1,22
 220 135 220 135 206 157.5 c 128,-1,23
 192 180 192 180 185.5 210 c 128,-1,24
 179 240 179 240 179 272 c 0,25,26
 179 318 179 318 194 373.5 c 128,-1,27
 209 429 209 429 237.5 478 c 128,-1,28
 266 527 266 527 307 559.5 c 128,-1,29
 348 592 348 592 399 592 c 0,30,31
 430 592 430 592 452 576.5 c 128,-1,32
 474 561 474 561 488 536 c 128,-1,33
 502 511 502 511 509 478.5 c 128,-1,34
 516 446 516 446 516 413 c 0,35,36
 516 368 516 368 500.5 314.5 c 128,-1,37
 485 261 485 261 456 215.5 c 128,-1,38
 427 170 427 170 386.5 139 c 128,-1,39
 346 108 346 108 296 108 c 0,20,21
EndSplineSet
Substitution2: "'frac' Diagonal Fractions lookup 24 subtable" zero.numr
Substitution2: "'dnom' Denominators lookup 22 subtable" zero.dnom
Substitution2: "'numr' Numerators lookup 21 subtable" zero.numr
Substitution2: "'sups' Superscript lookup 20 subtable" uni2070
Substitution2: "'sinf' Scientific Inferiors lookup 19 subtable" zero.subs
Substitution2: "'subs' Subscript lookup 18 subtable" uni2080
AlternateSubs2: "'aalt' Access All Alternates lookup 1 subtable" uni2080 zero.subs uni2070 zero.numr zero.dnom
EndChar

StartChar: one
Encoding: 49 49 20
Width: 423
GlyphClass: 1
Flags: W
LayerCount: 2
Fore
SplineSet
132 0 m 1,0,-1
 264 0 l 1,1,-1
 416 717 l 1,2,-1
 284 717 l 2,3,4
 283 716 283 716 265.5 700.5 c 128,-1,5
 248 685 248 685 222 667.5 c 128,-1,6
 196 650 196 650 166 635.5 c 128,-1,7
 136 621 136 621 110 621 c 1,8,-1
 85 502 l 1,9,10
 104 502 104 502 129.5 511 c 128,-1,11
 155 520 155 520 180 533.5 c 128,-1,12
 205 547 205 547 226 561.5 c 128,-1,13
 247 576 247 576 257 588 c 1,14,-1
 132 0 l 1,0,-1
EndSplineSet
Substitution2: "'frac' Diagonal Fractions lookup 24 subtable" one.numr
Substitution2: "'dnom' Denominators lookup 22 subtable" one.dnom
Substitution2: "'numr' Numerators lookup 21 subtable" one.numr
Substitution2: "'sups' Superscript lookup 20 subtable" onesuperior
Substitution2: "'sinf' Scientific Inferiors lookup 19 subtable" one.subs
Substitution2: "'subs' Subscript lookup 18 subtable" uni2081
AlternateSubs2: "'aalt' Access All Alternates lookup 1 subtable" uni2081 one.subs onesuperior one.numr one.dnom
EndChar

StartChar: two
Encoding: 50 50 21
Width: 585
GlyphClass: 1
Flags: W
LayerCount: 2
Fore
SplineSet
-21 0 m 1,0,-1
 470 0 l 1,1,-1
 495 116 l 1,2,-1
 158 116 l 1,3,4
 164 143 164 143 182 165 c 128,-1,5
 200 187 200 187 227 206.5 c 128,-1,6
 254 226 254 226 289 243.5 c 128,-1,7
 324 261 324 261 364 281 c 0,8,9
 411 304 411 304 450.5 328 c 128,-1,10
 490 352 490 352 519.5 382 c 128,-1,11
 549 412 549 412 565.5 452.5 c 128,-1,12
 582 493 582 493 582 548 c 0,13,14
 582 586 582 586 570 617 c 128,-1,15
 558 648 558 648 535 670.5 c 128,-1,16
 512 693 512 693 476.5 706 c 128,-1,17
 441 719 441 719 394 719 c 0,18,19
 344 719 344 719 299.5 706 c 128,-1,20
 255 693 255 693 218 674.5 c 128,-1,21
 181 656 181 656 153.5 636 c 128,-1,22
 126 616 126 616 110 601 c 1,23,-1
 172 516 l 1,24,25
 188 530 188 530 208 545.5 c 128,-1,26
 228 561 228 561 251.5 573.5 c 128,-1,27
 275 586 275 586 300.5 594 c 128,-1,28
 326 602 326 602 353 602 c 0,29,30
 372 602 372 602 387 596.5 c 128,-1,31
 402 591 402 591 412.5 581 c 128,-1,32
 423 571 423 571 428 556.5 c 128,-1,33
 433 542 433 542 433 524 c 0,34,35
 433 481 433 481 414.5 452.5 c 128,-1,36
 396 424 396 424 366.5 403 c 128,-1,37
 337 382 337 382 299.5 366 c 128,-1,38
 262 350 262 350 223 332 c 0,39,40
 169 308 169 308 129.5 279 c 128,-1,41
 90 250 90 250 61.5 211 c 128,-1,42
 33 172 33 172 13.5 121 c 128,-1,43
 -6 70 -6 70 -21 0 c 1,0,-1
EndSplineSet
Substitution2: "'frac' Diagonal Fractions lookup 24 subtable" two.numr
Substitution2: "'dnom' Denominators lookup 22 subtable" two.dnom
Substitution2: "'numr' Numerators lookup 21 subtable" two.numr
Substitution2: "'sups' Superscript lookup 20 subtable" twosuperior
Substitution2: "'sinf' Scientific Inferiors lookup 19 subtable" two.subs
Substitution2: "'subs' Subscript lookup 18 subtable" uni2082
AlternateSubs2: "'aalt' Access All Alternates lookup 1 subtable" uni2082 two.subs twosuperior two.numr two.dnom
EndChar

StartChar: three
Encoding: 51 51 22
Width: 536
GlyphClass: 1
Flags: W
LayerCount: 2
Fore
SplineSet
179 -9 m 0,0,1
 244 -9 244 -9 298 8.5 c 128,-1,2
 352 26 352 26 391.5 58 c 128,-1,3
 431 90 431 90 453 135 c 128,-1,4
 475 180 475 180 475 234 c 0,5,6
 475 289 475 289 449 327 c 128,-1,7
 423 365 423 365 375 374 c 1,8,9
 408 380 408 380 437 398 c 128,-1,10
 466 416 466 416 487.5 442.5 c 128,-1,11
 509 469 509 469 522 501 c 128,-1,12
 535 533 535 533 535 567 c 0,13,14
 535 600 535 600 522 627.5 c 128,-1,15
 509 655 509 655 485 674 c 128,-1,16
 461 693 461 693 427 703.5 c 128,-1,17
 393 714 393 714 350 714 c 0,18,19
 313 714 313 714 276.5 706.5 c 128,-1,20
 240 699 240 699 207 685.5 c 128,-1,21
 174 672 174 672 146 653 c 128,-1,22
 118 634 118 634 99 611 c 1,23,-1
 160 521 l 1,24,25
 191 560 191 560 230 581 c 128,-1,26
 269 602 269 602 312 602 c 0,27,28
 349 602 349 602 370.5 585.5 c 128,-1,29
 392 569 392 569 392 536 c 0,30,31
 392 511 392 511 381 489.5 c 128,-1,32
 370 468 370 468 351.5 452.5 c 128,-1,33
 333 437 333 437 305.5 427.5 c 128,-1,34
 278 418 278 418 245 418 c 2,35,-1
 190 418 l 1,36,-1
 169 321 l 1,37,-1
 222 321 l 2,38,39
 283 321 283 321 312.5 298 c 128,-1,40
 342 275 342 275 342 233 c 0,41,42
 342 203 342 203 333 180 c 128,-1,43
 324 157 324 157 305.5 141 c 128,-1,44
 287 125 287 125 260.5 117 c 128,-1,45
 234 109 234 109 199 109 c 0,46,47
 148 109 148 109 118 127 c 128,-1,48
 88 145 88 145 71 179 c 1,49,-1
 -21 88 l 1,50,51
 6 41 6 41 56.5 16 c 128,-1,52
 107 -9 107 -9 179 -9 c 0,0,1
EndSplineSet
Substitution2: "'frac' Diagonal Fractions lookup 24 subtable" three.numr
Substitution2: "'dnom' Denominators lookup 22 subtable" three.dnom
Substitution2: "'numr' Numerators lookup 21 subtable" three.numr
Substitution2: "'sups' Superscript lookup 20 subtable" threesuperior
Substitution2: "'sinf' Scientific Inferiors lookup 19 subtable" three.subs
Substitution2: "'subs' Subscript lookup 18 subtable" uni2083
AlternateSubs2: "'aalt' Access All Alternates lookup 1 subtable" uni2083 three.subs threesuperior three.numr three.dnom
EndChar

StartChar: four
Encoding: 52 52 23
Width: 562
GlyphClass: 1
Flags: W
LayerCount: 2
Fore
SplineSet
376 0 m 1,0,-1
 410 163 l 1,1,-1
 494 163 l 1,2,-1
 519 279 l 1,3,-1
 435 279 l 1,4,-1
 526 710 l 1,5,-1
 437 710 l 1,6,-1
 23 279 l 1,7,-1
 -2 163 l 1,8,-1
 281 163 l 1,9,-1
 247 0 l 1,10,-1
 376 0 l 1,0,-1
153 279 m 1,11,-1
 371 516 l 1,12,-1
 320 279 l 1,13,-1
 153 279 l 1,11,-1
EndSplineSet
Substitution2: "'frac' Diagonal Fractions lookup 24 subtable" four.numr
Substitution2: "'dnom' Denominators lookup 22 subtable" four.dnom
Substitution2: "'numr' Numerators lookup 21 subtable" four.numr
Substitution2: "'sups' Superscript lookup 20 subtable" uni2074
Substitution2: "'sinf' Scientific Inferiors lookup 19 subtable" four.subs
Substitution2: "'subs' Subscript lookup 18 subtable" uni2084
AlternateSubs2: "'aalt' Access All Alternates lookup 1 subtable" uni2084 four.subs uni2074 four.numr four.dnom
EndChar

StartChar: five
Encoding: 53 53 24
Width: 546
GlyphClass: 1
Flags: W
LayerCount: 2
Fore
SplineSet
191 -10 m 0,0,1
 253 -10 253 -10 308 11.5 c 128,-1,2
 363 33 363 33 405 71 c 128,-1,3
 447 109 447 109 471.5 161.5 c 128,-1,4
 496 214 496 214 496 275 c 0,5,6
 496 316 496 316 483.5 349.5 c 128,-1,7
 471 383 471 383 447.5 407 c 128,-1,8
 424 431 424 431 391 444.5 c 128,-1,9
 358 458 358 458 317 458 c 0,10,11
 286 458 286 458 262 449.5 c 128,-1,12
 238 441 238 441 223 426 c 1,13,-1
 286 593 l 1,14,-1
 524 593 l 1,15,-1
 550 710 l 1,16,-1
 217 710 l 1,17,18
 211 696 211 696 198 664.5 c 128,-1,19
 185 633 185 633 169.5 592.5 c 128,-1,20
 154 552 154 552 136 506.5 c 128,-1,21
 118 461 118 461 102 419.5 c 128,-1,22
 86 378 86 378 72 343.5 c 128,-1,23
 58 309 58 309 50 290 c 1,24,-1
 162 290 l 1,25,26
 184 317 184 317 214.5 332.5 c 128,-1,27
 245 348 245 348 275 348 c 0,28,29
 295 348 295 348 311 341 c 128,-1,30
 327 334 327 334 338 321.5 c 128,-1,31
 349 309 349 309 355 291.5 c 128,-1,32
 361 274 361 274 361 253 c 0,33,34
 361 222 361 222 349.5 194.5 c 128,-1,35
 338 167 338 167 318 147 c 128,-1,36
 298 127 298 127 271.5 115.5 c 128,-1,37
 245 104 245 104 215 104 c 0,38,39
 173 104 173 104 139 127.5 c 128,-1,40
 105 151 105 151 86 192 c 1,41,-1
 -4 115 l 1,42,43
 14 57 14 57 65.5 23.5 c 128,-1,44
 117 -10 117 -10 191 -10 c 0,0,1
EndSplineSet
Substitution2: "'frac' Diagonal Fractions lookup 24 subtable" five.numr
Substitution2: "'dnom' Denominators lookup 22 subtable" five.dnom
Substitution2: "'numr' Numerators lookup 21 subtable" five.numr
Substitution2: "'sups' Superscript lookup 20 subtable" uni2075
Substitution2: "'sinf' Scientific Inferiors lookup 19 subtable" five.subs
Substitution2: "'subs' Subscript lookup 18 subtable" uni2085
AlternateSubs2: "'aalt' Access All Alternates lookup 1 subtable" uni2085 five.subs uni2075 five.numr five.dnom
EndChar

StartChar: six
Encoding: 54 54 25
Width: 592
GlyphClass: 1
Flags: W
LayerCount: 2
Fore
SplineSet
236 -10 m 0,0,1
 190 -10 190 -10 154 6 c 128,-1,2
 118 22 118 22 93.5 52.5 c 128,-1,3
 69 83 69 83 56.5 126 c 128,-1,4
 44 169 44 169 44 223 c 0,5,6
 44 324 44 324 70.5 413.5 c 128,-1,7
 97 503 97 503 144 570 c 128,-1,8
 191 637 191 637 257 676 c 128,-1,9
 323 715 323 715 404 715 c 0,10,11
 468 715 468 715 515 686 c 128,-1,12
 562 657 562 657 588 601 c 1,13,-1
 497 521 l 1,14,15
 482 559 482 559 451 581.5 c 128,-1,16
 420 604 420 604 378 604 c 0,17,18
 346 604 346 604 316.5 589.5 c 128,-1,19
 287 575 287 575 261.5 548 c 128,-1,20
 236 521 236 521 215.5 481.5 c 128,-1,21
 195 442 195 442 180 392 c 1,22,23
 194 411 194 411 213.5 426 c 128,-1,24
 233 441 233 441 256 451.5 c 128,-1,25
 279 462 279 462 303 468 c 128,-1,26
 327 474 327 474 351 474 c 0,27,28
 393 474 393 474 428.5 459 c 128,-1,29
 464 444 464 444 489 418 c 128,-1,30
 514 392 514 392 527.5 356.5 c 128,-1,31
 541 321 541 321 541 280 c 0,32,33
 541 221 541 221 516 168.5 c 128,-1,34
 491 116 491 116 448.5 76 c 128,-1,35
 406 36 406 36 351 13 c 128,-1,36
 296 -10 296 -10 236 -10 c 0,0,1
260 99 m 0,37,38
 289 99 289 99 316.5 112.5 c 128,-1,39
 344 126 344 126 366 148.5 c 128,-1,40
 388 171 388 171 401.5 200 c 128,-1,41
 415 229 415 229 415 262 c 0,42,43
 415 285 415 285 408 305 c 128,-1,44
 401 325 401 325 388.5 340 c 128,-1,45
 376 355 376 355 358 363 c 128,-1,46
 340 371 340 371 318 371 c 0,47,48
 288 371 288 371 260.5 358.5 c 128,-1,49
 233 346 233 346 211.5 323.5 c 128,-1,50
 190 301 190 301 176.5 272.5 c 128,-1,51
 163 244 163 244 163 212 c 0,52,53
 163 188 163 188 170 167.5 c 128,-1,54
 177 147 177 147 190 132 c 128,-1,55
 203 117 203 117 221 108 c 128,-1,56
 239 99 239 99 260 99 c 0,37,38
EndSplineSet
Substitution2: "'frac' Diagonal Fractions lookup 24 subtable" six.numr
Substitution2: "'dnom' Denominators lookup 22 subtable" six.dnom
Substitution2: "'numr' Numerators lookup 21 subtable" six.numr
Substitution2: "'sups' Superscript lookup 20 subtable" uni2076
Substitution2: "'sinf' Scientific Inferiors lookup 19 subtable" six.subs
Substitution2: "'subs' Subscript lookup 18 subtable" uni2086
AlternateSubs2: "'aalt' Access All Alternates lookup 1 subtable" uni2086 six.subs uni2076 six.numr six.dnom
EndChar

StartChar: seven
Encoding: 55 55 26
Width: 542
GlyphClass: 1
Flags: W
LayerCount: 2
Fore
SplineSet
-5 0 m 1,0,-1
 141 0 l 1,1,-1
 627 710 l 1,2,-1
 119 710 l 1,3,-1
 94 593 l 1,4,-1
 399 593 l 1,5,-1
 -5 0 l 1,0,-1
EndSplineSet
Substitution2: "'frac' Diagonal Fractions lookup 24 subtable" seven.numr
Substitution2: "'dnom' Denominators lookup 22 subtable" seven.dnom
Substitution2: "'numr' Numerators lookup 21 subtable" seven.numr
Substitution2: "'sups' Superscript lookup 20 subtable" uni2077
Substitution2: "'sinf' Scientific Inferiors lookup 19 subtable" seven.subs
Substitution2: "'subs' Subscript lookup 18 subtable" uni2087
AlternateSubs2: "'aalt' Access All Alternates lookup 1 subtable" uni2087 seven.subs uni2077 seven.numr seven.dnom
EndChar

StartChar: eight
Encoding: 56 56 27
Width: 582
GlyphClass: 1
Flags: W
LayerCount: 2
Fore
SplineSet
521 241 m 0,0,1
 521 290 521 290 498.5 326 c 128,-1,2
 476 362 476 362 446 380 c 1,3,4
 469 390 469 390 490 406.5 c 128,-1,5
 511 423 511 423 528 444.5 c 128,-1,6
 545 466 545 466 555.5 492 c 128,-1,7
 566 518 566 518 566 547 c 0,8,9
 566 587 566 587 549.5 617 c 128,-1,10
 533 647 533 647 506 668 c 128,-1,11
 479 689 479 689 445 699.5 c 128,-1,12
 411 710 411 710 377 710 c 0,13,14
 334 710 334 710 287 695 c 128,-1,15
 240 680 240 680 200 652 c 128,-1,16
 160 624 160 624 134 583 c 128,-1,17
 108 542 108 542 108 490 c 0,18,19
 108 454 108 454 124.5 424.5 c 128,-1,20
 141 395 141 395 167 380 c 1,21,22
 143 368 143 368 117 349.5 c 128,-1,23
 91 331 91 331 70 306 c 128,-1,24
 49 281 49 281 35 248.5 c 128,-1,25
 21 216 21 216 21 176 c 256,26,27
 21 136 21 136 36 102 c 128,-1,28
 51 68 51 68 78 43.5 c 128,-1,29
 105 19 105 19 142.5 5 c 128,-1,30
 180 -9 180 -9 224 -9 c 0,31,32
 281 -9 281 -9 334.5 9.5 c 128,-1,33
 388 28 388 28 429 61.5 c 128,-1,34
 470 95 470 95 495.5 141 c 128,-1,35
 521 187 521 187 521 241 c 0,0,1
390 237 m 0,36,37
 390 209 390 209 377.5 185.5 c 128,-1,38
 365 162 365 162 345 144.5 c 128,-1,39
 325 127 325 127 300 117.5 c 128,-1,40
 275 108 275 108 249 108 c 0,41,42
 230 108 230 108 213.5 114.5 c 128,-1,43
 197 121 197 121 184 132.5 c 128,-1,44
 171 144 171 144 163.5 160.5 c 128,-1,45
 156 177 156 177 156 198 c 0,46,47
 156 226 156 226 168 249.5 c 128,-1,48
 180 273 180 273 199.5 290 c 128,-1,49
 219 307 219 307 244.5 316.5 c 128,-1,50
 270 326 270 326 295 326 c 0,51,52
 314 326 314 326 331.5 320 c 128,-1,53
 349 314 349 314 362 303 c 128,-1,54
 375 292 375 292 382.5 275.5 c 128,-1,55
 390 259 390 259 390 237 c 0,36,37
239 495 m 0,56,57
 239 517 239 517 248.5 536 c 128,-1,58
 258 555 258 555 274 568 c 128,-1,59
 290 581 290 581 310.5 588.5 c 128,-1,60
 331 596 331 596 353 596 c 0,61,62
 369 596 369 596 383.5 591 c 128,-1,63
 398 586 398 586 408.5 577 c 128,-1,64
 419 568 419 568 425.5 555 c 128,-1,65
 432 542 432 542 432 526 c 0,66,67
 432 502 432 502 420.5 482.5 c 128,-1,68
 409 463 409 463 392 450 c 128,-1,69
 375 437 375 437 355 430 c 128,-1,70
 335 423 335 423 316 423 c 0,71,72
 302 423 302 423 288 428 c 128,-1,73
 274 433 274 433 263 442 c 128,-1,74
 252 451 252 451 245.5 464 c 128,-1,75
 239 477 239 477 239 495 c 0,56,57
EndSplineSet
Substitution2: "'frac' Diagonal Fractions lookup 24 subtable" eight.numr
Substitution2: "'dnom' Denominators lookup 22 subtable" eight.dnom
Substitution2: "'numr' Numerators lookup 21 subtable" eight.numr
Substitution2: "'sups' Superscript lookup 20 subtable" uni2078
Substitution2: "'sinf' Scientific Inferiors lookup 19 subtable" eight.subs
Substitution2: "'subs' Subscript lookup 18 subtable" uni2088
AlternateSubs2: "'aalt' Access All Alternates lookup 1 subtable" uni2088 eight.subs uni2078 eight.numr eight.dnom
EndChar

StartChar: nine
Encoding: 57 57 28
Width: 574
GlyphClass: 1
Flags: W
LayerCount: 2
Fore
SplineSet
211 -8 m 0,0,1
 147 -8 147 -8 100 21.5 c 128,-1,2
 53 51 53 51 27 106 c 1,3,-1
 118 186 l 1,4,5
 133 148 133 148 164 126 c 128,-1,6
 195 104 195 104 237 104 c 0,7,8
 268 104 268 104 299.5 118 c 128,-1,9
 331 132 331 132 357.5 159.5 c 128,-1,10
 384 187 384 187 404.5 226 c 128,-1,11
 425 265 425 265 434 316 c 1,12,13
 420 296 420 296 400.5 281 c 128,-1,14
 381 266 381 266 358.5 255.5 c 128,-1,15
 336 245 336 245 311.5 239.5 c 128,-1,16
 287 234 287 234 264 234 c 0,17,18
 221 234 221 234 186 248.5 c 128,-1,19
 151 263 151 263 126 289 c 128,-1,20
 101 315 101 315 87.5 350.5 c 128,-1,21
 74 386 74 386 74 428 c 0,22,23
 74 486 74 486 99 538.5 c 128,-1,24
 124 591 124 591 166.5 631 c 128,-1,25
 209 671 209 671 264 694 c 128,-1,26
 319 717 319 717 378 717 c 0,27,28
 424 717 424 717 460 701 c 128,-1,29
 496 685 496 685 520.5 655 c 128,-1,30
 545 625 545 625 558 582 c 128,-1,31
 571 539 571 539 571 484 c 0,32,33
 571 383 571 383 544.5 293.5 c 128,-1,34
 518 204 518 204 470.5 137 c 128,-1,35
 423 70 423 70 357 31 c 128,-1,36
 291 -8 291 -8 211 -8 c 0,0,1
296 336 m 0,37,38
 326 336 326 336 354 349 c 128,-1,39
 382 362 382 362 403.5 384 c 128,-1,40
 425 406 425 406 438.5 435 c 128,-1,41
 452 464 452 464 452 495 c 0,42,43
 452 519 452 519 445 539.5 c 128,-1,44
 438 560 438 560 425 575 c 128,-1,45
 412 590 412 590 394 599 c 128,-1,46
 376 608 376 608 354 608 c 0,47,48
 326 608 326 608 298 595 c 128,-1,49
 270 582 270 582 248 559.5 c 128,-1,50
 226 537 226 537 212.5 507.5 c 128,-1,51
 199 478 199 478 199 445 c 0,52,53
 199 422 199 422 206 402 c 128,-1,54
 213 382 213 382 226 367 c 128,-1,55
 239 352 239 352 257 344 c 128,-1,56
 275 336 275 336 296 336 c 0,37,38
EndSplineSet
Substitution2: "'frac' Diagonal Fractions lookup 24 subtable" nine.numr
Substitution2: "'dnom' Denominators lookup 22 subtable" nine.dnom
Substitution2: "'numr' Numerators lookup 21 subtable" nine.numr
Substitution2: "'sups' Superscript lookup 20 subtable" uni2079
Substitution2: "'sinf' Scientific Inferiors lookup 19 subtable" nine.subs
Substitution2: "'subs' Subscript lookup 18 subtable" uni2089
AlternateSubs2: "'aalt' Access All Alternates lookup 1 subtable" uni2089 nine.subs uni2079 nine.numr nine.dnom
EndChar

StartChar: less
Encoding: 60 60 31
Width: 550
GlyphClass: 1
Flags: W
LayerCount: 2
Fore
SplineSet
29 224 m 1,0,-1
 451 -26 l 1,1,-1
 451 118 l 1,2,-1
 216 259 l 1,3,-1
 451 405 l 1,4,-1
 451 542 l 1,5,-1
 29 287 l 1,6,-1
 29 224 l 1,0,-1
EndSplineSet
EndChar

StartChar: equal
Encoding: 61 61 32
Width: 484
GlyphClass: 1
Flags: W
LayerCount: 2
Fore
SplineSet
392 148 m 1,0,-1
 392 232 l 1,1,-1
 80 232 l 1,2,-1
 80 148 l 1,3,-1
 392 148 l 1,0,-1
392 320 m 1,4,-1
 392 404 l 1,5,-1
 80 404 l 1,6,-1
 80 320 l 1,7,-1
 392 320 l 1,4,-1
EndSplineSet
EndChar

StartChar: greater
Encoding: 62 62 33
Width: 550
GlyphClass: 1
Flags: W
LayerCount: 2
Fore
SplineSet
502 287 m 1,0,-1
 80 542 l 1,1,-1
 80 405 l 1,2,-1
 314 259 l 1,3,-1
 80 118 l 1,4,-1
 80 -26 l 1,5,-1
 502 224 l 1,6,-1
 502 287 l 1,0,-1
EndSplineSet
EndChar

StartChar: question
Encoding: 63 63 34
Width: 470
GlyphClass: 1
Flags: W
LayerCount: 2
Fore
SplineSet
205 230 m 1,0,1
 210 257 210 257 223.5 274.5 c 128,-1,2
 237 292 237 292 255.5 306 c 128,-1,3
 274 320 274 320 295 331 c 128,-1,4
 316 342 316 342 338 354 c 0,5,6
 364 368 364 368 387 384 c 128,-1,7
 410 400 410 400 427.5 420 c 128,-1,8
 445 440 445 440 458 465 c 128,-1,9
 471 490 471 490 478 522 c 0,10,11
 489 574 489 574 479.5 611 c 128,-1,12
 470 648 470 648 447 672 c 128,-1,13
 424 696 424 696 390.5 707.5 c 128,-1,14
 357 719 357 719 321 719 c 0,15,16
 288 719 288 719 255.5 710.5 c 128,-1,17
 223 702 223 702 193 685.5 c 128,-1,18
 163 669 163 669 137.5 645 c 128,-1,19
 112 621 112 621 92 590 c 1,20,-1
 161 532 l 1,21,22
 172 546 172 546 186.5 561 c 128,-1,23
 201 576 201 576 218 587.5 c 128,-1,24
 235 599 235 599 254 606.5 c 128,-1,25
 273 614 273 614 295 614 c 0,26,27
 313 614 313 614 328.5 608 c 128,-1,28
 344 602 344 602 354.5 591 c 128,-1,29
 365 580 365 580 369.5 563 c 128,-1,30
 374 546 374 546 369 525 c 0,31,32
 363 496 363 496 344.5 474.5 c 128,-1,33
 326 453 326 453 302.5 437 c 128,-1,34
 279 421 279 421 255.5 409 c 128,-1,35
 232 397 232 397 215 387 c 0,36,37
 188 373 188 373 169 356 c 128,-1,38
 150 339 150 339 137 319 c 128,-1,39
 124 299 124 299 116 277 c 128,-1,40
 108 255 108 255 103 230 c 1,41,-1
 205 230 l 1,0,1
52 61 m 0,42,43
 46 32 46 32 61 11 c 128,-1,44
 76 -10 76 -10 105 -10 c 0,45,46
 119 -10 119 -10 133 -4.5 c 128,-1,47
 147 1 147 1 158 10.5 c 128,-1,48
 169 20 169 20 177.5 33 c 128,-1,49
 186 46 186 46 188 61 c 0,50,51
 195 91 195 91 179.5 111.5 c 128,-1,52
 164 132 164 132 135 132 c 0,53,54
 121 132 121 132 107.5 126.5 c 128,-1,55
 94 121 94 121 82.5 111.5 c 128,-1,56
 71 102 71 102 63 89 c 128,-1,57
 55 76 55 76 52 61 c 0,42,43
EndSplineSet
EndChar

StartChar: at
Encoding: 64 64 35
Width: 813
GlyphClass: 1
Flags: W
LayerCount: 2
Fore
SplineSet
577 42 m 0,0,1
 560 42 560 42 552.5 52 c 128,-1,2
 545 62 545 62 545 80 c 0,3,4
 545 87 545 87 546 95.5 c 128,-1,5
 547 104 547 104 549 113 c 2,6,-1
 617 450 l 1,7,-1
 550 450 l 1,8,-1
 536 375 l 1,9,10
 524 413 524 413 492 437.5 c 128,-1,11
 460 462 460 462 409 462 c 0,12,13
 361 462 361 462 316 439 c 128,-1,14
 271 416 271 416 237 377 c 128,-1,15
 203 338 203 338 182 287 c 128,-1,16
 161 236 161 236 161 181 c 0,17,18
 161 142 161 142 172.5 108.5 c 128,-1,19
 184 75 184 75 204 50 c 128,-1,20
 224 25 224 25 254 11 c 128,-1,21
 284 -3 284 -3 321 -3 c 0,22,23
 363 -3 363 -3 404 16 c 128,-1,24
 445 35 445 35 481 68 c 1,25,26
 480 63 480 63 480 58.5 c 128,-1,27
 480 54 480 54 480 50 c 0,28,29
 480 15 480 15 501 -0.5 c 128,-1,30
 522 -16 522 -16 554 -16 c 0,31,32
 589 -16 589 -16 617 -0.5 c 128,-1,33
 645 15 645 15 667.5 41.5 c 128,-1,34
 690 68 690 68 707 102 c 128,-1,35
 724 136 724 136 735 172.5 c 128,-1,36
 746 209 746 209 751.5 245.5 c 128,-1,37
 757 282 757 282 757 313 c 0,38,39
 757 373 757 373 736.5 426 c 128,-1,40
 716 479 716 479 678.5 518.5 c 128,-1,41
 641 558 641 558 587 580.5 c 128,-1,42
 533 603 533 603 465 603 c 0,43,44
 381 603 381 603 301.5 570 c 128,-1,45
 222 537 222 537 159.5 477.5 c 128,-1,46
 97 418 97 418 59 336.5 c 128,-1,47
 21 255 21 255 21 158 c 0,48,49
 21 89 21 89 41 33 c 128,-1,50
 61 -23 61 -23 97.5 -62.5 c 128,-1,51
 134 -102 134 -102 185.5 -124 c 128,-1,52
 237 -146 237 -146 300 -146 c 0,53,54
 342 -146 342 -146 384.5 -136 c 128,-1,55
 427 -126 427 -126 470 -106 c 1,56,-1
 464 -56 l 1,57,58
 422 -74 422 -74 386 -84 c 128,-1,59
 350 -94 350 -94 311 -94 c 0,60,61
 256 -94 256 -94 212.5 -75 c 128,-1,62
 169 -56 169 -56 138.5 -22 c 128,-1,63
 108 12 108 12 92 59.5 c 128,-1,64
 76 107 76 107 76 164 c 0,65,66
 76 245 76 245 107.5 315.5 c 128,-1,67
 139 386 139 386 190.5 438.5 c 128,-1,68
 242 491 242 491 310 521 c 128,-1,69
 378 551 378 551 451 551 c 0,70,71
 512 551 512 551 558.5 530.5 c 128,-1,72
 605 510 605 510 636.5 475.5 c 128,-1,73
 668 441 668 441 684.5 395 c 128,-1,74
 701 349 701 349 701 298 c 0,75,76
 701 259 701 259 692 214 c 128,-1,77
 683 169 683 169 666.5 131 c 128,-1,78
 650 93 650 93 627 67.5 c 128,-1,79
 604 42 604 42 577 42 c 0,0,1
350 62 m 0,80,81
 325 62 325 62 304.5 72 c 128,-1,82
 284 82 284 82 270 99.5 c 128,-1,83
 256 117 256 117 248 141.5 c 128,-1,84
 240 166 240 166 240 194 c 0,85,86
 240 234 240 234 255 270 c 128,-1,87
 270 306 270 306 293.5 332.5 c 128,-1,88
 317 359 317 359 346.5 374 c 128,-1,89
 376 389 376 389 405 389 c 0,90,91
 442 389 442 389 469 365 c 128,-1,92
 496 341 496 341 507 294 c 1,93,-1
 486 165 l 1,94,95
 477 144 477 144 463 125 c 128,-1,96
 449 106 449 106 431.5 92 c 128,-1,97
 414 78 414 78 393 70 c 128,-1,98
 372 62 372 62 350 62 c 0,80,81
EndSplineSet
EndChar

StartChar: A
Encoding: 65 65 36
Width: 646
GlyphClass: 1
Flags: W
LayerCount: 2
Fore
SplineSet
-53 0 m 1,0,-1
 85 0 l 1,1,-1
 183 180 l 1,2,-1
 418 180 l 1,3,-1
 441 0 l 1,4,-1
 578 0 l 1,5,-1
 473 710 l 1,6,-1
 355 710 l 1,7,-1
 -53 0 l 1,0,-1
225 274 m 1,8,-1
 382 559 l 1,9,-1
 414 274 l 1,10,-1
 225 274 l 1,8,-1
EndSplineSet
Substitution2: "Single Substitution lookup 46 subtable" ordfeminine
Substitution2: "'aalt' Access All Alternates lookup 0 subtable" ordfeminine
EndChar

StartChar: B
Encoding: 66 66 37
Width: 655
GlyphClass: 1
Flags: W
LayerCount: 2
Fore
SplineSet
11 0 m 1,0,-1
 337 0 l 2,1,2
 388 0 388 0 435 15 c 128,-1,3
 482 30 482 30 518.5 58 c 128,-1,4
 555 86 555 86 577 127.5 c 128,-1,5
 599 169 599 169 599 223 c 0,6,7
 599 275 599 275 575 312 c 128,-1,8
 551 349 551 349 506 364 c 1,9,10
 538 377 538 377 563.5 398.5 c 128,-1,11
 589 420 589 420 606.5 447 c 128,-1,12
 624 474 624 474 633.5 504 c 128,-1,13
 643 534 643 534 643 565 c 0,14,15
 643 593 643 593 635.5 619 c 128,-1,16
 628 645 628 645 613 665.5 c 128,-1,17
 598 686 598 686 575.5 698 c 128,-1,18
 553 710 553 710 523 710 c 2,19,-1
 162 710 l 1,20,-1
 11 0 l 1,0,-1
167 112 m 1,21,-1
 208 306 l 1,22,-1
 408 306 l 2,23,24
 422 306 422 306 433 300 c 128,-1,25
 444 294 444 294 452 283.5 c 128,-1,26
 460 273 460 273 464 259.5 c 128,-1,27
 468 246 468 246 468 230 c 0,28,29
 468 206 468 206 459 184.5 c 128,-1,30
 450 163 450 163 435 147 c 128,-1,31
 420 131 420 131 400.5 121.5 c 128,-1,32
 381 112 381 112 360 112 c 2,33,-1
 167 112 l 1,21,-1
230 411 m 1,34,-1
 270 597 l 1,35,-1
 449 597 l 2,36,37
 462 597 462 597 472.5 592 c 128,-1,38
 483 587 483 587 490 577.5 c 128,-1,39
 497 568 497 568 501 555 c 128,-1,40
 505 542 505 542 505 526 c 0,41,42
 505 500 505 500 496.5 479 c 128,-1,43
 488 458 488 458 473.5 443 c 128,-1,44
 459 428 459 428 441 419.5 c 128,-1,45
 423 411 423 411 404 411 c 2,46,-1
 230 411 l 1,34,-1
EndSplineSet
EndChar

StartChar: C
Encoding: 67 67 38
Width: 657
GlyphClass: 1
Flags: W
LayerCount: 2
Fore
SplineSet
301 -6 m 0,0,1
 341 -6 341 -6 384.5 4.5 c 128,-1,2
 428 15 428 15 469.5 35.5 c 128,-1,3
 511 56 511 56 547 87 c 128,-1,4
 583 118 583 118 608 159 c 1,5,-1
 513 222 l 1,6,7
 495 193 495 193 472.5 172 c 128,-1,8
 450 151 450 151 425.5 137.5 c 128,-1,9
 401 124 401 124 375.5 118 c 128,-1,10
 350 112 350 112 327 112 c 0,11,12
 289 112 289 112 260 127.5 c 128,-1,13
 231 143 231 143 211.5 169 c 128,-1,14
 192 195 192 195 182 230 c 128,-1,15
 172 265 172 265 172 304 c 0,16,17
 172 353 172 353 188 404.5 c 128,-1,18
 204 456 204 456 235.5 498.5 c 128,-1,19
 267 541 267 541 314 568.5 c 128,-1,20
 361 596 361 596 425 596 c 0,21,22
 448 596 448 596 470.5 591.5 c 128,-1,23
 493 587 493 587 513 575 c 128,-1,24
 533 563 533 563 548 542.5 c 128,-1,25
 563 522 563 522 570 491 c 1,26,-1
 684 559 l 1,27,28
 674 593 674 593 654.5 621.5 c 128,-1,29
 635 650 635 650 605.5 670.5 c 128,-1,30
 576 691 576 691 536.5 702.5 c 128,-1,31
 497 714 497 714 448 714 c 0,32,33
 357 714 357 714 281.5 676 c 128,-1,34
 206 638 206 638 152 578 c 128,-1,35
 98 518 98 518 68 442.5 c 128,-1,36
 38 367 38 367 38 293 c 0,37,38
 38 236 38 236 55 182 c 128,-1,39
 72 128 72 128 105.5 86.5 c 128,-1,40
 139 45 139 45 188 19.5 c 128,-1,41
 237 -6 237 -6 301 -6 c 0,0,1
EndSplineSet
EndChar

StartChar: D
Encoding: 68 68 39
Width: 692
GlyphClass: 1
Flags: W
LayerCount: 2
Fore
SplineSet
11 0 m 1,0,-1
 257 0 l 2,1,2
 346 0 346 0 422.5 33 c 128,-1,3
 499 66 499 66 555.5 124 c 128,-1,4
 612 182 612 182 643.5 261.5 c 128,-1,5
 675 341 675 341 675 435 c 0,6,7
 675 493 675 493 659 543 c 128,-1,8
 643 593 643 593 610 630.5 c 128,-1,9
 577 668 577 668 526.5 689 c 128,-1,10
 476 710 476 710 408 710 c 2,11,-1
 162 710 l 1,12,-1
 11 0 l 1,0,-1
167 116 m 1,13,-1
 269 594 l 1,14,-1
 383 594 l 2,15,16
 421 594 421 594 450.5 581 c 128,-1,17
 480 568 480 568 499.5 544 c 128,-1,18
 519 520 519 520 529 487.5 c 128,-1,19
 539 455 539 455 539 416 c 0,20,21
 539 356 539 356 521 302 c 128,-1,22
 503 248 503 248 469 206.5 c 128,-1,23
 435 165 435 165 387.5 140.5 c 128,-1,24
 340 116 340 116 281 116 c 2,25,-1
 167 116 l 1,13,-1
EndSplineSet
EndChar

StartChar: E
Encoding: 69 69 40
Width: 578
GlyphClass: 1
Flags: W
LayerCount: 2
Fore
SplineSet
11 0 m 1,0,-1
 479 0 l 1,1,-1
 504 116 l 1,2,-1
 167 116 l 1,3,-1
 208 308 l 1,4,-1
 491 308 l 1,5,-1
 514 416 l 1,6,-1
 231 416 l 1,7,-1
 269 594 l 1,8,-1
 597 594 l 1,9,-1
 621 710 l 1,10,-1
 162 710 l 1,11,-1
 11 0 l 1,0,-1
EndSplineSet
EndChar

StartChar: F
Encoding: 70 70 41
Width: 557
GlyphClass: 1
Flags: W
LayerCount: 2
Fore
SplineSet
11 0 m 1,0,-1
 143 0 l 1,1,-1
 206 296 l 1,2,-1
 473 296 l 1,3,-1
 496 405 l 1,4,-1
 229 405 l 1,5,-1
 269 594 l 1,6,-1
 590 594 l 1,7,-1
 615 710 l 1,8,-1
 162 710 l 1,9,-1
 11 0 l 1,0,-1
EndSplineSet
EndChar

StartChar: G
Encoding: 71 71 42
Width: 711
GlyphClass: 1
Flags: W
LayerCount: 2
Fore
SplineSet
297 -5 m 0,0,1
 337 -5 337 -5 374.5 1 c 128,-1,2
 412 7 412 7 449.5 21 c 128,-1,3
 487 35 487 35 524.5 57 c 128,-1,4
 562 79 562 79 600 112 c 1,5,-1
 655 373 l 1,6,-1
 365 373 l 1,7,-1
 343 261 l 1,8,-1
 503 261 l 1,9,-1
 482 163 l 1,10,11
 463 149 463 149 446 138.5 c 128,-1,12
 429 128 429 128 410.5 122 c 128,-1,13
 392 116 392 116 369.5 113.5 c 128,-1,14
 347 111 347 111 318 111 c 0,15,16
 270 111 270 111 238 133 c 128,-1,17
 206 155 206 155 188.5 190 c 128,-1,18
 171 225 171 225 168 268.5 c 128,-1,19
 165 312 165 312 174 355 c 0,20,21
 184 400 184 400 206 443.5 c 128,-1,22
 228 487 228 487 260 521.5 c 128,-1,23
 292 556 292 556 332.5 576.5 c 128,-1,24
 373 597 373 597 420 597 c 0,25,26
 454 597 454 597 479 585 c 128,-1,27
 504 573 504 573 521 555.5 c 128,-1,28
 538 538 538 538 548 518 c 128,-1,29
 558 498 558 498 563 483 c 1,30,-1
 681 566 l 1,31,32
 656 636 656 636 597.5 675.5 c 128,-1,33
 539 715 539 715 452 715 c 0,34,35
 377 715 377 715 310 685 c 128,-1,36
 243 655 243 655 189 605.5 c 128,-1,37
 135 556 135 556 98 491.5 c 128,-1,38
 61 427 61 427 46 357 c 0,39,40
 31 288 31 288 40 222.5 c 128,-1,41
 49 157 49 157 81 106.5 c 128,-1,42
 113 56 113 56 167 25.5 c 128,-1,43
 221 -5 221 -5 297 -5 c 0,0,1
EndSplineSet
Substitution2: "'ss11' Style Set 11 lookup 42 subtable" G.ss11
Substitution2: "'aalt' Access All Alternates lookup 0 subtable" G.ss11
EndChar

StartChar: H
Encoding: 72 72 43
Width: 717
GlyphClass: 1
Flags: W
LayerCount: 2
Fore
SplineSet
11 0 m 1,0,-1
 143 0 l 1,1,-1
 208 305 l 1,2,-1
 512 305 l 1,3,-1
 447 0 l 1,4,-1
 579 0 l 1,5,-1
 730 710 l 1,6,-1
 598 710 l 1,7,-1
 536 421 l 1,8,-1
 232 421 l 1,9,-1
 294 710 l 1,10,-1
 162 710 l 1,11,-1
 11 0 l 1,0,-1
EndSplineSet
EndChar

StartChar: I
Encoding: 73 73 44
Width: 282
GlyphClass: 1
Flags: W
LayerCount: 2
Fore
SplineSet
11 0 m 1,0,-1
 143 0 l 1,1,-1
 294 709 l 1,2,-1
 162 709 l 1,3,-1
 11 0 l 1,0,-1
EndSplineSet
EndChar

StartChar: J
Encoding: 74 74 45
Width: 551
GlyphClass: 2
Flags: W
LayerCount: 2
Fore
SplineSet
110 201 m 1,0,1
 116 185 116 185 123.5 169 c 128,-1,2
 131 153 131 153 142.5 139.5 c 128,-1,3
 154 126 154 126 168.5 118 c 128,-1,4
 183 110 183 110 203 110 c 0,5,6
 233 110 233 110 256.5 123 c 128,-1,7
 280 136 280 136 296.5 156.5 c 128,-1,8
 313 177 313 177 324 203.5 c 128,-1,9
 335 230 335 230 340 256 c 2,10,-1
 429 710 l 1,11,-1
 557 710 l 1,12,-1
 462 231 l 2,13,14
 452 180 452 180 427 136.5 c 128,-1,15
 402 93 402 93 365.5 60.5 c 128,-1,16
 329 28 329 28 282 10 c 128,-1,17
 235 -8 235 -8 182 -8 c 0,18,19
 145 -8 145 -8 114 3.5 c 128,-1,20
 83 15 83 15 59.5 36.5 c 128,-1,21
 36 58 36 58 19.5 87.5 c 128,-1,22
 3 117 3 117 -5 152 c 1,23,-1
 110 201 l 1,0,1
EndSplineSet
EndChar

StartChar: K
Encoding: 75 75 46
Width: 641
GlyphClass: 1
Flags: W
LayerCount: 2
Fore
SplineSet
11 0 m 1,0,-1
 143 0 l 1,1,-1
 188 212 l 1,2,-1
 295 311 l 1,3,-1
 437 0 l 1,4,-1
 587 0 l 1,5,-1
 396 395 l 1,6,-1
 722 710 l 1,7,-1
 575 710 l 1,8,-1
 221 366 l 1,9,-1
 294 709 l 1,10,-1
 162 709 l 1,11,-1
 11 0 l 1,0,-1
EndSplineSet
EndChar

StartChar: L
Encoding: 76 76 47
Width: 561
GlyphClass: 1
Flags: W
LayerCount: 2
Fore
SplineSet
11 0 m 1,0,-1
 486 0 l 1,1,-1
 511 116 l 1,2,-1
 167 116 l 1,3,-1
 294 710 l 1,4,-1
 162 710 l 1,5,-1
 11 0 l 1,0,-1
EndSplineSet
EndChar

StartChar: M
Encoding: 77 77 48
Width: 831
GlyphClass: 1
Flags: W
LayerCount: 2
Fore
SplineSet
11 0 m 1,0,-1
 143 0 l 1,1,-1
 245 479 l 1,2,-1
 341 121 l 1,3,-1
 413 121 l 1,4,-1
 662 479 l 1,5,-1
 560 0 l 1,6,-1
 692 0 l 1,7,-1
 843 710 l 1,8,-1
 702 710 l 1,9,-1
 415 300 l 1,10,-1
 304 710 l 1,11,-1
 162 710 l 1,12,-1
 11 0 l 1,0,-1
EndSplineSet
EndChar

StartChar: N
Encoding: 78 78 49
Width: 733
GlyphClass: 1
Flags: W
LayerCount: 2
Fore
SplineSet
11 0 m 1,0,-1
 143 0 l 1,1,-1
 241 465 l 1,2,-1
 488 0 l 1,3,-1
 595 0 l 1,4,-1
 746 709 l 1,5,-1
 614 709 l 1,6,-1
 513 234 l 1,7,-1
 265 710 l 1,8,-1
 162 710 l 1,9,-1
 11 0 l 1,0,-1
EndSplineSet
EndChar

StartChar: O
Encoding: 79 79 50
Width: 728
GlyphClass: 1
Flags: W
LayerCount: 2
Fore
SplineSet
298 -5 m 0,0,1
 379 -5 379 -5 454 31 c 128,-1,2
 529 67 529 67 586.5 126 c 128,-1,3
 644 185 644 185 678.5 261.5 c 128,-1,4
 713 338 713 338 713 418 c 0,5,6
 713 476 713 476 695.5 529 c 128,-1,7
 678 582 678 582 645.5 623.5 c 128,-1,8
 613 665 613 665 564.5 690 c 128,-1,9
 516 715 516 715 454 715 c 0,10,11
 373 715 373 715 297.5 679 c 128,-1,12
 222 643 222 643 164 583.5 c 128,-1,13
 106 524 106 524 72 447.5 c 128,-1,14
 38 371 38 371 38 290 c 0,15,16
 38 232 38 232 55 178.5 c 128,-1,17
 72 125 72 125 105 84.5 c 128,-1,18
 138 44 138 44 187 19.5 c 128,-1,19
 236 -5 236 -5 298 -5 c 0,0,1
324 112 m 0,20,21
 286 112 286 112 258 127.5 c 128,-1,22
 230 143 230 143 211 169 c 128,-1,23
 192 195 192 195 182.5 229 c 128,-1,24
 173 263 173 263 173 300 c 0,25,26
 173 352 173 352 191.5 404.5 c 128,-1,27
 210 457 210 457 244 500 c 128,-1,28
 278 543 278 543 324.5 569.5 c 128,-1,29
 371 596 371 596 427 596 c 0,30,31
 464 596 464 596 492.5 581 c 128,-1,32
 521 566 521 566 540 540.5 c 128,-1,33
 559 515 559 515 568.5 481 c 128,-1,34
 578 447 578 447 578 409 c 0,35,36
 578 358 578 358 559.5 305.5 c 128,-1,37
 541 253 541 253 507.5 210 c 128,-1,38
 474 167 474 167 427.5 139.5 c 128,-1,39
 381 112 381 112 324 112 c 0,20,21
EndSplineSet
Substitution2: "Single Substitution lookup 46 subtable" ordmasculine
Substitution2: "'aalt' Access All Alternates lookup 0 subtable" ordmasculine
EndChar

StartChar: P
Encoding: 80 80 51
Width: 601
GlyphClass: 1
Flags: W
LayerCount: 2
Fore
SplineSet
11 0 m 1,0,-1
 143 0 l 1,1,-1
 194 240 l 1,2,-1
 353 240 l 2,3,4
 407 240 407 240 455 264.5 c 128,-1,5
 503 289 503 289 539 328 c 128,-1,6
 575 367 575 367 596.5 416.5 c 128,-1,7
 618 466 618 466 618 515 c 0,8,9
 618 552 618 552 606.5 587.5 c 128,-1,10
 595 623 595 623 573 650 c 128,-1,11
 551 677 551 677 519.5 693.5 c 128,-1,12
 488 710 488 710 448 710 c 2,13,-1
 162 710 l 1,14,-1
 11 0 l 1,0,-1
219 356 m 1,15,-1
 269 594 l 1,16,-1
 414 594 l 2,17,18
 428 594 428 594 440.5 588 c 128,-1,19
 453 582 453 582 462.5 570 c 128,-1,20
 472 558 472 558 477.5 541.5 c 128,-1,21
 483 525 483 525 483 504 c 0,22,23
 483 473 483 473 473 446 c 128,-1,24
 463 419 463 419 447.5 399 c 128,-1,25
 432 379 432 379 411.5 367.5 c 128,-1,26
 391 356 391 356 369 356 c 2,27,-1
 219 356 l 1,15,-1
EndSplineSet
EndChar

StartChar: Q
Encoding: 81 81 52
Width: 728
GlyphClass: 1
Flags: W
LayerCount: 2
Fore
SplineSet
298 -5 m 0,0,1
 379 -5 379 -5 454 31 c 128,-1,2
 529 67 529 67 586.5 126 c 128,-1,3
 644 185 644 185 678.5 261.5 c 128,-1,4
 713 338 713 338 713 418 c 0,5,6
 713 476 713 476 695.5 529 c 128,-1,7
 678 582 678 582 645.5 623.5 c 128,-1,8
 613 665 613 665 564.5 690 c 128,-1,9
 516 715 516 715 454 715 c 0,10,11
 373 715 373 715 297.5 679 c 128,-1,12
 222 643 222 643 164 583.5 c 128,-1,13
 106 524 106 524 72 447.5 c 128,-1,14
 38 371 38 371 38 290 c 0,15,16
 38 232 38 232 55 178.5 c 128,-1,17
 72 125 72 125 105 84.5 c 128,-1,18
 138 44 138 44 187 19.5 c 128,-1,19
 236 -5 236 -5 298 -5 c 0,0,1
324 112 m 0,20,21
 286 112 286 112 258 127.5 c 128,-1,22
 230 143 230 143 211 169 c 128,-1,23
 192 195 192 195 182.5 229 c 128,-1,24
 173 263 173 263 173 300 c 0,25,26
 173 352 173 352 191.5 404.5 c 128,-1,27
 210 457 210 457 244 500 c 128,-1,28
 278 543 278 543 324.5 569.5 c 128,-1,29
 371 596 371 596 427 596 c 0,30,31
 464 596 464 596 492.5 581 c 128,-1,32
 521 566 521 566 540 540.5 c 128,-1,33
 559 515 559 515 568.5 481 c 128,-1,34
 578 447 578 447 578 409 c 0,35,36
 578 358 578 358 559.5 305.5 c 128,-1,37
 541 253 541 253 507.5 210 c 128,-1,38
 474 167 474 167 427.5 139.5 c 128,-1,39
 381 112 381 112 324 112 c 0,20,21
578 -18 m 1,40,-1
 660 51 l 1,41,-1
 432 333 l 1,42,-1
 351 264 l 1,43,-1
 578 -18 l 1,40,-1
EndSplineSet
EndChar

StartChar: R
Encoding: 82 82 53
Width: 641
GlyphClass: 1
Flags: W
LayerCount: 2
Fore
SplineSet
143 0 m 1,0,-1
 194 240 l 1,1,-1
 322 240 l 1,2,-1
 408 0 l 1,3,-1
 557 0 l 1,4,-1
 460 268 l 1,5,6
 497 282 497 282 528 308 c 128,-1,7
 559 334 559 334 582 367 c 128,-1,8
 605 400 605 400 618 438 c 128,-1,9
 631 476 631 476 631 515 c 0,10,11
 631 552 631 552 619 587.5 c 128,-1,12
 607 623 607 623 585.5 650 c 128,-1,13
 564 677 564 677 532.5 693.5 c 128,-1,14
 501 710 501 710 461 710 c 2,15,-1
 162 710 l 1,16,-1
 11 0 l 1,17,-1
 143 0 l 1,0,-1
219 356 m 1,18,-1
 269 594 l 1,19,-1
 427 594 l 2,20,21
 442 594 442 594 454 587 c 128,-1,22
 466 580 466 580 475 567.5 c 128,-1,23
 484 555 484 555 489 538 c 128,-1,24
 494 521 494 521 494 501 c 0,25,26
 494 473 494 473 484.5 447 c 128,-1,27
 475 421 475 421 459.5 400.5 c 128,-1,28
 444 380 444 380 424 368 c 128,-1,29
 404 356 404 356 382 356 c 2,30,-1
 219 356 l 1,18,-1
EndSplineSet
EndChar

StartChar: S
Encoding: 83 83 54
Width: 591
GlyphClass: 1
Flags: W
LayerCount: 2
Fore
SplineSet
243 -8 m 0,0,1
 301 -8 301 -8 355 6.5 c 128,-1,2
 409 21 409 21 451 51 c 128,-1,3
 493 81 493 81 518.5 128.5 c 128,-1,4
 544 176 544 176 544 242 c 0,5,6
 544 279 544 279 531 305.5 c 128,-1,7
 518 332 518 332 495 351.5 c 128,-1,8
 472 371 472 371 439 385 c 128,-1,9
 406 399 406 399 366 411 c 0,10,11
 334 420 334 420 309 428.5 c 128,-1,12
 284 437 284 437 267 446.5 c 128,-1,13
 250 456 250 456 241.5 468.5 c 128,-1,14
 233 481 233 481 233 499 c 0,15,16
 233 522 233 522 241 540 c 128,-1,17
 249 558 249 558 265 571 c 128,-1,18
 281 584 281 584 304.5 591 c 128,-1,19
 328 598 328 598 359 598 c 0,20,21
 389 598 389 598 417.5 590 c 128,-1,22
 446 582 446 582 468 571 c 128,-1,23
 490 560 490 560 505.5 548 c 128,-1,24
 521 536 521 536 525 528 c 1,25,-1
 606 636 l 1,26,27
 588 652 588 652 565 666 c 128,-1,28
 542 680 542 680 514 691 c 128,-1,29
 486 702 486 702 454.5 708.5 c 128,-1,30
 423 715 423 715 388 715 c 0,31,32
 329 715 329 715 274.5 697.5 c 128,-1,33
 220 680 220 680 178.5 646.5 c 128,-1,34
 137 613 137 613 112.5 565 c 128,-1,35
 88 517 88 517 88 455 c 0,36,37
 88 425 88 425 98 401.5 c 128,-1,38
 108 378 108 378 128 359.5 c 128,-1,39
 148 341 148 341 177 327 c 128,-1,40
 206 313 206 313 244 302 c 0,41,42
 277 292 277 292 305 282.5 c 128,-1,43
 333 273 333 273 353 261.5 c 128,-1,44
 373 250 373 250 384.5 236 c 128,-1,45
 396 222 396 222 396 202 c 0,46,47
 396 181 396 181 388 164.5 c 128,-1,48
 380 148 380 148 364 136 c 128,-1,49
 348 124 348 124 325 117.5 c 128,-1,50
 302 111 302 111 271 111 c 0,51,52
 232 111 232 111 197 121 c 128,-1,53
 162 131 162 131 134.5 145 c 128,-1,54
 107 159 107 159 88 174 c 128,-1,55
 69 189 69 189 63 199 c 1,56,-1
 -20 85 l 1,57,58
 4 63 4 63 34 46 c 128,-1,59
 64 29 64 29 98 17 c 128,-1,60
 132 5 132 5 168.5 -1.5 c 128,-1,61
 205 -8 205 -8 243 -8 c 0,0,1
EndSplineSet
EndChar

StartChar: T
Encoding: 84 84 55
Width: 592
GlyphClass: 1
Flags: W
LayerCount: 2
Fore
SplineSet
165 0 m 1,0,-1
 297 0 l 1,1,-1
 424 594 l 1,2,-1
 638 594 l 1,3,-1
 663 710 l 1,4,-1
 101 710 l 1,5,-1
 77 594 l 1,6,-1
 292 594 l 1,7,-1
 165 0 l 1,0,-1
EndSplineSet
EndChar

StartChar: U
Encoding: 85 85 56
Width: 720
GlyphClass: 1
Flags: W
LayerCount: 2
Fore
SplineSet
295 -5 m 0,0,1
 373 -5 373 -5 435 22.5 c 128,-1,2
 497 50 497 50 543 98.5 c 128,-1,3
 589 147 589 147 619.5 211.5 c 128,-1,4
 650 276 650 276 665 349 c 2,5,-1
 742 710 l 1,6,-1
 610 710 l 1,7,-1
 533 349 l 2,8,9
 524 304 524 304 507 261.5 c 128,-1,10
 490 219 490 219 463.5 186 c 128,-1,11
 437 153 437 153 401.5 132.5 c 128,-1,12
 366 112 366 112 320 112 c 0,13,14
 286 112 286 112 262.5 123 c 128,-1,15
 239 134 239 134 224 154 c 128,-1,16
 209 174 209 174 203 200.5 c 128,-1,17
 197 227 197 227 197 258 c 0,18,19
 197 280 197 280 199.5 302.5 c 128,-1,20
 202 325 202 325 207 349 c 2,21,-1
 284 710 l 1,22,-1
 152 710 l 1,23,-1
 75 349 l 2,24,25
 68 319 68 319 65 290.5 c 128,-1,26
 62 262 62 262 62 234 c 0,27,28
 62 184 62 184 74.5 140 c 128,-1,29
 87 96 87 96 115 64 c 128,-1,30
 143 32 143 32 187 13.5 c 128,-1,31
 231 -5 231 -5 295 -5 c 0,0,1
EndSplineSet
EndChar

StartChar: V
Encoding: 86 86 57
Width: 646
GlyphClass: 1
Flags: W
LayerCount: 2
Fore
SplineSet
201 0 m 1,0,-1
 312 0 l 1,1,-1
 726 710 l 1,2,-1
 587 710 l 1,3,-1
 292 166 l 1,4,-1
 227 710 l 1,5,-1
 87 710 l 1,6,-1
 201 0 l 1,0,-1
EndSplineSet
EndChar

StartChar: W
Encoding: 87 87 58
Width: 1011
GlyphClass: 1
Flags: W
LayerCount: 2
Fore
SplineSet
151 0 m 1,0,-1
 275 0 l 1,1,-1
 545 509 l 1,2,-1
 612 0 l 1,3,-1
 734 0 l 1,4,-1
 1081 710 l 1,5,-1
 948 710 l 1,6,-1
 697 178 l 1,7,-1
 650 710 l 1,8,-1
 521 710 l 1,9,-1
 260 177 l 1,10,-1
 226 710 l 1,11,-1
 93 710 l 1,12,-1
 151 0 l 1,0,-1
EndSplineSet
Substitution2: "'ss09' Style Set 9 lookup 40 subtable" W.ss09
Substitution2: "'aalt' Access All Alternates lookup 0 subtable" W.ss09
EndChar

StartChar: X
Encoding: 88 88 59
Width: 618
GlyphClass: 1
Flags: W
LayerCount: 2
Fore
SplineSet
-58 0 m 1,0,-1
 87 0 l 1,1,-1
 300 257 l 1,2,-1
 404 0 l 1,3,-1
 548 0 l 1,4,-1
 390 350 l 1,5,-1
 707 710 l 1,6,-1
 563 710 l 1,7,-1
 340 443 l 1,8,-1
 230 710 l 1,9,-1
 85 710 l 1,10,-1
 249 350 l 1,11,-1
 -58 0 l 1,0,-1
EndSplineSet
EndChar

StartChar: Y
Encoding: 89 89 60
Width: 618
GlyphClass: 1
Flags: W
LayerCount: 2
Fore
SplineSet
174 0 m 1,0,-1
 306 0 l 1,1,-1
 359 249 l 1,2,-1
 703 710 l 1,3,-1
 559 710 l 1,4,-1
 318 365 l 1,5,-1
 226 710 l 1,6,-1
 82 710 l 1,7,-1
 228 251 l 1,8,-1
 174 0 l 1,0,-1
EndSplineSet
EndChar

StartChar: Z
Encoding: 90 90 61
Width: 597
GlyphClass: 1
Flags: W
LayerCount: 2
Fore
SplineSet
-35 0 m 1,0,-1
 500 0 l 1,1,-1
 524 116 l 1,2,-1
 155 116 l 1,3,-1
 627 610 l 1,4,-1
 648 710 l 1,5,-1
 127 710 l 1,6,-1
 103 594 l 1,7,-1
 470 594 l 1,8,-1
 -14 100 l 1,9,-1
 -35 0 l 1,0,-1
EndSplineSet
EndChar

StartChar: bracketleft
Encoding: 91 91 62
Width: 297
GlyphClass: 1
Flags: W
LayerCount: 2
Fore
SplineSet
182 -40 m 1,0,-1
 203 63 l 1,1,-1
 143 63 l 1,2,-1
 265 637 l 1,3,-1
 325 637 l 1,4,-1
 347 740 l 1,5,-1
 168 740 l 1,6,-1
 2 -40 l 1,7,-1
 182 -40 l 1,0,-1
EndSplineSet
EndChar

StartChar: backslash
Encoding: 92 92 63
Width: 599
GlyphClass: 1
Flags: W
LayerCount: 2
Fore
SplineSet
107 710 m 1,0,-1
 370 0 l 1,1,-1
 513 0 l 1,2,-1
 251 710 l 1,3,-1
 107 710 l 1,0,-1
EndSplineSet
EndChar

StartChar: bracketright
Encoding: 93 93 64
Width: 298
GlyphClass: 1
Flags: W
LayerCount: 2
Fore
SplineSet
151 -40 m 1,0,-1
 316 740 l 1,1,-1
 137 740 l 1,2,-1
 115 637 l 1,3,-1
 176 637 l 1,4,-1
 54 63 l 1,5,-1
 -7 63 l 1,6,-1
 -29 -40 l 1,7,-1
 151 -40 l 1,0,-1
EndSplineSet
EndChar

StartChar: asciicircum
Encoding: 94 94 65
Width: 586
GlyphClass: 1
Flags: W
LayerCount: 2
Fore
SplineSet
152 303 m 1,0,-1
 300 601 l 1,1,-1
 445 303 l 1,2,-1
 551 303 l 1,3,-1
 354 710 l 1,4,-1
 246 710 l 1,5,-1
 48 303 l 1,6,-1
 152 303 l 1,0,-1
EndSplineSet
EndChar

StartChar: underscore
Encoding: 95 95 66
Width: 459
GlyphClass: 1
Flags: W
LayerCount: 2
Fore
SplineSet
314 -116 m 1,0,-1
 339 0 l 1,1,-1
 -9 0 l 1,2,-1
 -33 -116 l 1,3,-1
 314 -116 l 1,0,-1
EndSplineSet
EndChar

StartChar: a
Encoding: 97 97 68
Width: 612
GlyphClass: 1
Flags: W
LayerCount: 2
Fore
SplineSet
201 -10 m 0,0,1
 255 -10 255 -10 299.5 15.5 c 128,-1,2
 344 41 344 41 378 87 c 1,3,-1
 359 0 l 1,4,-1
 487 0 l 1,5,-1
 597 517 l 1,6,-1
 469 517 l 1,7,-1
 449 429 l 1,8,9
 436 477 436 477 398 505 c 128,-1,10
 360 533 360 533 304 533 c 0,11,12
 249 533 249 533 196.5 506.5 c 128,-1,13
 144 480 144 480 104 434.5 c 128,-1,14
 64 389 64 389 40 330 c 128,-1,15
 16 271 16 271 16 205 c 0,16,17
 16 160 16 160 28.5 120.5 c 128,-1,18
 41 81 41 81 65 52 c 128,-1,19
 89 23 89 23 123.5 6.5 c 128,-1,20
 158 -10 158 -10 201 -10 c 0,0,1
258 100 m 0,21,22
 233 100 233 100 213.5 109.5 c 128,-1,23
 194 119 194 119 180.5 136 c 128,-1,24
 167 153 167 153 159.5 176 c 128,-1,25
 152 199 152 199 152 226 c 0,26,27
 152 262 152 262 166 297 c 128,-1,28
 180 332 180 332 203.5 360.5 c 128,-1,29
 227 389 227 389 257.5 406 c 128,-1,30
 288 423 288 423 321 423 c 0,31,32
 342 423 342 423 359.5 415.5 c 128,-1,33
 377 408 377 408 390.5 394 c 128,-1,34
 404 380 404 380 413.5 360.5 c 128,-1,35
 423 341 423 341 426 317 c 1,36,-1
 399 191 l 1,37,38
 385 171 385 171 369 154 c 128,-1,39
 353 137 353 137 335 125 c 128,-1,40
 317 113 317 113 297.5 106.5 c 128,-1,41
 278 100 278 100 258 100 c 0,21,22
EndSplineSet
Substitution2: "Single Substitution lookup 46 subtable" ordfeminine
Substitution2: "'ss02' Style Set 2 lookup 33 subtable" a.ss02
Substitution2: "'ss01' Style Set 1 lookup 32 subtable" a.ss01
Substitution2: "'salt' Stylistic Alternatives lookup 31 subtable" a.ss01
AlternateSubs2: "'aalt' Access All Alternates lookup 1 subtable" ordfeminine a.ss01 a.ss02
EndChar

StartChar: b
Encoding: 98 98 69
Width: 610
GlyphClass: 1
Flags: W
LayerCount: 2
Fore
SplineSet
280 -10 m 0,0,1
 337 -10 337 -10 390.5 16.5 c 128,-1,2
 444 43 444 43 485.5 88 c 128,-1,3
 527 133 527 133 552.5 193 c 128,-1,4
 578 253 578 253 578 321 c 0,5,6
 578 364 578 364 567 403 c 128,-1,7
 556 442 556 442 534 471 c 128,-1,8
 512 500 512 500 480 516.5 c 128,-1,9
 448 533 448 533 406 533 c 0,10,11
 351 533 351 533 302 505 c 128,-1,12
 253 477 253 477 217 430 c 1,13,-1
 280 730 l 1,14,-1
 152 730 l 1,15,-1
 -3 0 l 1,16,-1
 109 0 l 1,17,-1
 129 92 l 1,18,19
 136 68 136 68 149.5 49.5 c 128,-1,20
 163 31 163 31 182 17.5 c 128,-1,21
 201 4 201 4 225.5 -3 c 128,-1,22
 250 -10 250 -10 280 -10 c 0,0,1
271 100 m 0,23,24
 250 100 250 100 232 106.5 c 128,-1,25
 214 113 214 113 200 125.5 c 128,-1,26
 186 138 186 138 177.5 154.5 c 128,-1,27
 169 171 169 171 166 191 c 1,28,-1
 193 319 l 1,29,30
 207 341 207 341 224 360 c 128,-1,31
 241 379 241 379 260.5 393 c 128,-1,32
 280 407 280 407 301 415 c 128,-1,33
 322 423 322 423 343 423 c 0,34,35
 367 423 367 423 385 413 c 128,-1,36
 403 403 403 403 416 385.5 c 128,-1,37
 429 368 429 368 435.5 345 c 128,-1,38
 442 322 442 322 442 296 c 0,39,40
 442 257 442 257 427.5 221.5 c 128,-1,41
 413 186 413 186 389.5 159 c 128,-1,42
 366 132 366 132 335 116 c 128,-1,43
 304 100 304 100 271 100 c 0,23,24
EndSplineSet
EndChar

StartChar: c
Encoding: 99 99 70
Width: 541
GlyphClass: 1
Flags: W
LayerCount: 2
Fore
SplineSet
229 -10 m 0,0,1
 270 -10 270 -10 307.5 0 c 128,-1,2
 345 10 345 10 377.5 28 c 128,-1,3
 410 46 410 46 437 71.5 c 128,-1,4
 464 97 464 97 483 126 c 1,5,-1
 365 164 l 1,6,7
 357 151 357 151 344 139 c 128,-1,8
 331 127 331 127 315.5 118 c 128,-1,9
 300 109 300 109 283 104.5 c 128,-1,10
 266 100 266 100 249 100 c 0,11,12
 227 100 227 100 208.5 109 c 128,-1,13
 190 118 190 118 177 134.5 c 128,-1,14
 164 151 164 151 156.5 174.5 c 128,-1,15
 149 198 149 198 149 226 c 0,16,17
 149 268 149 268 163.5 304 c 128,-1,18
 178 340 178 340 201.5 366.5 c 128,-1,19
 225 393 225 393 255.5 408 c 128,-1,20
 286 423 286 423 318 423 c 0,21,22
 351 423 351 423 373 407 c 128,-1,23
 395 391 395 391 406 361 c 1,24,-1
 539 400 l 1,25,26
 523 460 523 460 474 496.5 c 128,-1,27
 425 533 425 533 341 533 c 0,28,29
 270 533 270 533 210.5 506 c 128,-1,30
 151 479 151 479 107.5 434 c 128,-1,31
 64 389 64 389 40 331 c 128,-1,32
 16 273 16 273 16 211 c 0,33,34
 16 165 16 165 29.5 125 c 128,-1,35
 43 85 43 85 70 55 c 128,-1,36
 97 25 97 25 137 7.5 c 128,-1,37
 177 -10 177 -10 229 -10 c 0,0,1
EndSplineSet
EndChar

StartChar: d
Encoding: 100 100 71
Width: 611
GlyphClass: 1
Flags: W
LayerCount: 2
Fore
SplineSet
202 -10 m 0,0,1
 228 -10 228 -10 252 -4 c 128,-1,2
 276 2 276 2 298 14 c 128,-1,3
 320 26 320 26 339 43.5 c 128,-1,4
 358 61 358 61 375 83 c 1,5,-1
 358 0 l 1,6,-1
 486 0 l 1,7,-1
 641 730 l 1,8,-1
 512 730 l 1,9,-1
 448 430 l 1,10,11
 440 453 440 453 427 471.5 c 128,-1,12
 414 490 414 490 395.5 503.5 c 128,-1,13
 377 517 377 517 353.5 525 c 128,-1,14
 330 533 330 533 302 533 c 0,15,16
 246 533 246 533 194.5 506 c 128,-1,17
 143 479 143 479 103.5 434 c 128,-1,18
 64 389 64 389 40 329.5 c 128,-1,19
 16 270 16 270 16 205 c 0,20,21
 16 160 16 160 28.5 120.5 c 128,-1,22
 41 81 41 81 65 52 c 128,-1,23
 89 23 89 23 123.5 6.5 c 128,-1,24
 158 -10 158 -10 202 -10 c 0,0,1
258 100 m 0,25,26
 234 100 234 100 214 109.5 c 128,-1,27
 194 119 194 119 180.5 136 c 128,-1,28
 167 153 167 153 159.5 176 c 128,-1,29
 152 199 152 199 152 226 c 0,30,31
 152 262 152 262 165.5 297.5 c 128,-1,32
 179 333 179 333 202.5 361 c 128,-1,33
 226 389 226 389 256 406 c 128,-1,34
 286 423 286 423 319 423 c 0,35,36
 339 423 339 423 356.5 415.5 c 128,-1,37
 374 408 374 408 388.5 394 c 128,-1,38
 403 380 403 380 412.5 361 c 128,-1,39
 422 342 422 342 425 319 c 1,40,-1
 399 191 l 1,41,42
 389 172 389 172 372 155 c 128,-1,43
 355 138 355 138 336 125.5 c 128,-1,44
 317 113 317 113 297 106.5 c 128,-1,45
 277 100 277 100 258 100 c 0,25,26
EndSplineSet
Substitution2: "'ss03' Style Set 3 lookup 34 subtable" d.ss03
Substitution2: "'aalt' Access All Alternates lookup 0 subtable" d.ss03
EndChar

StartChar: e
Encoding: 101 101 72
Width: 550
GlyphClass: 1
Flags: W
LayerCount: 2
Fore
SplineSet
230 -10 m 0,0,1
 269 -10 269 -10 306.5 0 c 128,-1,2
 344 10 344 10 378 28 c 128,-1,3
 412 46 412 46 441 71 c 128,-1,4
 470 96 470 96 490 126 c 1,5,-1
 387 158 l 1,6,7
 377 141 377 141 362 127 c 128,-1,8
 347 113 347 113 329.5 103.5 c 128,-1,9
 312 94 312 94 292.5 89 c 128,-1,10
 273 84 273 84 253 84 c 0,11,12
 226 84 226 84 206.5 93.5 c 128,-1,13
 187 103 187 103 174.5 119.5 c 128,-1,14
 162 136 162 136 155.5 158.5 c 128,-1,15
 149 181 149 181 149 208 c 0,16,17
 149 248 149 248 160.5 289 c 128,-1,18
 172 330 172 330 194.5 363.5 c 128,-1,19
 217 397 217 397 250.5 418 c 128,-1,20
 284 439 284 439 328 439 c 0,21,22
 346 439 346 439 361 435.5 c 128,-1,23
 376 432 376 432 387 424.5 c 128,-1,24
 398 417 398 417 403.5 405.5 c 128,-1,25
 409 394 409 394 409 379 c 0,26,27
 409 361 409 361 400 346.5 c 128,-1,28
 391 332 391 332 370 322 c 128,-1,29
 349 312 349 312 315 306.5 c 128,-1,30
 281 301 281 301 232 301 c 0,31,32
 204 301 204 301 176 302.5 c 128,-1,33
 148 304 148 304 118 307 c 1,34,-1
 94 226 l 1,35,36
 131 222 131 222 166 220.5 c 128,-1,37
 201 219 201 219 230 219 c 0,38,39
 382 219 382 219 456.5 261.5 c 128,-1,40
 531 304 531 304 531 387 c 0,41,42
 531 423 531 423 517.5 450 c 128,-1,43
 504 477 504 477 479.5 495.5 c 128,-1,44
 455 514 455 514 421 523.5 c 128,-1,45
 387 533 387 533 345 533 c 0,46,47
 275 533 275 533 215 507 c 128,-1,48
 155 481 155 481 111 437 c 128,-1,49
 67 393 67 393 42 335 c 128,-1,50
 17 277 17 277 17 212 c 0,51,52
 17 164 17 164 31.5 123 c 128,-1,53
 46 82 46 82 73.5 52.5 c 128,-1,54
 101 23 101 23 140.5 6.5 c 128,-1,55
 180 -10 180 -10 230 -10 c 0,0,1
EndSplineSet
EndChar

StartChar: f
Encoding: 102 102 73
Width: 358
GlyphClass: 1
Flags: W
LayerCount: 2
Fore
SplineSet
-20 -212 m 1,0,-1
 109 -212 l 1,1,-1
 239 401 l 1,2,-1
 360 401 l 1,3,-1
 382 499 l 1,4,-1
 260 499 l 1,5,-1
 267 533 l 2,6,7
 278 581 278 581 300 606 c 128,-1,8
 322 631 322 631 354 631 c 0,9,10
 371 631 371 631 389 626 c 128,-1,11
 407 621 407 621 419 612 c 1,12,-1
 466 709 l 1,13,14
 439 724 439 724 409.5 732 c 128,-1,15
 380 740 380 740 349 740 c 0,16,17
 312 740 312 740 277.5 725.5 c 128,-1,18
 243 711 243 711 215 683.5 c 128,-1,19
 187 656 187 656 167 616.5 c 128,-1,20
 147 577 147 577 137 529 c 2,21,-1
 131 499 l 1,22,-1
 67 499 l 1,23,-1
 45 401 l 1,24,-1
 110 401 l 1,25,-1
 -20 -212 l 1,0,-1
EndSplineSet
EndChar

StartChar: g
Encoding: 103 103 74
Width: 610
GlyphClass: 1
Flags: W
LayerCount: 2
Fore
SplineSet
162 -223 m 0,0,1
 222 -223 222 -223 276.5 -206 c 128,-1,2
 331 -189 331 -189 374.5 -158 c 128,-1,3
 418 -127 418 -127 448 -81.5 c 128,-1,4
 478 -36 478 -36 490 23 c 2,5,-1
 597 524 l 1,6,-1
 484 524 l 1,7,-1
 464 430 l 1,8,9
 455 453 455 453 441 472 c 128,-1,10
 427 491 427 491 408.5 504.5 c 128,-1,11
 390 518 390 518 366 525.5 c 128,-1,12
 342 533 342 533 313 533 c 0,13,14
 254 533 254 533 200 506.5 c 128,-1,15
 146 480 146 480 105 435 c 128,-1,16
 64 390 64 390 40 330.5 c 128,-1,17
 16 271 16 271 16 206 c 0,18,19
 16 162 16 162 28 124 c 128,-1,20
 40 86 40 86 62 58 c 128,-1,21
 84 30 84 30 117 13 c 128,-1,22
 150 -4 150 -4 191 -4 c 0,23,24
 216 -4 216 -4 242 2.5 c 128,-1,25
 268 9 268 9 292 21.5 c 128,-1,26
 316 34 316 34 337.5 51.5 c 128,-1,27
 359 69 359 69 376 92 c 1,28,-1
 361 23 l 2,29,30
 353 -16 353 -16 335.5 -44 c 128,-1,31
 318 -72 318 -72 294 -90 c 128,-1,32
 270 -108 270 -108 241 -117 c 128,-1,33
 212 -126 212 -126 182 -126 c 0,34,35
 133 -126 133 -126 94.5 -104.5 c 128,-1,36
 56 -83 56 -83 36 -45 c 1,37,-1
 -49 -114 l 1,38,39
 -34 -139 -34 -139 -14.5 -159.5 c 128,-1,40
 5 -180 5 -180 30 -194 c 128,-1,41
 55 -208 55 -208 88 -215.5 c 128,-1,42
 121 -223 121 -223 162 -223 c 0,0,1
257 100 m 0,43,44
 233 100 233 100 213 109.5 c 128,-1,45
 193 119 193 119 179.5 136 c 128,-1,46
 166 153 166 153 158 176 c 128,-1,47
 150 199 150 199 150 226 c 0,48,49
 150 262 150 262 163.5 297 c 128,-1,50
 177 332 177 332 200 360 c 128,-1,51
 223 388 223 388 253.5 405.5 c 128,-1,52
 284 423 284 423 318 423 c 0,53,54
 338 423 338 423 356 415.5 c 128,-1,55
 374 408 374 408 387.5 394 c 128,-1,56
 401 380 401 380 411 361 c 128,-1,57
 421 342 421 342 425 319 c 1,58,-1
 397 191 l 1,59,60
 387 173 387 173 371.5 156 c 128,-1,61
 356 139 356 139 337 126.5 c 128,-1,62
 318 114 318 114 298 107 c 128,-1,63
 278 100 278 100 257 100 c 0,43,44
EndSplineSet
EndChar

StartChar: h
Encoding: 104 104 75
Width: 581
GlyphClass: 1
Flags: W
LayerCount: 2
Fore
SplineSet
-3 0 m 1,0,-1
 125 0 l 1,1,-1
 191 307 l 1,2,3
 203 332 203 332 221.5 352.5 c 128,-1,4
 240 373 240 373 260 388 c 128,-1,5
 280 403 280 403 300.5 411 c 128,-1,6
 321 419 321 419 338 419 c 0,7,8
 368 419 368 419 384.5 401 c 128,-1,9
 401 383 401 383 401 345 c 0,10,11
 401 334 401 334 399.5 321.5 c 128,-1,12
 398 309 398 309 395 294 c 2,13,-1
 332 0 l 1,14,-1
 461 0 l 1,15,-1
 530 326 l 2,16,17
 534 347 534 347 536.5 368 c 128,-1,18
 539 389 539 389 539 409 c 0,19,20
 539 435 539 435 533 457.5 c 128,-1,21
 527 480 527 480 513 497 c 128,-1,22
 499 514 499 514 475.5 523.5 c 128,-1,23
 452 533 452 533 417 533 c 0,24,25
 389 533 389 533 361.5 525.5 c 128,-1,26
 334 518 334 518 308 504.5 c 128,-1,27
 282 491 282 491 258.5 470.5 c 128,-1,28
 235 450 235 450 216 425 c 1,29,-1
 280 730 l 1,30,-1
 152 730 l 1,31,-1
 -3 0 l 1,0,-1
EndSplineSet
EndChar

StartChar: k
Encoding: 107 107 78
Width: 558
GlyphClass: 1
Flags: W
LayerCount: 2
Fore
SplineSet
343 0 m 1,0,-1
 480 0 l 1,1,-1
 380 207 l 1,2,3
 454 243 454 243 493.5 298 c 128,-1,4
 533 353 533 353 533 418 c 0,5,6
 533 471 533 471 506 501 c 128,-1,7
 479 531 479 531 424 531 c 0,8,9
 389 531 389 531 356 518.5 c 128,-1,10
 323 506 323 506 294 484.5 c 128,-1,11
 265 463 265 463 239.5 432 c 128,-1,12
 214 401 214 401 192 365 c 1,13,-1
 168 215 l 1,14,15
 181 257 181 257 203.5 295 c 128,-1,16
 226 333 226 333 254 361.5 c 128,-1,17
 282 390 282 390 312.5 406.5 c 128,-1,18
 343 423 343 423 371 423 c 0,19,20
 391 423 391 423 404 412.5 c 128,-1,21
 417 402 417 402 417 378 c 0,22,23
 417 334 417 334 370.5 295.5 c 128,-1,24
 324 257 324 257 239 239 c 1,25,-1
 343 0 l 1,0,-1
-3 0 m 1,26,-1
 125 0 l 1,27,-1
 280 730 l 1,28,-1
 152 730 l 1,29,-1
 -3 0 l 1,26,-1
EndSplineSet
EndChar

StartChar: l
Encoding: 108 108 79
Width: 306
GlyphClass: 1
Flags: W
LayerCount: 2
Fore
SplineSet
120 -8 m 0,0,1
 149 -8 149 -8 184.5 -1 c 128,-1,2
 220 6 220 6 248 18 c 1,3,-1
 252 117 l 1,4,5
 239 111 239 111 224 107 c 128,-1,6
 209 103 209 103 198 103 c 0,7,8
 178 103 178 103 167.5 114 c 128,-1,9
 157 125 157 125 157 144 c 0,10,11
 157 149 157 149 157.5 154 c 128,-1,12
 158 159 158 159 159 165 c 2,13,-1
 279 730 l 1,14,-1
 151 730 l 1,15,-1
 21 119 l 2,16,17
 19 109 19 109 18 100 c 128,-1,18
 17 91 17 91 17 81 c 0,19,20
 17 38 17 38 43.5 15 c 128,-1,21
 70 -8 70 -8 120 -8 c 0,0,1
EndSplineSet
Substitution2: "'ss05' Style Set 5 lookup 36 subtable" l.ss05
Substitution2: "'aalt' Access All Alternates lookup 0 subtable" l.ss05
EndChar

StartChar: m
Encoding: 109 109 80
Width: 891
GlyphClass: 1
Flags: W
LayerCount: 2
Fore
SplineSet
-3 0 m 1,0,-1
 125 0 l 1,1,-1
 191 307 l 1,2,3
 203 332 203 332 219.5 352.5 c 128,-1,4
 236 373 236 373 255 387.5 c 128,-1,5
 274 402 274 402 294 410.5 c 128,-1,6
 314 419 314 419 333 419 c 0,7,8
 359 419 359 419 374 402.5 c 128,-1,9
 389 386 389 386 389 350 c 0,10,11
 389 338 389 338 387.5 324 c 128,-1,12
 386 310 386 310 382 294 c 2,13,-1
 320 0 l 1,14,-1
 448 0 l 1,15,-1
 513 306 l 1,16,17
 525 331 525 331 542 351.5 c 128,-1,18
 559 372 559 372 577.5 387 c 128,-1,19
 596 402 596 402 616 410.5 c 128,-1,20
 636 419 636 419 655 419 c 0,21,22
 681 419 681 419 696 402 c 128,-1,23
 711 385 711 385 711 349 c 0,24,25
 711 337 711 337 709.5 323 c 128,-1,26
 708 309 708 309 705 294 c 2,27,-1
 642 0 l 1,28,-1
 771 0 l 1,29,-1
 841 326 l 2,30,31
 846 352 846 352 848.5 373 c 128,-1,32
 851 394 851 394 851 410 c 0,33,34
 851 437 851 437 845.5 459 c 128,-1,35
 840 481 840 481 826 497.5 c 128,-1,36
 812 514 812 514 790 523.5 c 128,-1,37
 768 533 768 533 734 533 c 0,38,39
 705 533 705 533 677 526 c 128,-1,40
 649 519 649 519 623 504.5 c 128,-1,41
 597 490 597 490 573 468.5 c 128,-1,42
 549 447 549 447 528 420 c 1,43,44
 527 446 527 446 519.5 467 c 128,-1,45
 512 488 512 488 497.5 502.5 c 128,-1,46
 483 517 483 517 461 525 c 128,-1,47
 439 533 439 533 408 533 c 0,48,49
 350 533 350 533 295.5 504.5 c 128,-1,50
 241 476 241 476 203 425 c 1,51,-1
 224 524 l 1,52,-1
 108 524 l 1,53,-1
 -3 0 l 1,0,-1
EndSplineSet
EndChar

StartChar: n
Encoding: 110 110 81
Width: 581
GlyphClass: 1
Flags: W
LayerCount: 2
Fore
SplineSet
-3 0 m 1,0,-1
 125 0 l 1,1,-1
 191 307 l 1,2,3
 203 332 203 332 221.5 352.5 c 128,-1,4
 240 373 240 373 260.5 387.5 c 128,-1,5
 281 402 281 402 302.5 410.5 c 128,-1,6
 324 419 324 419 343 419 c 0,7,8
 370 419 370 419 385.5 402 c 128,-1,9
 401 385 401 385 401 349 c 0,10,11
 401 337 401 337 399.5 323.5 c 128,-1,12
 398 310 398 310 395 294 c 2,13,-1
 332 0 l 1,14,-1
 461 0 l 1,15,-1
 530 326 l 2,16,17
 534 348 534 348 537 369.5 c 128,-1,18
 540 391 540 391 540 412 c 0,19,20
 540 438 540 438 534.5 459.5 c 128,-1,21
 529 481 529 481 515.5 497.5 c 128,-1,22
 502 514 502 514 479.5 523.5 c 128,-1,23
 457 533 457 533 424 533 c 256,24,25
 391 533 391 533 360 525.5 c 128,-1,26
 329 518 329 518 300.5 504 c 128,-1,27
 272 490 272 490 247 470 c 128,-1,28
 222 450 222 450 203 425 c 1,29,-1
 224 524 l 1,30,-1
 108 524 l 1,31,-1
 -3 0 l 1,0,-1
EndSplineSet
EndChar

StartChar: o
Encoding: 111 111 82
Width: 585
GlyphClass: 1
Flags: W
LayerCount: 2
Fore
SplineSet
233 -10 m 0,0,1
 303 -10 303 -10 361.5 16 c 128,-1,2
 420 42 420 42 462.5 86 c 128,-1,3
 505 130 505 130 529 188.5 c 128,-1,4
 553 247 553 247 553 311 c 0,5,6
 553 357 553 357 540 397.5 c 128,-1,7
 527 438 527 438 500 468 c 128,-1,8
 473 498 473 498 432 515.5 c 128,-1,9
 391 533 391 533 334 533 c 0,10,11
 265 533 265 533 207 507 c 128,-1,12
 149 481 149 481 106.5 437 c 128,-1,13
 64 393 64 393 40 334.5 c 128,-1,14
 16 276 16 276 16 212 c 0,15,16
 16 166 16 166 28.5 125.5 c 128,-1,17
 41 85 41 85 68 55 c 128,-1,18
 95 25 95 25 136 7.5 c 128,-1,19
 177 -10 177 -10 233 -10 c 0,0,1
253 100 m 0,20,21
 228 100 228 100 208.5 109 c 128,-1,22
 189 118 189 118 176 135 c 128,-1,23
 163 152 163 152 156.5 175 c 128,-1,24
 150 198 150 198 150 227 c 0,25,26
 150 269 150 269 163.5 305 c 128,-1,27
 177 341 177 341 200.5 367.5 c 128,-1,28
 224 394 224 394 253.5 408.5 c 128,-1,29
 283 423 283 423 315 423 c 0,30,31
 340 423 340 423 359.5 414 c 128,-1,32
 379 405 379 405 392 388 c 128,-1,33
 405 371 405 371 411.5 347 c 128,-1,34
 418 323 418 323 418 295 c 0,35,36
 418 253 418 253 404.5 217 c 128,-1,37
 391 181 391 181 367.5 155 c 128,-1,38
 344 129 344 129 314.5 114.5 c 128,-1,39
 285 100 285 100 253 100 c 0,20,21
EndSplineSet
Substitution2: "Single Substitution lookup 46 subtable" ordmasculine
Substitution2: "'aalt' Access All Alternates lookup 0 subtable" ordmasculine
EndChar

StartChar: p
Encoding: 112 112 83
Width: 610
GlyphClass: 1
Flags: W
LayerCount: 2
Fore
SplineSet
-49 -213 m 1,0,-1
 80 -213 l 1,1,-1
 145 93 l 1,2,3
 153 70 153 70 166 51 c 128,-1,4
 179 32 179 32 197.5 18.5 c 128,-1,5
 216 5 216 5 240.5 -2.5 c 128,-1,6
 265 -10 265 -10 293 -10 c 0,7,8
 350 -10 350 -10 401.5 17 c 128,-1,9
 453 44 453 44 492 89 c 128,-1,10
 531 134 531 134 554 193.5 c 128,-1,11
 577 253 577 253 577 317 c 0,12,13
 577 362 577 362 564.5 401.5 c 128,-1,14
 552 441 552 441 528.5 470 c 128,-1,15
 505 499 505 499 471 516 c 128,-1,16
 437 533 437 533 394 533 c 0,17,18
 366 533 366 533 339.5 526 c 128,-1,19
 313 519 313 519 288.5 506 c 128,-1,20
 264 493 264 493 242 474.5 c 128,-1,21
 220 456 220 456 201 433 c 1,22,-1
 220 524 l 1,23,-1
 108 524 l 1,24,-1
 -49 -213 l 1,0,-1
274 100 m 0,25,26
 254 100 254 100 236.5 108 c 128,-1,27
 219 116 219 116 205 130 c 128,-1,28
 191 144 191 144 182 163.5 c 128,-1,29
 173 183 173 183 169 206 c 1,30,-1
 196 332 l 1,31,32
 207 352 207 352 223 368.5 c 128,-1,33
 239 385 239 385 258 397 c 128,-1,34
 277 409 277 409 297 416 c 128,-1,35
 317 423 317 423 335 423 c 0,36,37
 360 423 360 423 379.5 413.5 c 128,-1,38
 399 404 399 404 413.5 387 c 128,-1,39
 428 370 428 370 435 346.5 c 128,-1,40
 442 323 442 323 442 297 c 0,41,42
 442 260 442 260 428.5 225 c 128,-1,43
 415 190 415 190 391.5 162 c 128,-1,44
 368 134 368 134 338 117 c 128,-1,45
 308 100 308 100 274 100 c 0,25,26
EndSplineSet
EndChar

StartChar: q
Encoding: 113 113 84
Width: 610
GlyphClass: 1
Flags: W
LayerCount: 2
Fore
SplineSet
311 -213 m 1,0,-1
 440 -213 l 1,1,-1
 597 524 l 1,2,-1
 484 524 l 1,3,-1
 464 432 l 1,4,5
 455 455 455 455 441.5 473.5 c 128,-1,6
 428 492 428 492 409 505.5 c 128,-1,7
 390 519 390 519 366.5 526 c 128,-1,8
 343 533 343 533 314 533 c 0,9,10
 257 533 257 533 203 506.5 c 128,-1,11
 149 480 149 480 107.5 435 c 128,-1,12
 66 390 66 390 41 330 c 128,-1,13
 16 270 16 270 16 202 c 0,14,15
 16 158 16 158 27.5 119 c 128,-1,16
 39 80 39 80 60.5 51.5 c 128,-1,17
 82 23 82 23 113.5 6.5 c 128,-1,18
 145 -10 145 -10 184 -10 c 0,19,20
 240 -10 240 -10 289 16 c 128,-1,21
 338 42 338 42 376 93 c 1,22,-1
 311 -213 l 1,0,-1
255 100 m 0,23,24
 230 100 230 100 211 109.5 c 128,-1,25
 192 119 192 119 178.5 135.5 c 128,-1,26
 165 152 165 152 157.5 175 c 128,-1,27
 150 198 150 198 150 224 c 0,28,29
 150 262 150 262 164.5 297.5 c 128,-1,30
 179 333 179 333 203 361 c 128,-1,31
 227 389 227 389 258 406 c 128,-1,32
 289 423 289 423 322 423 c 0,33,34
 342 423 342 423 360 414.5 c 128,-1,35
 378 406 378 406 392 392 c 128,-1,36
 406 378 406 378 414.5 358 c 128,-1,37
 423 338 423 338 424 316 c 1,38,-1
 397 188 l 1,39,40
 382 169 382 169 365.5 152.5 c 128,-1,41
 349 136 349 136 331 124.5 c 128,-1,42
 313 113 313 113 294 106.5 c 128,-1,43
 275 100 275 100 255 100 c 0,23,24
EndSplineSet
Substitution2: "'ss06' Style Set 6 lookup 37 subtable" q.ss06
Substitution2: "'aalt' Access All Alternates lookup 0 subtable" q.ss06
EndChar

StartChar: r
Encoding: 114 114 85
Width: 376
GlyphClass: 1
Flags: W
LayerCount: 2
Fore
SplineSet
-3 0 m 1,0,-1
 125 0 l 1,1,-1
 193 318 l 1,2,3
 223 363 223 363 273.5 387 c 128,-1,4
 324 411 324 411 382 413 c 1,5,-1
 406 527 l 1,6,7
 402 528 402 528 397 528 c 128,-1,8
 392 528 392 528 382 528 c 0,9,10
 335 528 335 528 287.5 496.5 c 128,-1,11
 240 465 240 465 202 411 c 1,12,-1
 227 524 l 1,13,-1
 108 524 l 1,14,-1
 -3 0 l 1,0,-1
EndSplineSet
EndChar

StartChar: s
Encoding: 115 115 86
Width: 479
GlyphClass: 1
Flags: W
LayerCount: 2
Fore
SplineSet
185 -10 m 0,0,1
 239 -10 239 -10 283.5 4 c 128,-1,2
 328 18 328 18 359 42.5 c 128,-1,3
 390 67 390 67 407 101.5 c 128,-1,4
 424 136 424 136 424 176 c 0,5,6
 424 204 424 204 414 224 c 128,-1,7
 404 244 404 244 383.5 260 c 128,-1,8
 363 276 363 276 332.5 288.5 c 128,-1,9
 302 301 302 301 260 313 c 0,10,11
 237 319 237 319 221 325 c 128,-1,12
 205 331 205 331 194.5 337 c 128,-1,13
 184 343 184 343 180 351.5 c 128,-1,14
 176 360 176 360 176 372 c 0,15,16
 176 389 176 389 183 401.5 c 128,-1,17
 190 414 190 414 203 423 c 128,-1,18
 216 432 216 432 233.5 436.5 c 128,-1,19
 251 441 251 441 272 441 c 0,20,21
 307 441 307 441 336 427.5 c 128,-1,22
 365 414 365 414 398 384 c 1,23,-1
 466 462 l 1,24,25
 432 499 432 499 387.5 516 c 128,-1,26
 343 533 343 533 285 533 c 0,27,28
 236 533 236 533 193 519 c 128,-1,29
 150 505 150 505 118.5 479 c 128,-1,30
 87 453 87 453 68.5 417.5 c 128,-1,31
 50 382 50 382 50 340 c 0,32,33
 50 315 50 315 58.5 297 c 128,-1,34
 67 279 67 279 86 265.5 c 128,-1,35
 105 252 105 252 133.5 240.5 c 128,-1,36
 162 229 162 229 201 217 c 0,37,38
 225 210 225 210 243 204 c 128,-1,39
 261 198 261 198 272.5 190.5 c 128,-1,40
 284 183 284 183 289.5 174.5 c 128,-1,41
 295 166 295 166 295 152 c 0,42,43
 295 137 295 137 288 124.5 c 128,-1,44
 281 112 281 112 269 102.5 c 128,-1,45
 257 93 257 93 239 88.5 c 128,-1,46
 221 84 221 84 199 84 c 0,47,48
 158 84 158 84 118 101 c 128,-1,49
 78 118 78 118 40 152 c 1,50,-1
 -25 71 l 1,51,52
 9 31 9 31 65 10.5 c 128,-1,53
 121 -10 121 -10 185 -10 c 0,0,1
EndSplineSet
EndChar

StartChar: t
Encoding: 116 116 87
Width: 369
GlyphClass: 1
Flags: W
LayerCount: 2
Fore
SplineSet
47 82 m 0,0,1
 47 34 47 34 77.5 12.5 c 128,-1,2
 108 -9 108 -9 154 -9 c 0,3,4
 174 -9 174 -9 194.5 -6 c 128,-1,5
 215 -3 215 -3 234.5 2 c 128,-1,6
 254 7 254 7 271.5 13.5 c 128,-1,7
 289 20 289 20 303 27 c 1,8,-1
 299 129 l 1,9,10
 293 126 293 126 284 122.5 c 128,-1,11
 275 119 275 119 265.5 116 c 128,-1,12
 256 113 256 113 245.5 111 c 128,-1,13
 235 109 235 109 226 109 c 0,14,15
 209 109 209 109 198 117.5 c 128,-1,16
 187 126 187 126 187 145 c 0,17,18
 187 149 187 149 187.5 153 c 128,-1,19
 188 157 188 157 189 161 c 2,20,-1
 245 425 l 1,21,-1
 350 425 l 1,22,-1
 371 524 l 1,23,-1
 266 524 l 1,24,-1
 302 694 l 1,25,-1
 173 694 l 1,26,-1
 137 524 l 1,27,-1
 72 524 l 1,28,-1
 51 425 l 1,29,-1
 116 425 l 1,30,-1
 51 118 l 2,31,32
 48 108 48 108 47.5 99.5 c 128,-1,33
 47 91 47 91 47 82 c 0,0,1
EndSplineSet
Substitution2: "'ss07' Style Set 7 lookup 38 subtable" t.ss07
Substitution2: "'aalt' Access All Alternates lookup 0 subtable" t.ss07
EndChar

StartChar: u
Encoding: 117 117 88
Width: 583
GlyphClass: 1
Flags: W
LayerCount: 2
Fore
SplineSet
154 -10 m 0,0,1
 181 -10 181 -10 208.5 -3.5 c 128,-1,2
 236 3 236 3 262 15.5 c 128,-1,3
 288 28 288 28 311.5 47.5 c 128,-1,4
 335 67 335 67 354 92 c 1,5,-1
 334 0 l 1,6,-1
 458 0 l 1,7,-1
 569 524 l 1,8,-1
 441 524 l 1,9,-1
 372 199 l 1,10,11
 356 176 356 176 338.5 157 c 128,-1,12
 321 138 321 138 302 125.5 c 128,-1,13
 283 113 283 113 264 106.5 c 128,-1,14
 245 100 245 100 227 100 c 0,15,16
 191 100 191 100 176 119.5 c 128,-1,17
 161 139 161 139 161 172 c 0,18,19
 161 184 161 184 163 197 c 128,-1,20
 165 210 165 210 168 225 c 2,21,-1
 231 524 l 1,22,-1
 103 524 l 1,23,-1
 33 197 l 2,24,25
 29 176 29 176 26 156 c 128,-1,26
 23 136 23 136 23 118 c 0,27,28
 23 89 23 89 30.5 65 c 128,-1,29
 38 41 38 41 54 24 c 128,-1,30
 70 7 70 7 94.5 -1.5 c 128,-1,31
 119 -10 119 -10 154 -10 c 0,0,1
EndSplineSet
Substitution2: "'ss08' Style Set 8 lookup 39 subtable" u.ss08
Substitution2: "'aalt' Access All Alternates lookup 0 subtable" u.ss08
EndChar

StartChar: v
Encoding: 118 118 89
Width: 524
GlyphClass: 1
Flags: W
LayerCount: 2
Fore
SplineSet
122 0 m 1,0,-1
 271 0 l 1,1,-1
 554 524 l 1,2,-1
 422 524 l 1,3,-1
 220 106 l 1,4,-1
 184 524 l 1,5,-1
 51 524 l 1,6,-1
 122 0 l 1,0,-1
EndSplineSet
EndChar

StartChar: w
Encoding: 119 119 90
Width: 830
GlyphClass: 1
Flags: W
LayerCount: 2
Fore
SplineSet
60 521 m 1,0,-1
 119 0 l 1,1,-1
 252 0 l 1,2,-1
 424 342 l 1,3,-1
 445 0 l 1,4,-1
 583 0 l 1,5,-1
 862 521 l 1,6,-1
 738 521 l 1,7,-1
 538 133 l 1,8,-1
 520 521 l 1,9,-1
 404 521 l 1,10,-1
 221 134 l 1,11,-1
 185 521 l 1,12,-1
 60 521 l 1,0,-1
EndSplineSet
Substitution2: "'ss09' Style Set 9 lookup 40 subtable" w.ss09
Substitution2: "'aalt' Access All Alternates lookup 0 subtable" w.ss09
EndChar

StartChar: x
Encoding: 120 120 91
Width: 509
GlyphClass: 1
Flags: W
LayerCount: 2
Fore
SplineSet
-59 0 m 1,0,-1
 74 0 l 1,1,-1
 217 166 l 1,2,-1
 229 183 l 1,3,-1
 234 166 l 1,4,-1
 307 0 l 1,5,-1
 440 0 l 1,6,-1
 316 261 l 1,7,-1
 549 524 l 1,8,-1
 417 524 l 1,9,-1
 274 357 l 1,10,-1
 262 339 l 1,11,-1
 258 357 l 1,12,-1
 187 524 l 1,13,-1
 55 524 l 1,14,-1
 176 261 l 1,15,-1
 -59 0 l 1,0,-1
EndSplineSet
EndChar

StartChar: y
Encoding: 121 121 92
Width: 519
GlyphClass: 1
Flags: W
LayerCount: 2
Fore
SplineSet
135 0 m 1,0,1
 122 -22 122 -22 107 -47.5 c 128,-1,2
 92 -73 92 -73 76 -101 c 128,-1,3
 60 -129 60 -129 43 -157 c 128,-1,4
 26 -185 26 -185 9 -213 c 1,5,-1
 158 -213 l 1,6,-1
 556 524 l 1,7,-1
 435 524 l 1,8,-1
 229 112 l 1,9,-1
 187 524 l 1,10,-1
 50 524 l 1,11,-1
 135 0 l 1,0,1
EndSplineSet
Substitution2: "'ss10' Style Set 10 lookup 41 subtable" y.ss10
Substitution2: "'aalt' Access All Alternates lookup 0 subtable" y.ss10
EndChar

StartChar: z
Encoding: 122 122 93
Width: 471
GlyphClass: 1
Flags: W
LayerCount: 2
Fore
SplineSet
-38 0 m 1,0,-1
 377 0 l 1,1,-1
 397 90 l 1,2,-1
 121 90 l 1,3,-1
 468 445 l 1,4,-1
 485 524 l 1,5,-1
 85 524 l 1,6,-1
 65 433 l 1,7,-1
 327 433 l 1,8,-1
 -21 79 l 1,9,-1
 -38 0 l 1,0,-1
EndSplineSet
EndChar

StartChar: braceleft
Encoding: 123 123 94
Width: 303
GlyphClass: 1
Flags: W
LayerCount: 2
Fore
SplineSet
329 637 m 1,0,-1
 351 740 l 1,1,-1
 205 740 l 2,2,3
 199 740 199 740 189.5 734.5 c 128,-1,4
 180 729 180 729 176 710 c 2,5,-1
 126 470 l 2,6,7
 124 461 124 461 117.5 449.5 c 128,-1,8
 111 438 111 438 102.5 428.5 c 128,-1,9
 94 419 94 419 84 412.5 c 128,-1,10
 74 406 74 406 64 406 c 1,11,-1
 45 316 l 1,12,13
 60 313 60 313 70 299.5 c 128,-1,14
 80 286 80 286 80 265 c 0,15,16
 80 261 80 261 79.5 257.5 c 128,-1,17
 79 254 79 254 78 250 c 2,18,-1
 25 -1 l 2,19,20
 24 -4 24 -4 24 -7 c 128,-1,21
 24 -10 24 -10 24 -12 c 0,22,23
 24 -23 24 -23 29.5 -27 c 128,-1,24
 35 -31 35 -31 41 -31 c 2,25,-1
 187 -31 l 1,26,-1
 209 72 l 1,27,-1
 157 72 l 1,28,-1
 204 291 l 2,29,30
 205 296 205 296 205 299.5 c 128,-1,31
 205 303 205 303 205 307 c 0,32,33
 205 323 205 323 199.5 336.5 c 128,-1,34
 194 350 194 350 185 360 c 1,35,36
 203 374 203 374 215.5 391.5 c 128,-1,37
 228 409 228 409 233 429 c 2,38,-1
 277 637 l 1,39,-1
 329 637 l 1,0,-1
EndSplineSet
EndChar

StartChar: bar
Encoding: 124 124 95
Width: 324
GlyphClass: 1
Flags: W
LayerCount: 2
Fore
SplineSet
222 -130 m 1,0,-1
 222 775 l 1,1,-1
 112 775 l 1,2,-1
 112 -130 l 1,3,-1
 222 -130 l 1,0,-1
EndSplineSet
EndChar

StartChar: braceright
Encoding: 125 125 96
Width: 304
GlyphClass: 1
Flags: W
LayerCount: 2
Fore
SplineSet
171 637 m 1,0,-1
 127 429 l 2,1,2
 125 424 125 424 125 420.5 c 128,-1,3
 125 417 125 417 125 412 c 0,4,5
 125 397 125 397 130.5 384 c 128,-1,6
 136 371 136 371 144 360 c 1,7,8
 127 346 127 346 114.5 328 c 128,-1,9
 102 310 102 310 97 291 c 2,10,-1
 51 72 l 1,11,-1
 -2 72 l 1,12,-1
 -23 -31 l 1,13,-1
 123 -31 l 2,14,15
 129 -31 129 -31 138.5 -25 c 128,-1,16
 148 -19 148 -19 152 -1 c 2,17,-1
 204 250 l 2,18,19
 210 276 210 276 228 294 c 128,-1,20
 246 312 246 312 266 316 c 1,21,-1
 286 406 l 1,22,23
 268 406 268 406 259 422.5 c 128,-1,24
 250 439 250 439 250 457 c 0,25,26
 250 461 250 461 250 464 c 128,-1,27
 250 467 250 467 251 470 c 2,28,-1
 303 710 l 2,29,30
 304 712 304 712 304 714.5 c 128,-1,31
 304 717 304 717 304 719 c 0,32,33
 304 732 304 732 297.5 736 c 128,-1,34
 291 740 291 740 287 740 c 2,35,-1
 141 740 l 1,36,-1
 119 637 l 1,37,-1
 171 637 l 1,0,-1
EndSplineSet
EndChar

StartChar: asciitilde
Encoding: 126 126 97
Width: 543
GlyphClass: 1
Flags: W
LayerCount: 2
Fore
SplineSet
42 229 m 1,0,-1
 114 229 l 1,1,2
 114 230 114 230 117 238 c 128,-1,3
 120 246 120 246 128.5 256 c 128,-1,4
 137 266 137 266 150 273.5 c 128,-1,5
 163 281 163 281 183 281 c 0,6,7
 204 281 204 281 222 273 c 128,-1,8
 240 265 240 265 259 255 c 128,-1,9
 278 245 278 245 299 237 c 128,-1,10
 320 229 320 229 346 229 c 0,11,12
 386 229 386 229 414.5 246.5 c 128,-1,13
 443 264 443 264 461.5 287 c 128,-1,14
 480 310 480 310 489 330.5 c 128,-1,15
 498 351 498 351 498 356 c 1,16,-1
 428 356 l 1,17,18
 428 354 428 354 424 345.5 c 128,-1,19
 420 337 420 337 411 328 c 128,-1,20
 402 319 402 319 388.5 311.5 c 128,-1,21
 375 304 375 304 354 304 c 0,22,23
 332 304 332 304 314 313 c 128,-1,24
 296 322 296 322 277 332 c 128,-1,25
 258 342 258 342 237.5 350.5 c 128,-1,26
 217 359 217 359 191 359 c 0,27,28
 153 359 153 359 125.5 342 c 128,-1,29
 98 325 98 325 79.5 302.5 c 128,-1,30
 61 280 61 280 52 258.5 c 128,-1,31
 43 237 43 237 42 229 c 1,0,-1
EndSplineSet
EndChar

StartChar: exclamdown
Encoding: 161 161 99
Width: 287
GlyphClass: 1
Flags: W
LayerCount: 2
Fore
SplineSet
278 447 m 256,0,1
 282 464 282 464 278.5 478.5 c 128,-1,2
 275 493 275 493 266 504.5 c 128,-1,3
 257 516 257 516 243.5 522.5 c 128,-1,4
 230 529 230 529 213 529 c 256,5,6
 196 529 196 529 179.5 522.5 c 128,-1,7
 163 516 163 516 149.5 504.5 c 128,-1,8
 136 493 136 493 126.5 478.5 c 128,-1,9
 117 464 117 464 113 447 c 256,10,11
 109 430 109 430 112.5 415 c 128,-1,12
 116 400 116 400 125 389 c 128,-1,13
 134 378 134 378 147.5 371.5 c 128,-1,14
 161 365 161 365 178 365 c 256,15,16
 195 365 195 365 211 371.5 c 128,-1,17
 227 378 227 378 241 389 c 128,-1,18
 255 400 255 400 264.5 415 c 128,-1,19
 274 430 274 430 278 447 c 256,0,1
109 255 m 1,20,-1
 36 -1 l 1,21,-1
 -5 -198 l 1,22,-1
 123 -198 l 1,23,-1
 165 -1 l 1,24,-1
 202 255 l 1,25,-1
 109 255 l 1,20,-1
EndSplineSet
EndChar

StartChar: cent
Encoding: 162 162 100
Width: 568
GlyphClass: 1
Flags: W
LayerCount: 2
Fore
SplineSet
235 -120 m 1,0,-1
 259 -10 l 1,1,2
 283 -10 283 -10 315 -1.5 c 128,-1,3
 347 7 347 7 380 24 c 128,-1,4
 413 41 413 41 443.5 66.5 c 128,-1,5
 474 92 474 92 495 126 c 1,6,-1
 378 164 l 1,7,8
 371 152 371 152 360 141.5 c 128,-1,9
 349 131 349 131 336.5 123.5 c 128,-1,10
 324 116 324 116 310 110.5 c 128,-1,11
 296 105 296 105 283 103 c 1,12,-1
 350 419 l 1,13,14
 374 417 374 417 392.5 402 c 128,-1,15
 411 387 411 387 418 361 c 1,16,-1
 551 400 l 1,17,18
 533 462 533 462 486 496 c 128,-1,19
 439 530 439 530 374 532 c 1,20,-1
 398 645 l 1,21,-1
 340 645 l 1,22,-1
 316 532 l 1,23,24
 249 522 249 522 195.5 491.5 c 128,-1,25
 142 461 142 461 104.5 417 c 128,-1,26
 67 373 67 373 47 320 c 128,-1,27
 27 267 27 267 27 212 c 0,28,29
 27 171 27 171 38.5 133 c 128,-1,30
 50 95 50 95 72.5 64.5 c 128,-1,31
 95 34 95 34 127.5 14 c 128,-1,32
 160 -6 160 -6 201 -9 c 1,33,-1
 177 -120 l 1,34,-1
 235 -120 l 1,0,-1
160 223 m 0,35,36
 160 253 160 253 170 284.5 c 128,-1,37
 180 316 180 316 198 343 c 128,-1,38
 216 370 216 370 239.5 389 c 128,-1,39
 263 408 263 408 291 414 c 1,40,-1
 226 109 l 1,41,42
 210 114 210 114 198 125 c 128,-1,43
 186 136 186 136 177.5 151 c 128,-1,44
 169 166 169 166 164.5 184.5 c 128,-1,45
 160 203 160 203 160 223 c 0,35,36
EndSplineSet
EndChar

StartChar: sterling
Encoding: 163 163 101
Width: 521
GlyphClass: 1
Flags: W
LayerCount: 2
Fore
SplineSet
53 283 m 1,0,-1
 412 283 l 1,1,-1
 433 380 l 1,2,-1
 73 380 l 1,3,-1
 53 283 l 1,0,-1
13 -8 m 1,4,5
 45 1 45 1 79.5 7 c 128,-1,6
 114 13 114 13 139 13 c 0,7,8
 162 13 162 13 183.5 8.5 c 128,-1,9
 205 4 205 4 225.5 -1 c 128,-1,10
 246 -6 246 -6 267 -10.5 c 128,-1,11
 288 -15 288 -15 310 -15 c 0,12,13
 337 -15 337 -15 368 -7 c 128,-1,14
 399 1 399 1 425 15 c 1,15,-1
 414 111 l 1,16,17
 391 103 391 103 373.5 99 c 128,-1,18
 356 95 356 95 339 95 c 0,19,20
 323 95 323 95 308 98 c 128,-1,21
 293 101 293 101 278 103.5 c 128,-1,22
 263 106 263 106 247.5 109 c 128,-1,23
 232 112 232 112 214 112 c 0,24,25
 198 112 198 112 180 109 c 128,-1,26
 162 106 162 106 140 100 c 1,27,28
 177 134 177 134 201.5 162.5 c 128,-1,29
 226 191 226 191 239.5 216.5 c 128,-1,30
 253 242 253 242 258.5 267 c 128,-1,31
 264 292 264 292 264 320 c 0,32,33
 264 347 264 347 259 372 c 128,-1,34
 254 397 254 397 249 419.5 c 128,-1,35
 244 442 244 442 239 463 c 128,-1,36
 234 484 234 484 234 504 c 0,37,38
 234 527 234 527 242 546 c 128,-1,39
 250 565 250 565 264 579.5 c 128,-1,40
 278 594 278 594 296.5 602 c 128,-1,41
 315 610 315 610 335 610 c 0,42,43
 370 610 370 610 402 588 c 128,-1,44
 434 566 434 566 450 531 c 1,45,-1
 534 610 l 1,46,47
 509 659 509 659 462.5 687 c 128,-1,48
 416 715 416 715 358 715 c 0,49,50
 313 715 313 715 270 698.5 c 128,-1,51
 227 682 227 682 194 653.5 c 128,-1,52
 161 625 161 625 140.5 587 c 128,-1,53
 120 549 120 549 120 505 c 0,54,55
 120 481 120 481 125 457 c 128,-1,56
 130 433 130 433 135.5 408.5 c 128,-1,57
 141 384 141 384 145.5 358.5 c 128,-1,58
 150 333 150 333 150 308 c 0,59,60
 150 277 150 277 141 249 c 128,-1,61
 132 221 132 221 114 193.5 c 128,-1,62
 96 166 96 166 68.5 139 c 128,-1,63
 41 112 41 112 5 84 c 1,64,-1
 13 -8 l 1,4,5
EndSplineSet
EndChar

StartChar: currency
Encoding: 164 164 102
Width: 575
GlyphClass: 1
Flags: W
LayerCount: 2
Fore
SplineSet
118 566 m 1,0,-1
 65 513 l 1,1,-1
 134 443 l 1,2,3
 119 420 119 420 111.5 393.5 c 128,-1,4
 104 367 104 367 104 337 c 0,5,6
 104 308 104 308 112 281 c 128,-1,7
 120 254 120 254 135 231 c 1,8,-1
 65 161 l 1,9,-1
 113 113 l 1,10,-1
 186 182 l 1,11,12
 209 167 209 167 236 159 c 128,-1,13
 263 151 263 151 295 151 c 256,14,15
 327 151 327 151 354 159 c 128,-1,16
 381 167 381 167 403 181 c 1,17,-1
 475 113 l 1,18,-1
 523 161 l 1,19,-1
 454 230 l 1,20,21
 470 253 470 253 478.5 280.5 c 128,-1,22
 487 308 487 308 487 337 c 0,23,24
 487 367 487 367 478.5 394.5 c 128,-1,25
 470 422 470 422 455 445 c 1,26,-1
 523 513 l 1,27,-1
 470 566 l 1,28,-1
 401 495 l 1,29,30
 378 509 378 509 352 516.5 c 128,-1,31
 326 524 326 524 295 524 c 256,32,33
 264 524 264 524 237.5 516.5 c 128,-1,34
 211 509 211 509 189 494 c 1,35,-1
 118 566 l 1,0,-1
200 337 m 0,36,37
 200 360 200 360 207.5 379.5 c 128,-1,38
 215 399 215 399 227.5 412.5 c 128,-1,39
 240 426 240 426 257.5 434 c 128,-1,40
 275 442 275 442 295 442 c 256,41,42
 315 442 315 442 332.5 434.5 c 128,-1,43
 350 427 350 427 363 413 c 128,-1,44
 376 399 376 399 383 380 c 128,-1,45
 390 361 390 361 390 338 c 256,46,47
 390 315 390 315 383 295.5 c 128,-1,48
 376 276 376 276 363 262 c 128,-1,49
 350 248 350 248 332.5 240.5 c 128,-1,50
 315 233 315 233 295 233 c 256,51,52
 275 233 275 233 257.5 240.5 c 128,-1,53
 240 248 240 248 227.5 262 c 128,-1,54
 215 276 215 276 207.5 295.5 c 128,-1,55
 200 315 200 315 200 337 c 0,36,37
EndSplineSet
EndChar

StartChar: yen
Encoding: 165 165 103
Width: 683
GlyphClass: 1
Flags: W
LayerCount: 2
Fore
SplineSet
734 710 m 1,0,-1
 590 710 l 1,1,-1
 349 365 l 1,2,-1
 257 710 l 1,3,-1
 114 710 l 1,4,-1
 215 399 l 1,5,-1
 143 399 l 1,6,-1
 126 315 l 1,7,-1
 240 315 l 1,8,-1
 259 251 l 1,9,-1
 252 219 l 1,10,-1
 105 219 l 1,11,-1
 87 135 l 1,12,-1
 234 135 l 1,13,-1
 206 0 l 1,14,-1
 337 0 l 1,15,-1
 366 135 l 1,16,-1
 516 135 l 1,17,-1
 533 219 l 1,18,-1
 384 219 l 1,19,-1
 390 249 l 1,20,-1
 439 315 l 1,21,-1
 553 315 l 1,22,-1
 571 399 l 1,23,-1
 501 399 l 1,24,-1
 734 710 l 1,0,-1
EndSplineSet
EndChar

StartChar: brokenbar
Encoding: 166 166 104
Width: 318
GlyphClass: 1
Flags: W
LayerCount: 2
Fore
SplineSet
109 265 m 1,0,-1
 109 -130 l 1,1,-1
 219 -130 l 1,2,-1
 219 265 l 1,3,-1
 109 265 l 1,0,-1
109 775 m 1,4,-1
 109 380 l 1,5,-1
 219 380 l 1,6,-1
 219 775 l 1,7,-1
 109 775 l 1,4,-1
EndSplineSet
EndChar

StartChar: section
Encoding: 167 167 105
Width: 513
GlyphClass: 1
Flags: W
LayerCount: 2
Fore
SplineSet
418 213 m 1,0,1
 424 220 424 220 431 231.5 c 128,-1,2
 438 243 438 243 444.5 258 c 128,-1,3
 451 273 451 273 455.5 290.5 c 128,-1,4
 460 308 460 308 460 327 c 0,5,6
 460 364 460 364 444.5 390 c 128,-1,7
 429 416 429 416 404 432 c 128,-1,8
 379 448 379 448 348.5 455.5 c 128,-1,9
 318 463 318 463 286 463 c 0,10,11
 258 464 258 464 238.5 474.5 c 128,-1,12
 219 485 219 485 219 514 c 0,13,14
 219 534 219 534 227.5 550 c 128,-1,15
 236 566 236 566 249.5 577.5 c 128,-1,16
 263 589 263 589 280 594.5 c 128,-1,17
 297 600 297 600 316 600 c 0,18,19
 332 600 332 600 345.5 597 c 128,-1,20
 359 594 359 594 370 587 c 128,-1,21
 381 580 381 580 388.5 570 c 128,-1,22
 396 560 396 560 400 547 c 1,23,-1
 509 594 l 1,24,25
 501 612 501 612 488 633 c 128,-1,26
 475 654 475 654 454 672.5 c 128,-1,27
 433 691 433 691 403.5 703 c 128,-1,28
 374 715 374 715 332 715 c 0,29,30
 286 715 286 715 241.5 697 c 128,-1,31
 197 679 197 679 163 649 c 128,-1,32
 129 619 129 619 108 579 c 128,-1,33
 87 539 87 539 87 494 c 0,34,35
 87 468 87 468 92.5 447 c 128,-1,36
 98 426 98 426 106 416 c 1,37,38
 102 409 102 409 95 399.5 c 128,-1,39
 88 390 88 390 82 377 c 128,-1,40
 76 364 76 364 72 347 c 128,-1,41
 68 330 68 330 68 308 c 0,42,43
 68 277 68 277 78.5 251.5 c 128,-1,44
 89 226 89 226 110 208 c 128,-1,45
 131 190 131 190 161.5 178.5 c 128,-1,46
 192 167 192 167 232 164 c 0,47,48
 244 164 244 164 255.5 162 c 128,-1,49
 267 160 267 160 276 155 c 128,-1,50
 285 150 285 150 290.5 141.5 c 128,-1,51
 296 133 296 133 296 119 c 0,52,53
 296 99 296 99 287 83 c 128,-1,54
 278 67 278 67 263.5 56.5 c 128,-1,55
 249 46 249 46 231.5 40 c 128,-1,56
 214 34 214 34 196 34 c 0,57,58
 165 34 165 34 139 48 c 128,-1,59
 113 62 113 62 91 94 c 1,60,-1
 -8 15 l 1,61,62
 0 1 0 1 16 -17 c 128,-1,63
 32 -35 32 -35 54.5 -51 c 128,-1,64
 77 -67 77 -67 107.5 -77.5 c 128,-1,65
 138 -88 138 -88 175 -88 c 256,66,67
 212 -88 212 -88 257.5 -75 c 128,-1,68
 303 -62 303 -62 342.5 -33 c 128,-1,69
 382 -4 382 -4 408.5 41 c 128,-1,70
 435 86 435 86 435 150 c 0,71,72
 435 171 435 171 430.5 187.5 c 128,-1,73
 426 204 426 204 418 213 c 1,0,1
192 309 m 0,74,75
 192 328 192 328 200 344 c 128,-1,76
 208 360 208 360 219 369 c 1,77,78
 225 365 225 365 239.5 362 c 128,-1,79
 254 359 254 359 269 359 c 0,80,81
 281 359 281 359 292 356.5 c 128,-1,82
 303 354 303 354 312.5 347.5 c 128,-1,83
 322 341 322 341 328.5 331 c 128,-1,84
 335 321 335 321 335 306 c 0,85,86
 335 289 335 289 326.5 272 c 128,-1,87
 318 255 318 255 305 246 c 1,88,89
 293 251 293 251 274 253 c 128,-1,90
 255 255 255 255 236.5 259 c 128,-1,91
 218 263 218 263 205 274 c 128,-1,92
 192 285 192 285 192 309 c 0,74,75
EndSplineSet
EndChar

StartChar: copyright
Encoding: 169 169 107
Width: 854
GlyphClass: 1
Flags: W
LayerCount: 2
Fore
SplineSet
436 -7 m 256,0,1
 517 -7 517 -7 587 20.5 c 128,-1,2
 657 48 657 48 708 96.5 c 128,-1,3
 759 145 759 145 787.5 211 c 128,-1,4
 816 277 816 277 816 355 c 0,5,6
 816 432 816 432 787.5 498 c 128,-1,7
 759 564 759 564 708 612 c 128,-1,8
 657 660 657 660 587 687.5 c 128,-1,9
 517 715 517 715 436 715 c 256,10,11
 355 715 355 715 286.5 687.5 c 128,-1,12
 218 660 218 660 168 612 c 128,-1,13
 118 564 118 564 90 498 c 128,-1,14
 62 432 62 432 62 355 c 0,15,16
 62 277 62 277 90 211 c 128,-1,17
 118 145 118 145 168 96.5 c 128,-1,18
 218 48 218 48 286.5 20.5 c 128,-1,19
 355 -7 355 -7 436 -7 c 256,0,1
436 41 m 0,20,21
 366 41 366 41 307.5 65 c 128,-1,22
 249 89 249 89 206 131.5 c 128,-1,23
 163 174 163 174 138.5 231 c 128,-1,24
 114 288 114 288 114 354 c 0,25,26
 114 421 114 421 138.5 477.5 c 128,-1,27
 163 534 163 534 206 576.5 c 128,-1,28
 249 619 249 619 308 643 c 128,-1,29
 367 667 367 667 436 667 c 0,30,31
 506 667 506 667 566 643 c 128,-1,32
 626 619 626 619 670 576.5 c 128,-1,33
 714 534 714 534 738.5 477 c 128,-1,34
 763 420 763 420 763 354 c 0,35,36
 763 284 763 284 738 226.5 c 128,-1,37
 713 169 713 169 668.5 128 c 128,-1,38
 624 87 624 87 564.5 64 c 128,-1,39
 505 41 505 41 436 41 c 0,20,21
444 117 m 0,40,41
 486 117 486 117 521.5 128 c 128,-1,42
 557 139 557 139 585 157 c 128,-1,43
 613 175 613 175 633.5 198.5 c 128,-1,44
 654 222 654 222 664 246 c 1,45,-1
 539 284 l 1,46,47
 532 271 532 271 521.5 260 c 128,-1,48
 511 249 511 249 498 242 c 128,-1,49
 485 235 485 235 470.5 231 c 128,-1,50
 456 227 456 227 442 227 c 0,51,52
 421 227 421 227 400 235.5 c 128,-1,53
 379 244 379 244 362.5 260 c 128,-1,54
 346 276 346 276 335.5 300 c 128,-1,55
 325 324 325 324 325 355 c 0,56,57
 325 381 325 381 333 404 c 128,-1,58
 341 427 341 427 355.5 445 c 128,-1,59
 370 463 370 463 391.5 473 c 128,-1,60
 413 483 413 483 441 483 c 0,61,62
 453 483 453 483 466.5 480.5 c 128,-1,63
 480 478 480 478 492.5 471.5 c 128,-1,64
 505 465 505 465 516.5 454 c 128,-1,65
 528 443 528 443 536 427 c 1,66,-1
 661 466 l 1,67,68
 634 525 634 525 577 559 c 128,-1,69
 520 593 520 593 441 593 c 0,70,71
 380 593 380 593 333.5 572.5 c 128,-1,72
 287 552 287 552 256 518.5 c 128,-1,73
 225 485 225 485 209 442.5 c 128,-1,74
 193 400 193 400 193 355 c 0,75,76
 193 304 193 304 211.5 260.5 c 128,-1,77
 230 217 230 217 263 185 c 128,-1,78
 296 153 296 153 342.5 135 c 128,-1,79
 389 117 389 117 444 117 c 0,40,41
EndSplineSet
EndChar

StartChar: ordfeminine
Encoding: 170 170 108
Width: 424
GlyphClass: 1
Flags: W
LayerCount: 2
Fore
SplineSet
161 340 m 0,0,1
 197 340 197 340 231.5 356.5 c 128,-1,2
 266 373 266 373 296 405 c 1,3,-1
 285 348 l 1,4,-1
 365 348 l 1,5,6
 365 349 365 349 368 365.5 c 128,-1,7
 371 382 371 382 375 401.5 c 128,-1,8
 379 421 379 421 382.5 438 c 128,-1,9
 386 455 386 455 386 456 c 2,10,-1
 409 563 l 2,11,12
 411 575 411 575 412.5 585.5 c 128,-1,13
 414 596 414 596 414 606 c 0,14,15
 414 659 414 659 380.5 686 c 128,-1,16
 347 713 347 713 284 713 c 0,17,18
 246 713 246 713 208.5 701.5 c 128,-1,19
 171 690 171 690 133 666 c 1,20,-1
 149 606 l 1,21,22
 181 626 181 626 208 636.5 c 128,-1,23
 235 647 235 647 262 647 c 0,24,25
 291 647 291 647 305.5 633.5 c 128,-1,26
 320 620 320 620 320 596 c 0,27,28
 320 592 320 592 319.5 586.5 c 128,-1,29
 319 581 319 581 318 575 c 2,30,-1
 314 555 l 1,31,32
 299 563 299 563 279.5 567 c 128,-1,33
 260 571 260 571 238 571 c 0,34,35
 202 571 202 571 171.5 560.5 c 128,-1,36
 141 550 141 550 118 531.5 c 128,-1,37
 95 513 95 513 81.5 487.5 c 128,-1,38
 68 462 68 462 68 432 c 0,39,40
 68 392 68 392 93.5 366 c 128,-1,41
 119 340 119 340 161 340 c 0,0,1
203 409 m 0,42,43
 183 409 183 409 171 421.5 c 128,-1,44
 159 434 159 434 159 452 c 0,45,46
 159 480 159 480 183.5 498 c 128,-1,47
 208 516 208 516 243 516 c 0,48,49
 258 516 258 516 274 513 c 128,-1,50
 290 510 290 510 302 503 c 1,51,-1
 294 464 l 2,52,53
 291 454 291 454 282 444 c 128,-1,54
 273 434 273 434 260 426.5 c 128,-1,55
 247 419 247 419 231.5 414 c 128,-1,56
 216 409 216 409 203 409 c 0,42,43
EndSplineSet
EndChar

StartChar: guillemotleft
Encoding: 171 171 109
Width: 623
GlyphClass: 1
Flags: W
LayerCount: 2
Fore
SplineSet
20 224 m 1,0,-1
 233 48 l 1,1,-1
 256 153 l 1,2,-1
 129 259 l 1,3,-1
 302 370 l 1,4,-1
 324 475 l 1,5,-1
 34 287 l 1,6,-1
 20 224 l 1,0,-1
299 224 m 1,7,-1
 512 48 l 1,8,-1
 534 153 l 1,9,-1
 408 259 l 1,10,-1
 580 370 l 1,11,-1
 602 475 l 1,12,-1
 311 287 l 1,13,-1
 299 224 l 1,7,-1
EndSplineSet
EndChar

StartChar: logicalnot
Encoding: 172 172 110
Width: 589
GlyphClass: 1
Flags: W
LayerCount: 2
Fore
SplineSet
79 397 m 1,0,-1
 54 281 l 1,1,-1
 410 281 l 1,2,-1
 373 108 l 1,3,-1
 482 108 l 1,4,-1
 544 397 l 1,5,-1
 79 397 l 1,0,-1
EndSplineSet
EndChar

StartChar: uni00AD
Encoding: 173 173 111
Width: 580
GlyphClass: 1
Flags: W
LayerCount: 2
Fore
SplineSet
504 216 m 1,0,-1
 529 332 l 1,1,-1
 64 332 l 1,2,-1
 39 216 l 1,3,-1
 504 216 l 1,0,-1
EndSplineSet
EndChar

StartChar: registered
Encoding: 174 174 112
Width: 854
GlyphClass: 1
Flags: W
LayerCount: 2
Fore
SplineSet
437 -7 m 256,0,1
 518 -7 518 -7 587.5 20.5 c 128,-1,2
 657 48 657 48 708 96.5 c 128,-1,3
 759 145 759 145 787.5 211 c 128,-1,4
 816 277 816 277 816 355 c 0,5,6
 816 432 816 432 787.5 498 c 128,-1,7
 759 564 759 564 708 612 c 128,-1,8
 657 660 657 660 587.5 687.5 c 128,-1,9
 518 715 518 715 437 715 c 256,10,11
 356 715 356 715 287 687.5 c 128,-1,12
 218 660 218 660 168 612 c 128,-1,13
 118 564 118 564 90 498 c 128,-1,14
 62 432 62 432 62 355 c 0,15,16
 62 277 62 277 90 211 c 128,-1,17
 118 145 118 145 168 96.5 c 128,-1,18
 218 48 218 48 287 20.5 c 128,-1,19
 356 -7 356 -7 437 -7 c 256,0,1
437 40 m 256,20,21
 368 40 368 40 308.5 64.5 c 128,-1,22
 249 89 249 89 206.5 131.5 c 128,-1,23
 164 174 164 174 140.5 231 c 128,-1,24
 117 288 117 288 117 355 c 0,25,26
 117 420 117 420 140.5 477 c 128,-1,27
 164 534 164 534 206.5 576.5 c 128,-1,28
 249 619 249 619 308.5 643 c 128,-1,29
 368 667 368 667 437 667 c 0,30,31
 507 667 507 667 566.5 643 c 128,-1,32
 626 619 626 619 669 576.5 c 128,-1,33
 712 534 712 534 736.5 477 c 128,-1,34
 761 420 761 420 761 353 c 0,35,36
 761 284 761 284 736 227 c 128,-1,37
 711 170 711 170 667.5 128.5 c 128,-1,38
 624 87 624 87 565 63.5 c 128,-1,39
 506 40 506 40 437 40 c 256,20,21
276 136 m 1,40,-1
 368 136 l 1,41,-1
 368 285 l 1,42,-1
 436 285 l 1,43,-1
 529 136 l 1,44,-1
 632 136 l 1,45,-1
 528 302 l 1,46,47
 546 309 546 309 561.5 322 c 128,-1,48
 577 335 577 335 587.5 352 c 128,-1,49
 598 369 598 369 604 389 c 128,-1,50
 610 409 610 409 610 430 c 0,51,52
 610 456 610 456 600 482.5 c 128,-1,53
 590 509 590 509 571.5 530 c 128,-1,54
 553 551 553 551 527.5 563.5 c 128,-1,55
 502 576 502 576 471 576 c 2,56,-1
 276 576 l 1,57,-1
 276 136 l 1,40,-1
368 364 m 1,58,-1
 368 495 l 1,59,-1
 461 495 l 2,60,61
 473 495 473 495 483.5 491 c 128,-1,62
 494 487 494 487 502 478.5 c 128,-1,63
 510 470 510 470 515 458 c 128,-1,64
 520 446 520 446 520 430 c 256,65,66
 520 414 520 414 516 402 c 128,-1,67
 512 390 512 390 504.5 381.5 c 128,-1,68
 497 373 497 373 487 368.5 c 128,-1,69
 477 364 477 364 463 364 c 2,70,-1
 368 364 l 1,58,-1
EndSplineSet
EndChar

StartChar: degree
Encoding: 176 176 114
Width: 277
GlyphClass: 1
Flags: W
LayerCount: 2
Fore
SplineSet
183 522 m 0,0,1
 207 522 207 522 229.5 531.5 c 128,-1,2
 252 541 252 541 269 557.5 c 128,-1,3
 286 574 286 574 295.5 596.5 c 128,-1,4
 305 619 305 619 305 644 c 0,5,6
 305 679 305 679 284 701.5 c 128,-1,7
 263 724 263 724 226 724 c 0,8,9
 200 724 200 724 178 713.5 c 128,-1,10
 156 703 156 703 139.5 685.5 c 128,-1,11
 123 668 123 668 113.5 646 c 128,-1,12
 104 624 104 624 104 600 c 0,13,14
 104 565 104 565 125.5 543.5 c 128,-1,15
 147 522 147 522 183 522 c 0,0,1
196 585 m 0,16,17
 183 585 183 585 175.5 593.5 c 128,-1,18
 168 602 168 602 168 617 c 0,19,20
 168 634 168 634 182 647.5 c 128,-1,21
 196 661 196 661 212 661 c 0,22,23
 224 661 224 661 232 653 c 128,-1,24
 240 645 240 645 240 631 c 0,25,26
 240 613 240 613 226 599 c 128,-1,27
 212 585 212 585 196 585 c 0,16,17
EndSplineSet
EndChar

StartChar: plusminus
Encoding: 177 177 115
Width: 508
GlyphClass: 1
Flags: W
LayerCount: 2
Fore
SplineSet
418 31 m 1,0,-1
 418 134 l 1,1,-1
 66 134 l 1,2,-1
 66 31 l 1,3,-1
 418 31 l 1,0,-1
300 427 m 1,4,-1
 300 555 l 1,5,-1
 184 555 l 1,6,-1
 184 427 l 1,7,-1
 67 427 l 1,8,-1
 67 324 l 1,9,-1
 184 324 l 1,10,-1
 184 196 l 1,11,-1
 300 196 l 1,12,-1
 300 324 l 1,13,-1
 418 324 l 1,14,-1
 418 427 l 1,15,-1
 300 427 l 1,4,-1
EndSplineSet
EndChar

StartChar: twosuperior
Encoding: 178 178 116
Width: 401
GlyphClass: 1
Flags: W
LayerCount: 2
Fore
SplineSet
378 390 m 1,0,-1
 396 466 l 1,1,-1
 189 466 l 1,2,3
 192 478 192 478 199 489 c 128,-1,4
 206 500 206 500 218.5 510 c 128,-1,5
 231 520 231 520 249 529 c 128,-1,6
 267 538 267 538 291 546 c 0,7,8
 323 557 323 557 351.5 571 c 128,-1,9
 380 585 380 585 401 604.5 c 128,-1,10
 422 624 422 624 434 650.5 c 128,-1,11
 446 677 446 677 446 711 c 0,12,13
 446 758 446 758 413.5 786.5 c 128,-1,14
 381 815 381 815 316 815 c 0,15,16
 283 815 283 815 253 808 c 128,-1,17
 223 801 223 801 199 791 c 128,-1,18
 175 781 175 781 157 768.5 c 128,-1,19
 139 756 139 756 129 746 c 1,20,-1
 165 689 l 1,21,22
 175 698 175 698 189 707.5 c 128,-1,23
 203 717 203 717 219.5 725.5 c 128,-1,24
 236 734 236 734 255.5 739 c 128,-1,25
 275 744 275 744 296 744 c 0,26,27
 328 744 328 744 343.5 730 c 128,-1,28
 359 716 359 716 359 693 c 256,29,30
 359 670 359 670 345.5 653.5 c 128,-1,31
 332 637 332 637 311 625.5 c 128,-1,32
 290 614 290 614 263.5 604 c 128,-1,33
 237 594 237 594 212 584 c 0,34,35
 175 569 175 569 148 551.5 c 128,-1,36
 121 534 121 534 102 511 c 128,-1,37
 83 488 83 488 70 459 c 128,-1,38
 57 430 57 430 48 390 c 1,39,-1
 378 390 l 1,0,-1
EndSplineSet
EndChar

StartChar: threesuperior
Encoding: 179 179 117
Width: 390
GlyphClass: 1
Flags: W
LayerCount: 2
Fore
SplineSet
202 385 m 0,0,1
 238 385 238 385 273 393 c 128,-1,2
 308 401 308 401 335.5 418 c 128,-1,3
 363 435 363 435 380 461.5 c 128,-1,4
 397 488 397 488 397 523 c 0,5,6
 397 556 397 556 379.5 580.5 c 128,-1,7
 362 605 362 605 328 611 c 1,8,9
 375 621 375 621 402.5 648 c 128,-1,10
 430 675 430 675 430 716 c 0,11,12
 430 759 430 759 394.5 787 c 128,-1,13
 359 815 359 815 297 815 c 0,14,15
 274 815 274 815 250 811 c 128,-1,16
 226 807 226 807 203.5 799.5 c 128,-1,17
 181 792 181 792 161 781 c 128,-1,18
 141 770 141 770 128 755 c 1,19,-1
 161 697 l 1,20,21
 181 718 181 718 210.5 732 c 128,-1,22
 240 746 240 746 278 746 c 0,23,24
 301 746 301 746 321.5 735.5 c 128,-1,25
 342 725 342 725 342 701 c 0,26,27
 342 686 342 686 335 675 c 128,-1,28
 328 664 328 664 312.5 656.5 c 128,-1,29
 297 649 297 649 274.5 645.5 c 128,-1,30
 252 642 252 642 222 642 c 2,31,-1
 200 642 l 1,32,-1
 185 573 l 1,33,-1
 208 573 l 2,34,35
 263 573 263 573 289.5 560.5 c 128,-1,36
 316 548 316 548 316 523 c 0,37,38
 316 508 316 508 307.5 495 c 128,-1,39
 299 482 299 482 285 473.5 c 128,-1,40
 271 465 271 465 252.5 460 c 128,-1,41
 234 455 234 455 214 455 c 0,42,43
 192 455 192 455 175 460 c 128,-1,44
 158 465 158 465 145.5 473.5 c 128,-1,45
 133 482 133 482 125.5 492.5 c 128,-1,46
 118 503 118 503 114 512 c 1,47,-1
 63 465 l 1,48,49
 68 425 68 425 106.5 405 c 128,-1,50
 145 385 145 385 202 385 c 0,0,1
EndSplineSet
EndChar

StartChar: uni00B5
Encoding: 181 181 119
Width: 631
GlyphClass: 1
Flags: W
LayerCount: 2
Fore
SplineSet
-39 -212 m 1,0,-1
 90 -212 l 1,1,-1
 138 51 l 1,2,3
 140 25 140 25 157.5 7.5 c 128,-1,4
 175 -10 175 -10 210 -10 c 0,5,6
 235 -10 235 -10 261 0 c 128,-1,7
 287 10 287 10 311 26 c 128,-1,8
 335 42 335 42 354.5 61.5 c 128,-1,9
 374 81 374 81 386 100 c 1,10,-1
 391 0 l 1,11,-1
 478 0 l 1,12,-1
 585 524 l 1,13,-1
 456 524 l 1,14,-1
 387 199 l 1,15,16
 371 174 371 174 353 155.5 c 128,-1,17
 335 137 335 137 315.5 124.5 c 128,-1,18
 296 112 296 112 277 106 c 128,-1,19
 258 100 258 100 241 100 c 0,20,21
 208 100 208 100 192 118 c 128,-1,22
 176 136 176 136 176 172 c 0,23,24
 176 184 176 184 177.5 197 c 128,-1,25
 179 210 179 210 183 225 c 2,26,-1
 246 524 l 1,27,-1
 118 524 l 1,28,-1
 -39 -212 l 1,0,-1
EndSplineSet
EndChar

StartChar: paragraph
Encoding: 182 182 120
Width: 630
GlyphClass: 1
Flags: W
LayerCount: 2
Fore
SplineSet
62 398 m 0,0,1
 62 355 62 355 74 320.5 c 128,-1,2
 86 286 86 286 108 262 c 128,-1,3
 130 238 130 238 162 224 c 128,-1,4
 194 210 194 210 234 210 c 1,5,-1
 172 -80 l 1,6,-1
 282 -80 l 1,7,-1
 343 210 l 1,8,-1
 391 210 l 1,9,-1
 329 -80 l 1,10,-1
 439 -80 l 1,11,-1
 586 613 l 1,12,-1
 653 613 l 1,13,-1
 674 710 l 1,14,-1
 392 710 l 2,15,16
 316 710 316 710 255 687.5 c 128,-1,17
 194 665 194 665 151 624.5 c 128,-1,18
 108 584 108 584 85 526.5 c 128,-1,19
 62 469 62 469 62 398 c 0,0,1
172 412 m 0,20,21
 172 451 172 451 183 487.5 c 128,-1,22
 194 524 194 524 213.5 551 c 128,-1,23
 233 578 233 578 260 594.5 c 128,-1,24
 287 611 287 611 320 613 c 1,25,-1
 254 306 l 1,26,27
 237 308 237 308 221.5 315.5 c 128,-1,28
 206 323 206 323 195 336.5 c 128,-1,29
 184 350 184 350 178 368.5 c 128,-1,30
 172 387 172 387 172 412 c 0,20,21
411 306 m 1,31,-1
 364 306 l 1,32,-1
 429 613 l 1,33,-1
 477 613 l 1,34,-1
 411 306 l 1,31,-1
EndSplineSet
EndChar

StartChar: onesuperior
Encoding: 185 185 123
Width: 286
GlyphClass: 1
Flags: W
LayerCount: 2
Fore
SplineSet
234 467 m 1,0,-1
 308 815 l 1,1,-1
 230 815 l 1,2,3
 230 814 230 814 219.5 805 c 128,-1,4
 209 796 209 796 194 785.5 c 128,-1,5
 179 775 179 775 161.5 766.5 c 128,-1,6
 144 758 144 758 129 758 c 1,7,-1
 112 681 l 1,8,9
 124 681 124 681 138.5 686.5 c 128,-1,10
 153 692 153 692 167.5 700 c 128,-1,11
 182 708 182 708 194.5 716.5 c 128,-1,12
 207 725 207 725 213 732 c 1,13,-1
 157 467 l 1,14,-1
 83 467 l 1,15,-1
 66 391 l 1,16,-1
 284 391 l 1,17,-1
 301 467 l 1,18,-1
 234 467 l 1,0,-1
EndSplineSet
EndChar

StartChar: ordmasculine
Encoding: 186 186 124
Width: 428
GlyphClass: 1
Flags: W
LayerCount: 2
Fore
SplineSet
221 340 m 0,0,1
 270 340 270 340 310.5 359 c 128,-1,2
 351 378 351 378 380.5 409 c 128,-1,3
 410 440 410 440 426 480.5 c 128,-1,4
 442 521 442 521 442 564 c 0,5,6
 442 595 442 595 433 622 c 128,-1,7
 424 649 424 649 406 669 c 128,-1,8
 388 689 388 689 361.5 701 c 128,-1,9
 335 713 335 713 300 713 c 0,10,11
 252 713 252 713 211.5 694 c 128,-1,12
 171 675 171 675 141.5 644 c 128,-1,13
 112 613 112 613 95.5 572.5 c 128,-1,14
 79 532 79 532 79 489 c 0,15,16
 79 458 79 458 88 431 c 128,-1,17
 97 404 97 404 114.5 384 c 128,-1,18
 132 364 132 364 159 352 c 128,-1,19
 186 340 186 340 221 340 c 0,0,1
238 421 m 0,20,21
 224 421 224 421 212.5 427 c 128,-1,22
 201 433 201 433 193 443.5 c 128,-1,23
 185 454 185 454 180.5 468.5 c 128,-1,24
 176 483 176 483 176 501 c 0,25,26
 176 527 176 527 185 551 c 128,-1,27
 194 575 194 575 209 592.5 c 128,-1,28
 224 610 224 610 243 620.5 c 128,-1,29
 262 631 262 631 283 631 c 0,30,31
 297 631 297 631 309 624.5 c 128,-1,32
 321 618 321 618 329 608 c 128,-1,33
 337 598 337 598 341.5 583.5 c 128,-1,34
 346 569 346 569 346 551 c 0,35,36
 346 524 346 524 336.5 500.5 c 128,-1,37
 327 477 327 477 312.5 459.5 c 128,-1,38
 298 442 298 442 278.5 431.5 c 128,-1,39
 259 421 259 421 238 421 c 0,20,21
EndSplineSet
EndChar

StartChar: guillemotright
Encoding: 187 187 125
Width: 623
GlyphClass: 1
Flags: W
LayerCount: 2
Fore
SplineSet
583 287 m 1,0,-1
 372 475 l 1,1,-1
 350 370 l 1,2,-1
 475 259 l 1,3,-1
 304 153 l 1,4,-1
 282 48 l 1,5,-1
 570 224 l 1,6,-1
 583 287 l 1,0,-1
305 287 m 1,7,-1
 94 475 l 1,8,-1
 72 370 l 1,9,-1
 197 259 l 1,10,-1
 26 153 l 1,11,-1
 3 48 l 1,12,-1
 292 224 l 1,13,-1
 305 287 l 1,7,-1
EndSplineSet
EndChar

StartChar: onehalf
Encoding: 189 189 127
Width: 873
GlyphClass: 1
Flags: W
LayerCount: 2
Fore
SplineSet
216 383 m 1,0,-1
 291 731 l 1,1,-1
 213 731 l 1,2,3
 213 730 213 730 202.5 721 c 128,-1,4
 192 712 192 712 176.5 701.5 c 128,-1,5
 161 691 161 691 143.5 682.5 c 128,-1,6
 126 674 126 674 111 674 c 1,7,-1
 95 597 l 1,8,9
 107 597 107 597 121.5 602.5 c 128,-1,10
 136 608 136 608 150 616 c 128,-1,11
 164 624 164 624 176.5 632.5 c 128,-1,12
 189 641 189 641 196 648 c 1,13,-1
 140 383 l 1,14,-1
 65 383 l 1,15,-1
 49 307 l 1,16,-1
 267 307 l 1,17,-1
 283 383 l 1,18,-1
 216 383 l 1,0,-1
92 -7 m 1,19,-1
 420 341 l 1,20,-1
 749 665 l 1,21,-1
 702 717 l 1,22,-1
 382 376 l 1,23,-1
 45 46 l 1,24,-1
 92 -7 l 1,19,-1
773 0 m 1,25,-1
 789 75 l 1,26,-1
 590 75 l 1,27,28
 593 87 593 87 600 98 c 128,-1,29
 607 109 607 109 619 119.5 c 128,-1,30
 631 130 631 130 648 139 c 128,-1,31
 665 148 665 148 689 156 c 0,32,33
 720 166 720 166 747 180 c 128,-1,34
 774 194 774 194 794.5 214 c 128,-1,35
 815 234 815 234 826.5 260 c 128,-1,36
 838 286 838 286 838 320 c 0,37,38
 838 368 838 368 807 396 c 128,-1,39
 776 424 776 424 713 424 c 0,40,41
 681 424 681 424 652 417 c 128,-1,42
 623 410 623 410 600 400 c 128,-1,43
 577 390 577 390 559.5 378 c 128,-1,44
 542 366 542 366 533 355 c 1,45,-1
 567 298 l 1,46,47
 576 308 576 308 590 317.5 c 128,-1,48
 604 327 604 327 620 335 c 128,-1,49
 636 343 636 343 654.5 348 c 128,-1,50
 673 353 673 353 693 353 c 0,51,52
 724 353 724 353 739 339 c 128,-1,53
 754 325 754 325 754 302 c 256,54,55
 754 279 754 279 741 263 c 128,-1,56
 728 247 728 247 707.5 235 c 128,-1,57
 687 223 687 223 661.5 213.5 c 128,-1,58
 636 204 636 204 612 193 c 0,59,60
 576 178 576 178 550 160.5 c 128,-1,61
 524 143 524 143 506 120.5 c 128,-1,62
 488 98 488 98 475.5 68.5 c 128,-1,63
 463 39 463 39 455 0 c 1,64,-1
 773 0 l 1,25,-1
EndSplineSet
EndChar

StartChar: questiondown
Encoding: 191 191 129
Width: 465
GlyphClass: 1
Flags: W
LayerCount: 2
Fore
SplineSet
242 276 m 1,0,1
 237 250 237 250 223.5 232 c 128,-1,2
 210 214 210 214 191.5 200 c 128,-1,3
 173 186 173 186 152 175 c 128,-1,4
 131 164 131 164 109 152 c 0,5,6
 83 138 83 138 60 122 c 128,-1,7
 37 106 37 106 19.5 86 c 128,-1,8
 2 66 2 66 -11 41 c 128,-1,9
 -24 16 -24 16 -31 -16 c 0,10,11
 -42 -68 -42 -68 -32.5 -105 c 128,-1,12
 -23 -142 -23 -142 0 -166 c 128,-1,13
 23 -190 23 -190 56.5 -201.5 c 128,-1,14
 90 -213 90 -213 126 -213 c 0,15,16
 159 -213 159 -213 191.5 -204.5 c 128,-1,17
 224 -196 224 -196 254 -179.5 c 128,-1,18
 284 -163 284 -163 310 -139 c 128,-1,19
 336 -115 336 -115 355 -84 c 1,20,-1
 286 -26 l 1,21,22
 276 -40 276 -40 261.5 -55 c 128,-1,23
 247 -70 247 -70 230 -81.5 c 128,-1,24
 213 -93 213 -93 193.5 -100.5 c 128,-1,25
 174 -108 174 -108 152 -108 c 0,26,27
 134 -108 134 -108 118.5 -102 c 128,-1,28
 103 -96 103 -96 92.5 -85 c 128,-1,29
 82 -74 82 -74 77.5 -57 c 128,-1,30
 73 -40 73 -40 78 -19 c 0,31,32
 84 10 84 10 102.5 31.5 c 128,-1,33
 121 53 121 53 144.5 69 c 128,-1,34
 168 85 168 85 191.5 97 c 128,-1,35
 215 109 215 109 232 119 c 0,36,37
 259 133 259 133 278 150 c 128,-1,38
 297 167 297 167 310 187 c 128,-1,39
 323 207 323 207 331 229 c 128,-1,40
 339 251 339 251 344 276 c 1,41,-1
 242 276 l 1,0,1
395 445 m 0,42,43
 401 474 401 474 386 495 c 128,-1,44
 371 516 371 516 342 516 c 0,45,46
 328 516 328 516 314 510.5 c 128,-1,47
 300 505 300 505 289 495.5 c 128,-1,48
 278 486 278 486 269.5 473 c 128,-1,49
 261 460 261 460 259 445 c 0,50,51
 252 415 252 415 267.5 394.5 c 128,-1,52
 283 374 283 374 312 374 c 0,53,54
 326 374 326 374 339.5 379.5 c 128,-1,55
 353 385 353 385 364.5 394.5 c 128,-1,56
 376 404 376 404 384 417 c 128,-1,57
 392 430 392 430 395 445 c 0,42,43
EndSplineSet
EndChar

StartChar: AE
Encoding: 198 198 136
Width: 928
GlyphClass: 1
Flags: W
LayerCount: 2
Fore
SplineSet
-80 0 m 1,0,-1
 61 0 l 1,1,-1
 198 180 l 1,2,-1
 414 180 l 1,3,-1
 375 0 l 1,4,-1
 830 0 l 1,5,-1
 854 116 l 1,6,-1
 531 116 l 1,7,-1
 571 304 l 1,8,-1
 835 304 l 1,9,-1
 859 420 l 1,10,-1
 596 420 l 1,11,-1
 632 594 l 1,12,-1
 948 594 l 1,13,-1
 973 710 l 1,14,-1
 491 710 l 1,15,-1
 -80 0 l 1,0,-1
280 296 m 1,16,-1
 485 561 l 1,17,-1
 428 296 l 1,18,-1
 280 296 l 1,16,-1
EndSplineSet
EndChar

StartChar: Idieresis
Encoding: 207 207 145
Width: 282
GlyphClass: 1
Flags: W
LayerCount: 2
Fore
SplineSet
11 0 m 1,0,-1
 143 0 l 1,1,-1
 294 709 l 1,2,-1
 162 709 l 1,3,-1
 11 0 l 1,0,-1
274 851 m 0,4,5
 268 822 268 822 279 801 c 128,-1,6
 290 780 290 780 312 780 c 0,7,8
 335 780 335 780 354.5 801 c 128,-1,9
 374 822 374 822 380 851 c 0,10,11
 386 881 386 881 375.5 901.5 c 128,-1,12
 365 922 365 922 343 922 c 0,13,14
 320 922 320 922 300 901.5 c 128,-1,15
 280 881 280 881 274 851 c 0,4,5
132 851 m 0,16,17
 125 822 125 822 136 801 c 128,-1,18
 147 780 147 780 169 780 c 0,19,20
 192 780 192 780 212 801 c 128,-1,21
 232 822 232 822 238 851 c 0,22,23
 244 881 244 881 233 901.5 c 128,-1,24
 222 922 222 922 200 922 c 0,25,26
 177 922 177 922 157.5 901.5 c 128,-1,27
 138 881 138 881 132 851 c 0,16,17
EndSplineSet
EndChar

StartChar: Eth
Encoding: 208 208 146
Width: 698
GlyphClass: 1
Flags: W
LayerCount: 2
Fore
SplineSet
36 309 m 1,0,-1
 346 309 l 1,1,-1
 367 405 l 1,2,-1
 57 405 l 1,3,-1
 36 309 l 1,0,-1
16 0 m 1,4,-1
 262 0 l 2,5,6
 352 0 352 0 428.5 33 c 128,-1,7
 505 66 505 66 561 124 c 128,-1,8
 617 182 617 182 649 261.5 c 128,-1,9
 681 341 681 341 681 435 c 0,10,11
 681 493 681 493 664.5 543 c 128,-1,12
 648 593 648 593 615 630.5 c 128,-1,13
 582 668 582 668 532 689 c 128,-1,14
 482 710 482 710 413 710 c 2,15,-1
 167 710 l 1,16,-1
 16 0 l 1,4,-1
173 116 m 1,17,-1
 275 594 l 1,18,-1
 388 594 l 2,19,20
 427 594 427 594 456 581 c 128,-1,21
 485 568 485 568 504.5 544 c 128,-1,22
 524 520 524 520 534 487.5 c 128,-1,23
 544 455 544 455 544 416 c 0,24,25
 544 356 544 356 526 302 c 128,-1,26
 508 248 508 248 474.5 206.5 c 128,-1,27
 441 165 441 165 393 140.5 c 128,-1,28
 345 116 345 116 287 116 c 2,29,-1
 173 116 l 1,17,-1
EndSplineSet
EndChar

StartChar: multiply
Encoding: 215 215 153
Width: 485
GlyphClass: 1
Flags: W
LayerCount: 2
Fore
SplineSet
315 275 m 1,0,-1
 415 375 l 1,1,-1
 335 456 l 1,2,-1
 235 356 l 1,3,-1
 135 456 l 1,4,-1
 54 375 l 1,5,-1
 154 275 l 1,6,-1
 50 171 l 1,7,-1
 130 90 l 1,8,-1
 234 195 l 1,9,-1
 339 90 l 1,10,-1
 420 171 l 1,11,-1
 315 275 l 1,0,-1
EndSplineSet
EndChar

StartChar: Thorn
Encoding: 222 222 160
Width: 583
GlyphClass: 1
Flags: W
LayerCount: 2
Fore
SplineSet
11 0 m 1,0,-1
 143 0 l 1,1,-1
 166 111 l 1,2,-1
 309 111 l 2,3,4
 364 111 364 111 412 135 c 128,-1,5
 460 159 460 159 496 198.5 c 128,-1,6
 532 238 532 238 553.5 287 c 128,-1,7
 575 336 575 336 575 386 c 0,8,9
 575 423 575 423 563 458.5 c 128,-1,10
 551 494 551 494 529 521 c 128,-1,11
 507 548 507 548 475.5 564.5 c 128,-1,12
 444 581 444 581 404 581 c 2,13,-1
 266 581 l 1,14,-1
 294 710 l 1,15,-1
 162 710 l 1,16,-1
 11 0 l 1,0,-1
191 227 m 1,17,-1
 242 465 l 1,18,-1
 373 465 l 2,19,20
 388 465 388 465 400.5 458 c 128,-1,21
 413 451 413 451 422 438.5 c 128,-1,22
 431 426 431 426 436 409 c 128,-1,23
 441 392 441 392 441 373 c 0,24,25
 441 345 441 345 431.5 319 c 128,-1,26
 422 293 422 293 406.5 272.5 c 128,-1,27
 391 252 391 252 370.5 239.5 c 128,-1,28
 350 227 350 227 328 227 c 2,29,-1
 191 227 l 1,17,-1
EndSplineSet
EndChar

StartChar: germandbls
Encoding: 223 223 161
Width: 538
GlyphClass: 1
Flags: W
LayerCount: 2
Fore
SplineSet
173 -6 m 1,0,1
 234 -5 234 -5 291.5 10.5 c 128,-1,2
 349 26 349 26 393.5 57 c 128,-1,3
 438 88 438 88 465.5 136.5 c 128,-1,4
 493 185 493 185 493 253 c 0,5,6
 493 307 493 307 468.5 347.5 c 128,-1,7
 444 388 444 388 397 402 c 1,8,9
 419 410 419 410 440 427.5 c 128,-1,10
 461 445 461 445 477.5 468.5 c 128,-1,11
 494 492 494 492 504.5 521 c 128,-1,12
 515 550 515 550 515 580 c 0,13,14
 515 642 515 642 472.5 678 c 128,-1,15
 430 714 430 714 360 714 c 0,16,17
 314 714 314 714 272.5 699.5 c 128,-1,18
 231 685 231 685 197 660 c 128,-1,19
 163 635 163 635 139.5 599.5 c 128,-1,20
 116 564 116 564 107 522 c 2,21,-1
 -3 0 l 1,22,-1
 119 0 l 1,23,-1
 225 499 l 2,24,25
 230 522 230 522 238.5 540.5 c 128,-1,26
 247 559 247 559 259.5 573.5 c 128,-1,27
 272 588 272 588 288.5 596 c 128,-1,28
 305 604 305 604 326 604 c 0,29,30
 351 604 351 604 369 589.5 c 128,-1,31
 387 575 387 575 387 545 c 0,32,33
 387 527 387 527 380.5 510 c 128,-1,34
 374 493 374 493 362 480 c 128,-1,35
 350 467 350 467 333.5 459 c 128,-1,36
 317 451 317 451 296 451 c 2,37,-1
 277 451 l 1,38,-1
 252 335 l 1,39,-1
 273 335 l 2,40,41
 290 335 290 335 306 329 c 128,-1,42
 322 323 322 323 333.5 312 c 128,-1,43
 345 301 345 301 352 284.5 c 128,-1,44
 359 268 359 268 359 247 c 0,45,46
 359 214 359 214 346.5 188.5 c 128,-1,47
 334 163 334 163 312 146 c 128,-1,48
 290 129 290 129 261 121 c 128,-1,49
 232 113 232 113 198 112 c 1,50,-1
 173 -6 l 1,0,1
EndSplineSet
EndChar

StartChar: ae
Encoding: 230 230 168
Width: 937
GlyphClass: 1
Flags: W
LayerCount: 2
Fore
SplineSet
201 -10 m 0,0,1
 255 -10 255 -10 299.5 15.5 c 128,-1,2
 344 41 344 41 378 87 c 1,3,-1
 359 0 l 1,4,-1
 467 0 l 1,5,-1
 494 134 l 1,6,-1
 480 256 l 1,7,-1
 547 372 l 1,8,-1
 577 517 l 1,9,-1
 469 517 l 1,10,-1
 449 429 l 1,11,12
 436 477 436 477 398 505 c 128,-1,13
 360 533 360 533 304 533 c 0,14,15
 249 533 249 533 196.5 506.5 c 128,-1,16
 144 480 144 480 104 434.5 c 128,-1,17
 64 389 64 389 40 330 c 128,-1,18
 16 271 16 271 16 205 c 0,19,20
 16 160 16 160 28.5 120.5 c 128,-1,21
 41 81 41 81 65 52 c 128,-1,22
 89 23 89 23 123.5 6.5 c 128,-1,23
 158 -10 158 -10 201 -10 c 0,0,1
258 100 m 0,24,25
 233 100 233 100 213.5 109.5 c 128,-1,26
 194 119 194 119 180.5 136 c 128,-1,27
 167 153 167 153 159.5 176 c 128,-1,28
 152 199 152 199 152 226 c 0,29,30
 152 262 152 262 166 297 c 128,-1,31
 180 332 180 332 203.5 360.5 c 128,-1,32
 227 389 227 389 257.5 406 c 128,-1,33
 288 423 288 423 321 423 c 0,34,35
 342 423 342 423 359.5 415.5 c 128,-1,36
 377 408 377 408 390.5 394 c 128,-1,37
 404 380 404 380 413.5 360.5 c 128,-1,38
 423 341 423 341 426 317 c 1,39,-1
 399 191 l 1,40,41
 385 171 385 171 369 154 c 128,-1,42
 353 137 353 137 335 125 c 128,-1,43
 317 113 317 113 297.5 106.5 c 128,-1,44
 278 100 278 100 258 100 c 0,24,25
617 -10 m 0,45,46
 656 -10 656 -10 693.5 0 c 128,-1,47
 731 10 731 10 765.5 28 c 128,-1,48
 800 46 800 46 828.5 71 c 128,-1,49
 857 96 857 96 877 126 c 1,50,-1
 775 158 l 1,51,52
 764 141 764 141 749 127 c 128,-1,53
 734 113 734 113 716.5 103.5 c 128,-1,54
 699 94 699 94 679.5 89 c 128,-1,55
 660 84 660 84 640 84 c 0,56,57
 614 84 614 84 594 93.5 c 128,-1,58
 574 103 574 103 561.5 119.5 c 128,-1,59
 549 136 549 136 543 158.5 c 128,-1,60
 537 181 537 181 537 208 c 0,61,62
 537 248 537 248 548 289 c 128,-1,63
 559 330 559 330 582 363.5 c 128,-1,64
 605 397 605 397 638 418 c 128,-1,65
 671 439 671 439 715 439 c 0,66,67
 733 439 733 439 748 435.5 c 128,-1,68
 763 432 763 432 774 424.5 c 128,-1,69
 785 417 785 417 790.5 405.5 c 128,-1,70
 796 394 796 394 796 379 c 0,71,72
 796 361 796 361 787 346.5 c 128,-1,73
 778 332 778 332 757 322 c 128,-1,74
 736 312 736 312 702.5 306.5 c 128,-1,75
 669 301 669 301 619 301 c 0,76,77
 592 301 592 301 564 302.5 c 128,-1,78
 536 304 536 304 509 307 c 1,79,-1
 485 226 l 1,80,81
 520 222 520 222 554 220.5 c 128,-1,82
 588 219 588 219 618 219 c 0,83,84
 769 219 769 219 843.5 261.5 c 128,-1,85
 918 304 918 304 918 387 c 0,86,87
 918 423 918 423 904.5 450 c 128,-1,88
 891 477 891 477 867 495.5 c 128,-1,89
 843 514 843 514 808.5 523.5 c 128,-1,90
 774 533 774 533 732 533 c 0,91,92
 663 533 663 533 607.5 507 c 128,-1,93
 552 481 552 481 514 437 c 128,-1,94
 476 393 476 393 455 335 c 128,-1,95
 434 277 434 277 434 212 c 0,96,97
 434 164 434 164 444 123 c 128,-1,98
 454 82 454 82 476 52.5 c 128,-1,99
 498 23 498 23 533 6.5 c 128,-1,100
 568 -10 568 -10 617 -10 c 0,45,46
EndSplineSet
EndChar

StartChar: idieresis
Encoding: 239 239 177
Width: 252
GlyphClass: 1
Flags: W
LayerCount: 2
Fore
SplineSet
81 665 m 0,0,1
 75 635 75 635 86 614.5 c 128,-1,2
 97 594 97 594 118 594 c 0,3,4
 140 594 140 594 160 614.5 c 128,-1,5
 180 635 180 635 186 665 c 0,6,7
 192 694 192 694 181.5 715 c 128,-1,8
 171 736 171 736 149 736 c 256,9,10
 127 736 127 736 107.5 715 c 128,-1,11
 88 694 88 694 81 665 c 0,0,1
221 665 m 0,12,13
 215 635 215 635 225.5 614.5 c 128,-1,14
 236 594 236 594 258 594 c 256,15,16
 280 594 280 594 299.5 614.5 c 128,-1,17
 319 635 319 635 325 665 c 0,18,19
 331 694 331 694 320.5 715 c 128,-1,20
 310 736 310 736 288 736 c 256,21,22
 266 736 266 736 246.5 715 c 128,-1,23
 227 694 227 694 221 665 c 0,12,13
-3 0 m 1,24,-1
 125 0 l 1,25,-1
 237 524 l 1,26,-1
 108 524 l 1,27,-1
 -3 0 l 1,24,-1
EndSplineSet
EndChar

StartChar: eth
Encoding: 240 240 178
Width: 591
GlyphClass: 1
Flags: W
LayerCount: 2
Fore
SplineSet
563 375 m 0,0,1
 563 423 563 423 553.5 474.5 c 128,-1,2
 544 526 544 526 523 573 c 128,-1,3
 502 620 502 620 471 661 c 128,-1,4
 440 702 440 702 396 730 c 1,5,-1
 232 730 l 1,6,7
 281 698 281 698 317 665 c 128,-1,8
 353 632 353 632 377 597.5 c 128,-1,9
 401 563 401 563 415.5 528 c 128,-1,10
 430 493 430 493 436 455 c 0,11,12
 439 439 439 439 440 423.5 c 128,-1,13
 441 408 441 408 442 391 c 1,14,15
 423 428 423 428 385 450 c 128,-1,16
 347 472 347 472 298 472 c 0,17,18
 244 472 244 472 192 449.5 c 128,-1,19
 140 427 140 427 100.5 388 c 128,-1,20
 61 349 61 349 36.5 298 c 128,-1,21
 12 247 12 247 12 191 c 0,22,23
 12 148 12 148 27.5 111 c 128,-1,24
 43 74 43 74 70.5 47.5 c 128,-1,25
 98 21 98 21 137.5 5.5 c 128,-1,26
 177 -10 177 -10 224 -10 c 0,27,28
 294 -10 294 -10 355 17.5 c 128,-1,29
 416 45 416 45 462.5 95 c 128,-1,30
 509 145 509 145 536 216 c 128,-1,31
 563 287 563 287 563 375 c 0,0,1
146 208 m 0,32,33
 146 241 146 241 159.5 270 c 128,-1,34
 173 299 173 299 195.5 321 c 128,-1,35
 218 343 218 343 247.5 356 c 128,-1,36
 277 369 277 369 309 369 c 0,37,38
 333 369 333 369 351.5 361 c 128,-1,39
 370 353 370 353 384 338.5 c 128,-1,40
 398 324 398 324 405 305 c 128,-1,41
 412 286 412 286 412 262 c 0,42,43
 412 230 412 230 399 200.5 c 128,-1,44
 386 171 386 171 363.5 148.5 c 128,-1,45
 341 126 341 126 311.5 113 c 128,-1,46
 282 100 282 100 249 100 c 0,47,48
 226 100 226 100 207 108 c 128,-1,49
 188 116 188 116 174.5 130.5 c 128,-1,50
 161 145 161 145 153.5 165 c 128,-1,51
 146 185 146 185 146 208 c 0,32,33
554 713 m 1,52,-1
 430 647 l 1,53,-1
 390 637 l 1,54,-1
 271 574 l 1,55,-1
 297 523 l 1,56,-1
 419 588 l 1,57,-1
 461 600 l 1,58,-1
 580 662 l 1,59,-1
 554 713 l 1,52,-1
EndSplineSet
EndChar

StartChar: divide
Encoding: 247 247 185
Width: 514
GlyphClass: 1
Flags: W
LayerCount: 2
Fore
SplineSet
459 245 m 1,0,-1
 459 348 l 1,1,-1
 55 348 l 1,2,-1
 55 245 l 1,3,-1
 459 245 l 1,0,-1
186 105 m 256,4,5
 186 76 186 76 207 55 c 128,-1,6
 228 34 228 34 257 34 c 256,7,8
 286 34 286 34 307 55 c 128,-1,9
 328 76 328 76 328 105 c 256,10,11
 328 134 328 134 307 155 c 128,-1,12
 286 176 286 176 257 176 c 256,13,14
 228 176 228 176 207 155 c 128,-1,15
 186 134 186 134 186 105 c 256,4,5
187 488 m 256,16,17
 187 459 187 459 208 437.5 c 128,-1,18
 229 416 229 416 258 416 c 256,19,20
 287 416 287 416 308 437.5 c 128,-1,21
 329 459 329 459 329 488 c 0,22,23
 329 518 329 518 308 538.5 c 128,-1,24
 287 559 287 559 258 559 c 256,25,26
 229 559 229 559 208 538 c 128,-1,27
 187 517 187 517 187 488 c 256,16,17
EndSplineSet
EndChar

StartChar: oslash
Encoding: 248 248 186
Width: 585
GlyphClass: 1
Flags: W
LayerCount: 2
Fore
SplineSet
227 -10 m 0,0,1
 297 -10 297 -10 357 17.5 c 128,-1,2
 417 45 417 45 460.5 90.5 c 128,-1,3
 504 136 504 136 528.5 194 c 128,-1,4
 553 252 553 252 553 314 c 0,5,6
 553 359 553 359 539.5 399 c 128,-1,7
 526 439 526 439 499 468.5 c 128,-1,8
 472 498 472 498 433 515.5 c 128,-1,9
 394 533 394 533 342 533 c 0,10,11
 272 533 272 533 212.5 505.5 c 128,-1,12
 153 478 153 478 109 432.5 c 128,-1,13
 65 387 65 387 40.5 329 c 128,-1,14
 16 271 16 271 16 208 c 0,15,16
 16 164 16 164 29.5 124 c 128,-1,17
 43 84 43 84 69.5 54.5 c 128,-1,18
 96 25 96 25 135.5 7.5 c 128,-1,19
 175 -10 175 -10 227 -10 c 0,0,1
250 100 m 0,20,21
 227 100 227 100 208.5 109 c 128,-1,22
 190 118 190 118 177 134.5 c 128,-1,23
 164 151 164 151 157 174 c 128,-1,24
 150 197 150 197 150 224 c 0,25,26
 150 265 150 265 164 301.5 c 128,-1,27
 178 338 178 338 202 365 c 128,-1,28
 226 392 226 392 256.5 407.5 c 128,-1,29
 287 423 287 423 318 423 c 0,30,31
 341 423 341 423 359.5 414 c 128,-1,32
 378 405 378 405 391 388.5 c 128,-1,33
 404 372 404 372 411.5 349 c 128,-1,34
 419 326 419 326 419 298 c 0,35,36
 419 257 419 257 404.5 221 c 128,-1,37
 390 185 390 185 366 158 c 128,-1,38
 342 131 342 131 312 115.5 c 128,-1,39
 282 100 282 100 250 100 c 0,20,21
-13 -4 m 1,40,-1
 59 -4 l 1,41,-1
 147 80 l 1,42,-1
 116 120 l 1,43,-1
 -13 -4 l 1,40,-1
155 91 m 1,44,-1
 452 412 l 1,45,-1
 416 440 l 1,46,-1
 127 126 l 1,47,-1
 155 91 l 1,44,-1
464 419 m 1,48,-1
 577 527 l 1,49,-1
 504 527 l 1,50,-1
 425 451 l 1,51,-1
 464 419 l 1,48,-1
EndSplineSet
EndChar

StartChar: thorn
Encoding: 254 254 192
Width: 597
GlyphClass: 1
Flags: W
LayerCount: 2
Fore
SplineSet
80 -213 m 1,0,-1
 145 93 l 1,1,2
 153 70 153 70 166 51 c 128,-1,3
 179 32 179 32 197.5 18.5 c 128,-1,4
 216 5 216 5 240.5 -2.5 c 128,-1,5
 265 -10 265 -10 293 -10 c 0,6,7
 350 -10 350 -10 401.5 17 c 128,-1,8
 453 44 453 44 492 89 c 128,-1,9
 531 134 531 134 554 193.5 c 128,-1,10
 577 253 577 253 577 317 c 0,11,12
 577 362 577 362 564.5 401.5 c 128,-1,13
 552 441 552 441 528.5 470 c 128,-1,14
 505 499 505 499 471 516 c 128,-1,15
 437 533 437 533 394 533 c 0,16,17
 370 533 370 533 346.5 527.5 c 128,-1,18
 323 522 323 522 301.5 512 c 128,-1,19
 280 502 280 502 260.5 488 c 128,-1,20
 241 474 241 474 225 457 c 1,21,-1
 279 710 l 1,22,-1
 147 710 l 1,23,-1
 -49 -213 l 1,24,-1
 80 -213 l 1,0,-1
274 100 m 0,25,26
 254 100 254 100 236.5 108 c 128,-1,27
 219 116 219 116 205 130 c 128,-1,28
 191 144 191 144 182 163.5 c 128,-1,29
 173 183 173 183 169 206 c 1,30,-1
 196 332 l 1,31,32
 207 352 207 352 223 368.5 c 128,-1,33
 239 385 239 385 258 397 c 128,-1,34
 277 409 277 409 297 416 c 128,-1,35
 317 423 317 423 335 423 c 0,36,37
 360 423 360 423 379.5 413.5 c 128,-1,38
 399 404 399 404 413.5 387 c 128,-1,39
 428 370 428 370 435 346.5 c 128,-1,40
 442 323 442 323 442 297 c 0,41,42
 442 260 442 260 428.5 225 c 128,-1,43
 415 190 415 190 391.5 162 c 128,-1,44
 368 134 368 134 338 117 c 128,-1,45
 308 100 308 100 274 100 c 0,25,26
EndSplineSet
EndChar

StartChar: Dcroat
Encoding: 272 272 210
Width: 698
GlyphClass: 1
Flags: W
LayerCount: 2
Fore
SplineSet
36 309 m 1,0,-1
 346 309 l 1,1,-1
 367 405 l 1,2,-1
 57 405 l 1,3,-1
 36 309 l 1,0,-1
16 0 m 1,4,-1
 262 0 l 2,5,6
 352 0 352 0 428.5 33 c 128,-1,7
 505 66 505 66 561 124 c 128,-1,8
 617 182 617 182 649 261.5 c 128,-1,9
 681 341 681 341 681 435 c 0,10,11
 681 493 681 493 664.5 543 c 128,-1,12
 648 593 648 593 615 630.5 c 128,-1,13
 582 668 582 668 532 689 c 128,-1,14
 482 710 482 710 413 710 c 2,15,-1
 167 710 l 1,16,-1
 16 0 l 1,4,-1
173 116 m 1,17,-1
 275 594 l 1,18,-1
 388 594 l 2,19,20
 427 594 427 594 456 581 c 128,-1,21
 485 568 485 568 504.5 544 c 128,-1,22
 524 520 524 520 534 487.5 c 128,-1,23
 544 455 544 455 544 416 c 0,24,25
 544 356 544 356 526 302 c 128,-1,26
 508 248 508 248 474.5 206.5 c 128,-1,27
 441 165 441 165 393 140.5 c 128,-1,28
 345 116 345 116 287 116 c 2,29,-1
 173 116 l 1,17,-1
EndSplineSet
EndChar

StartChar: dcroat
Encoding: 273 273 211
Width: 622
GlyphClass: 1
Flags: W
LayerCount: 2
Fore
SplineSet
400 592 m 1,0,-1
 683 592 l 1,1,-1
 700 669 l 1,2,-1
 417 669 l 1,3,-1
 400 592 l 1,0,-1
202 -10 m 0,4,5
 228 -10 228 -10 252 -4 c 128,-1,6
 276 2 276 2 298 14 c 128,-1,7
 320 26 320 26 339 43.5 c 128,-1,8
 358 61 358 61 375 83 c 1,9,-1
 358 0 l 1,10,-1
 486 0 l 1,11,-1
 641 730 l 1,12,-1
 512 730 l 1,13,-1
 448 430 l 1,14,15
 440 453 440 453 427 471.5 c 128,-1,16
 414 490 414 490 395.5 503.5 c 128,-1,17
 377 517 377 517 353.5 525 c 128,-1,18
 330 533 330 533 302 533 c 0,19,20
 246 533 246 533 194.5 506 c 128,-1,21
 143 479 143 479 103.5 434 c 128,-1,22
 64 389 64 389 40 329.5 c 128,-1,23
 16 270 16 270 16 205 c 0,24,25
 16 160 16 160 28.5 120.5 c 128,-1,26
 41 81 41 81 65 52 c 128,-1,27
 89 23 89 23 123.5 6.5 c 128,-1,28
 158 -10 158 -10 202 -10 c 0,4,5
258 100 m 0,29,30
 234 100 234 100 214 109.5 c 128,-1,31
 194 119 194 119 180.5 136 c 128,-1,32
 167 153 167 153 159.5 176 c 128,-1,33
 152 199 152 199 152 226 c 0,34,35
 152 262 152 262 165.5 297.5 c 128,-1,36
 179 333 179 333 202.5 361 c 128,-1,37
 226 389 226 389 256 406 c 128,-1,38
 286 423 286 423 319 423 c 0,39,40
 339 423 339 423 356.5 415.5 c 128,-1,41
 374 408 374 408 388.5 394 c 128,-1,42
 403 380 403 380 412.5 361 c 128,-1,43
 422 342 422 342 425 319 c 1,44,-1
 399 191 l 1,45,46
 389 172 389 172 372 155 c 128,-1,47
 355 138 355 138 336 125.5 c 128,-1,48
 317 113 317 113 297 106.5 c 128,-1,49
 277 100 277 100 258 100 c 0,29,30
EndSplineSet
EndChar

StartChar: hcircumflex
Encoding: 293 293 231
Width: 581
GlyphClass: 1
Flags: W
LayerCount: 2
Fore
SplineSet
-3 0 m 1,0,-1
 125 0 l 1,1,-1
 191 307 l 1,2,3
 203 332 203 332 221.5 352.5 c 128,-1,4
 240 373 240 373 260 388 c 128,-1,5
 280 403 280 403 300.5 411 c 128,-1,6
 321 419 321 419 338 419 c 0,7,8
 368 419 368 419 384.5 401 c 128,-1,9
 401 383 401 383 401 345 c 0,10,11
 401 334 401 334 399.5 321.5 c 128,-1,12
 398 309 398 309 395 294 c 2,13,-1
 332 0 l 1,14,-1
 461 0 l 1,15,-1
 530 326 l 2,16,17
 534 347 534 347 536.5 368 c 128,-1,18
 539 389 539 389 539 409 c 0,19,20
 539 435 539 435 533 457.5 c 128,-1,21
 527 480 527 480 513 497 c 128,-1,22
 499 514 499 514 475.5 523.5 c 128,-1,23
 452 533 452 533 417 533 c 0,24,25
 389 533 389 533 361.5 525.5 c 128,-1,26
 334 518 334 518 308 504.5 c 128,-1,27
 282 491 282 491 258.5 470.5 c 128,-1,28
 235 450 235 450 216 425 c 1,29,-1
 280 730 l 1,30,-1
 152 730 l 1,31,-1
 -3 0 l 1,0,-1
466 914 m 1,32,-1
 355 914 l 1,33,-1
 238 762 l 1,34,-1
 298 762 l 1,35,-1
 466 914 l 1,32,-1
366 914 m 1,36,-1
 473 762 l 1,37,-1
 534 762 l 1,38,-1
 478 914 l 1,39,-1
 366 914 l 1,36,-1
EndSplineSet
EndChar

StartChar: Hbar
Encoding: 294 294 232
Width: 725
GlyphClass: 1
Flags: W
LayerCount: 2
Fore
SplineSet
84 544 m 1,0,-1
 747 544 l 1,1,-1
 760 607 l 1,2,-1
 97 607 l 1,3,-1
 84 544 l 1,0,-1
16 0 m 1,4,-1
 148 0 l 1,5,-1
 213 305 l 1,6,-1
 516 305 l 1,7,-1
 451 0 l 1,8,-1
 583 0 l 1,9,-1
 734 710 l 1,10,-1
 602 710 l 1,11,-1
 541 421 l 1,12,-1
 237 421 l 1,13,-1
 299 710 l 1,14,-1
 167 710 l 1,15,-1
 16 0 l 1,4,-1
EndSplineSet
EndChar

StartChar: hbar
Encoding: 295 295 233
Width: 581
GlyphClass: 1
Flags: W
LayerCount: 2
Fore
SplineSet
62 592 m 1,0,-1
 346 592 l 1,1,-1
 362 669 l 1,2,-1
 79 669 l 1,3,-1
 62 592 l 1,0,-1
-3 0 m 1,4,-1
 125 0 l 1,5,-1
 191 307 l 1,6,7
 203 332 203 332 221.5 352.5 c 128,-1,8
 240 373 240 373 260 388 c 128,-1,9
 280 403 280 403 300.5 411 c 128,-1,10
 321 419 321 419 338 419 c 0,11,12
 368 419 368 419 384.5 401 c 128,-1,13
 401 383 401 383 401 345 c 0,14,15
 401 334 401 334 399.5 321.5 c 128,-1,16
 398 309 398 309 395 294 c 2,17,-1
 332 0 l 1,18,-1
 461 0 l 1,19,-1
 530 326 l 2,20,21
 534 347 534 347 536.5 368 c 128,-1,22
 539 389 539 389 539 409 c 0,23,24
 539 435 539 435 533 457.5 c 128,-1,25
 527 480 527 480 513 497 c 128,-1,26
 499 514 499 514 475.5 523.5 c 128,-1,27
 452 533 452 533 417 533 c 0,28,29
 389 533 389 533 361.5 525.5 c 128,-1,30
 334 518 334 518 308 504.5 c 128,-1,31
 282 491 282 491 258.5 470.5 c 128,-1,32
 235 450 235 450 216 425 c 1,33,-1
 280 730 l 1,34,-1
 152 730 l 1,35,-1
 -3 0 l 1,4,-1
EndSplineSet
EndChar

StartChar: dotlessi
Encoding: 305 305 243
Width: 250
GlyphClass: 1
Flags: W
LayerCount: 2
Fore
SplineSet
-3 0 m 1,0,-1
 125 0 l 1,1,-1
 237 524 l 1,2,-1
 108 524 l 1,3,-1
 -3 0 l 1,0,-1
EndSplineSet
EndChar

StartChar: kgreenlandic
Encoding: 312 312 248
Width: 536
GlyphClass: 1
Flags: W
LayerCount: 2
Fore
SplineSet
-3 0 m 1,0,-1
 125 0 l 1,1,-1
 159 157 l 1,2,-1
 242 230 l 1,3,-1
 337 0 l 1,4,-1
 475 0 l 1,5,-1
 339 301 l 1,6,-1
 572 523 l 1,7,-1
 435 523 l 1,8,-1
 185 282 l 1,9,-1
 237 524 l 1,10,-1
 108 524 l 1,11,-1
 -3 0 l 1,0,-1
EndSplineSet
EndChar

StartChar: Lslash
Encoding: 321 321 257
Width: 568
GlyphClass: 1
Flags: W
LayerCount: 2
Fore
SplineSet
21 241 m 1,0,-1
 383 455 l 1,1,-1
 366 525 l 1,2,-1
 4 311 l 1,3,-1
 21 241 l 1,0,-1
11 0 m 1,4,-1
 486 0 l 1,5,-1
 511 116 l 1,6,-1
 167 116 l 1,7,-1
 294 710 l 1,8,-1
 162 710 l 1,9,-1
 11 0 l 1,4,-1
EndSplineSet
EndChar

StartChar: lslash
Encoding: 322 322 258
Width: 338
GlyphClass: 1
Flags: W
LayerCount: 2
Fore
SplineSet
28 271 m 1,0,-1
 358 454 l 1,1,-1
 340 524 l 1,2,-1
 11 340 l 1,3,-1
 28 271 l 1,0,-1
151 -8 m 0,4,5
 179 -8 179 -8 215 -1 c 128,-1,6
 251 6 251 6 279 18 c 1,7,-1
 283 117 l 1,8,9
 270 111 270 111 255 107 c 128,-1,10
 240 103 240 103 229 103 c 0,11,12
 209 103 209 103 198.5 114 c 128,-1,13
 188 125 188 125 188 144 c 0,14,15
 188 151 188 151 189 158.5 c 128,-1,16
 190 166 190 166 193 177 c 2,17,-1
 311 730 l 1,18,-1
 182 730 l 1,19,-1
 52 119 l 2,20,21
 50 109 50 109 49 100 c 128,-1,22
 48 91 48 91 48 81 c 0,23,24
 48 38 48 38 74 15 c 128,-1,25
 100 -8 100 -8 151 -8 c 0,4,5
EndSplineSet
EndChar

StartChar: Eng
Encoding: 330 330 265
Width: 721
GlyphClass: 1
Flags: W
LayerCount: 2
Fore
SplineSet
367 -195 m 0,0,1
 402 -195 402 -195 436.5 -182 c 128,-1,2
 471 -169 471 -169 499.5 -144.5 c 128,-1,3
 528 -120 528 -120 549.5 -86 c 128,-1,4
 571 -52 571 -52 580 -10 c 2,5,-1
 733 709 l 1,6,-1
 601 709 l 1,7,-1
 501 240 l 1,8,-1
 263 710 l 1,9,-1
 162 710 l 1,10,-1
 11 0 l 1,11,-1
 143 0 l 1,12,-1
 241 461 l 1,13,-1
 459 27 l 1,14,-1
 450 -15 l 2,15,16
 447 -30 447 -30 439.5 -42.5 c 128,-1,17
 432 -55 432 -55 422 -64 c 128,-1,18
 412 -73 412 -73 399.5 -78 c 128,-1,19
 387 -83 387 -83 375 -83 c 0,20,21
 359 -83 359 -83 345.5 -78 c 128,-1,22
 332 -73 332 -73 324 -61 c 1,23,-1
 250 -148 l 1,24,25
 271 -172 271 -172 301 -183.5 c 128,-1,26
 331 -195 331 -195 367 -195 c 0,0,1
EndSplineSet
EndChar

StartChar: eng
Encoding: 331 331 266
Width: 580
GlyphClass: 1
Flags: W
LayerCount: 2
Fore
SplineSet
245 -195 m 256,0,1
 281 -195 281 -195 315.5 -181 c 128,-1,2
 350 -167 350 -167 379 -142 c 128,-1,3
 408 -117 408 -117 429 -82 c 128,-1,4
 450 -47 450 -47 459 -5 c 2,5,-1
 529 326 l 2,6,7
 534 348 534 348 537 370 c 128,-1,8
 540 392 540 392 540 412 c 0,9,10
 540 438 540 438 534.5 460 c 128,-1,11
 529 482 529 482 515.5 498 c 128,-1,12
 502 514 502 514 479.5 523.5 c 128,-1,13
 457 533 457 533 424 533 c 256,14,15
 391 533 391 533 360 525.5 c 128,-1,16
 329 518 329 518 300.5 504 c 128,-1,17
 272 490 272 490 247 470 c 128,-1,18
 222 450 222 450 203 425 c 1,19,-1
 224 524 l 1,20,-1
 108 524 l 1,21,-1
 -3 0 l 1,22,-1
 125 0 l 1,23,-1
 191 307 l 1,24,25
 203 332 203 332 221.5 352.5 c 128,-1,26
 240 373 240 373 260.5 387.5 c 128,-1,27
 281 402 281 402 302.5 410.5 c 128,-1,28
 324 419 324 419 343 419 c 0,29,30
 370 419 370 419 385.5 402 c 128,-1,31
 401 385 401 385 401 349 c 0,32,33
 401 337 401 337 399.5 323.5 c 128,-1,34
 398 310 398 310 395 294 c 2,35,-1
 329 -15 l 2,36,37
 326 -30 326 -30 318 -42.5 c 128,-1,38
 310 -55 310 -55 299.5 -64 c 128,-1,39
 289 -73 289 -73 277.5 -78 c 128,-1,40
 266 -83 266 -83 254 -83 c 0,41,42
 238 -83 238 -83 224.5 -78 c 128,-1,43
 211 -73 211 -73 202 -61 c 1,44,-1
 129 -148 l 1,45,46
 150 -172 150 -172 179.5 -183.5 c 128,-1,47
 209 -195 209 -195 245 -195 c 256,0,1
EndSplineSet
EndChar

StartChar: OE
Encoding: 338 338 273
Width: 1037
GlyphClass: 1
Flags: W
LayerCount: 2
Fore
SplineSet
290 -5 m 0,0,1
 320 -5 320 -5 349.5 4 c 128,-1,2
 379 13 379 13 407 28 c 128,-1,3
 435 43 435 43 460 64.5 c 128,-1,4
 485 86 485 86 507 111 c 1,5,-1
 483 0 l 1,6,-1
 939 0 l 1,7,-1
 963 116 l 1,8,-1
 640 116 l 1,9,-1
 680 304 l 1,10,-1
 944 304 l 1,11,-1
 968 420 l 1,12,-1
 705 420 l 1,13,-1
 741 594 l 1,14,-1
 1057 594 l 1,15,-1
 1081 710 l 1,16,-1
 634 710 l 1,17,-1
 611 600 l 1,18,19
 600 625 600 625 584.5 645.5 c 128,-1,20
 569 666 569 666 548 682 c 128,-1,21
 527 698 527 698 501.5 706.5 c 128,-1,22
 476 715 476 715 445 715 c 0,23,24
 366 715 366 715 292 679 c 128,-1,25
 218 643 218 643 162 583 c 128,-1,26
 106 523 106 523 72 446 c 128,-1,27
 38 369 38 369 38 288 c 0,28,29
 38 231 38 231 54.5 178 c 128,-1,30
 71 125 71 125 103 84.5 c 128,-1,31
 135 44 135 44 182 19.5 c 128,-1,32
 229 -5 229 -5 290 -5 c 0,0,1
316 113 m 0,33,34
 280 113 280 113 253 128 c 128,-1,35
 226 143 226 143 208.5 168.5 c 128,-1,36
 191 194 191 194 181.5 227.5 c 128,-1,37
 172 261 172 261 172 298 c 0,38,39
 172 350 172 350 190.5 403 c 128,-1,40
 209 456 209 456 242 499 c 128,-1,41
 275 542 275 542 320 569.5 c 128,-1,42
 365 597 365 597 419 597 c 0,43,44
 454 597 454 597 480.5 582 c 128,-1,45
 507 567 507 567 525 541.5 c 128,-1,46
 543 516 543 516 552 482.5 c 128,-1,47
 561 449 561 449 561 412 c 0,48,49
 561 360 561 360 543 307 c 128,-1,50
 525 254 525 254 492.5 211 c 128,-1,51
 460 168 460 168 415 140.5 c 128,-1,52
 370 113 370 113 316 113 c 0,33,34
EndSplineSet
EndChar

StartChar: Tbar
Encoding: 358 358 293
Width: 618
GlyphClass: 1
Flags: W
LayerCount: 2
Fore
SplineSet
66 317 m 1,0,-1
 557 317 l 1,1,-1
 571 381 l 1,2,-1
 79 381 l 1,3,-1
 66 317 l 1,0,-1
178 0 m 1,4,-1
 310 0 l 1,5,-1
 436 594 l 1,6,-1
 651 594 l 1,7,-1
 676 710 l 1,8,-1
 114 710 l 1,9,-1
 89 594 l 1,10,-1
 304 594 l 1,11,-1
 178 0 l 1,4,-1
EndSplineSet
EndChar

StartChar: tbar
Encoding: 359 359 294
Width: 370
GlyphClass: 1
Flags: W
LayerCount: 2
Fore
SplineSet
17 267 m 1,0,-1
 307 267 l 1,1,-1
 324 344 l 1,2,-1
 33 344 l 1,3,-1
 17 267 l 1,0,-1
47 82 m 0,4,5
 47 34 47 34 77.5 12.5 c 128,-1,6
 108 -9 108 -9 154 -9 c 0,7,8
 174 -9 174 -9 194.5 -6 c 128,-1,9
 215 -3 215 -3 234.5 2 c 128,-1,10
 254 7 254 7 271.5 13.5 c 128,-1,11
 289 20 289 20 303 27 c 1,12,-1
 299 129 l 1,13,14
 293 126 293 126 284 122.5 c 128,-1,15
 275 119 275 119 265.5 116 c 128,-1,16
 256 113 256 113 245.5 111 c 128,-1,17
 235 109 235 109 226 109 c 0,18,19
 209 109 209 109 198 117.5 c 128,-1,20
 187 126 187 126 187 145 c 0,21,22
 187 149 187 149 187.5 153 c 128,-1,23
 188 157 188 157 189 161 c 2,24,-1
 245 425 l 1,25,-1
 350 425 l 1,26,-1
 371 524 l 1,27,-1
 266 524 l 1,28,-1
 302 694 l 1,29,-1
 173 694 l 1,30,-1
 137 524 l 1,31,-1
 72 524 l 1,32,-1
 51 425 l 1,33,-1
 116 425 l 1,34,-1
 51 118 l 2,35,36
 48 108 48 108 47.5 99.5 c 128,-1,37
 47 91 47 91 47 82 c 0,4,5
EndSplineSet
EndChar

StartChar: uni018F
Encoding: 399 399 318
Width: 716
GlyphClass: 1
Flags: W
LayerCount: 2
Fore
SplineSet
288 -5 m 0,0,1
 373 -5 373 -5 448.5 32 c 128,-1,2
 524 69 524 69 580 129.5 c 128,-1,3
 636 190 636 190 669 267 c 128,-1,4
 702 344 702 344 702 425 c 0,5,6
 702 482 702 482 684.5 534.5 c 128,-1,7
 667 587 667 587 634 627 c 128,-1,8
 601 667 601 667 553 691 c 128,-1,9
 505 715 505 715 442 715 c 0,10,11
 392 715 392 715 344 701.5 c 128,-1,12
 296 688 296 688 252.5 664 c 128,-1,13
 209 640 209 640 172.5 606 c 128,-1,14
 136 572 136 572 108 531 c 1,15,-1
 231 485 l 1,16,17
 244 510 244 510 264 530.5 c 128,-1,18
 284 551 284 551 308 565.5 c 128,-1,19
 332 580 332 580 359.5 588 c 128,-1,20
 387 596 387 596 414 596 c 0,21,22
 446 596 446 596 472.5 585 c 128,-1,23
 499 574 499 574 518 552.5 c 128,-1,24
 537 531 537 531 548 500.5 c 128,-1,25
 559 470 559 470 559 432 c 0,26,27
 559 424 559 424 558.5 416 c 128,-1,28
 558 408 558 408 557 400 c 1,29,-1
 46 400 l 1,30,31
 39 384 39 384 30.5 354.5 c 128,-1,32
 22 325 22 325 22 283 c 0,33,34
 22 227 22 227 39.5 175 c 128,-1,35
 57 123 57 123 91 83 c 128,-1,36
 125 43 125 43 174.5 19 c 128,-1,37
 224 -5 224 -5 288 -5 c 0,0,1
315 112 m 0,38,39
 278 112 278 112 249 122.5 c 128,-1,40
 220 133 220 133 199.5 152.5 c 128,-1,41
 179 172 179 172 168 198.5 c 128,-1,42
 157 225 157 225 157 256 c 0,43,44
 157 266 157 266 158 275.5 c 128,-1,45
 159 285 159 285 161 296 c 1,46,-1
 534 296 l 1,47,48
 522 255 522 255 499.5 221 c 128,-1,49
 477 187 477 187 448 163 c 128,-1,50
 419 139 419 139 385 125.5 c 128,-1,51
 351 112 351 112 315 112 c 0,38,39
EndSplineSet
EndChar

StartChar: florin
Encoding: 402 402 319
Width: 525
GlyphClass: 1
Flags: W
LayerCount: 2
Fore
SplineSet
51 -195 m 0,0,1
 87 -195 87 -195 121 -181.5 c 128,-1,2
 155 -168 155 -168 184 -144 c 128,-1,3
 213 -120 213 -120 233.5 -86 c 128,-1,4
 254 -52 254 -52 263 -12 c 2,5,-1
 343 364 l 1,6,-1
 464 364 l 1,7,-1
 486 463 l 1,8,-1
 364 463 l 1,9,-1
 379 533 l 2,10,11
 390 581 390 581 411.5 606 c 128,-1,12
 433 631 433 631 466 631 c 0,13,14
 483 631 483 631 501 626 c 128,-1,15
 519 621 519 621 531 612 c 1,16,-1
 577 709 l 1,17,18
 551 724 551 724 521 732 c 128,-1,19
 491 740 491 740 461 740 c 0,20,21
 423 740 423 740 389 725 c 128,-1,22
 355 710 355 710 327.5 683 c 128,-1,23
 300 656 300 656 280 616.5 c 128,-1,24
 260 577 260 577 249 529 c 2,25,-1
 236 463 l 1,26,-1
 170 463 l 1,27,-1
 150 364 l 1,28,-1
 214 364 l 1,29,-1
 134 -15 l 2,30,31
 131 -30 131 -30 123.5 -42.5 c 128,-1,32
 116 -55 116 -55 105.5 -64 c 128,-1,33
 95 -73 95 -73 83 -78 c 128,-1,34
 71 -83 71 -83 59 -83 c 0,35,36
 44 -83 44 -83 30 -78 c 128,-1,37
 16 -73 16 -73 8 -61 c 1,38,-1
 -66 -148 l 1,39,40
 -45 -172 -45 -172 -14.5 -183.5 c 128,-1,41
 16 -195 16 -195 51 -195 c 0,0,1
EndSplineSet
EndChar

StartChar: Aringacute
Encoding: 506 506 328
Width: 646
GlyphClass: 1
Flags: W
LayerCount: 2
Fore
SplineSet
-53 0 m 1,0,-1
 85 0 l 1,1,-1
 183 180 l 1,2,-1
 418 180 l 1,3,-1
 441 0 l 1,4,-1
 578 0 l 1,5,-1
 473 710 l 1,6,-1
 355 710 l 1,7,-1
 -53 0 l 1,0,-1
225 274 m 1,8,-1
 382 559 l 1,9,-1
 414 274 l 1,10,-1
 225 274 l 1,8,-1
613 964 m 1,11,-1
 486 964 l 1,12,-1
 398 812 l 1,13,-1
 470 812 l 1,14,-1
 613 964 l 1,11,-1
330 750 m 0,15,16
 330 721 330 721 351 705 c 128,-1,17
 372 689 372 689 408 689 c 0,18,19
 457 689 457 689 488 713 c 128,-1,20
 519 737 519 737 519 779 c 0,21,22
 519 809 519 809 498.5 825 c 128,-1,23
 478 841 478 841 441 841 c 0,24,25
 393 841 393 841 361.5 817 c 128,-1,26
 330 793 330 793 330 750 c 0,15,16
432 801 m 0,27,28
 446 801 446 801 455 793 c 128,-1,29
 464 785 464 785 464 771 c 0,30,31
 464 753 464 753 449 741 c 128,-1,32
 434 729 434 729 417 729 c 0,33,34
 403 729 403 729 394.5 737.5 c 128,-1,35
 386 746 386 746 386 759 c 0,36,37
 386 777 386 777 400 789 c 128,-1,38
 414 801 414 801 432 801 c 0,27,28
EndSplineSet
EndChar

StartChar: uni0237
Encoding: 567 567 370
Width: 250
GlyphClass: 1
Flags: W
LayerCount: 2
Fore
SplineSet
-90 -195 m 256,0,1
 -54 -195 -54 -195 -19 -181 c 128,-1,2
 16 -167 16 -167 45 -142 c 128,-1,3
 74 -117 74 -117 94.5 -82 c 128,-1,4
 115 -47 115 -47 124 -5 c 2,5,-1
 237 524 l 1,6,-1
 108 524 l 1,7,-1
 -7 -15 l 2,8,9
 -10 -30 -10 -30 -17.5 -42.5 c 128,-1,10
 -25 -55 -25 -55 -35 -64 c 128,-1,11
 -45 -73 -45 -73 -57 -78 c 128,-1,12
 -69 -83 -69 -83 -82 -83 c 0,13,14
 -97 -83 -97 -83 -110.5 -78 c 128,-1,15
 -124 -73 -124 -73 -133 -61 c 1,16,-1
 -207 -148 l 1,17,18
 -186 -172 -186 -172 -156 -183.5 c 128,-1,19
 -126 -195 -126 -195 -90 -195 c 256,0,1
EndSplineSet
EndChar

StartChar: uni0259
Encoding: 601 601 371
Width: 577
GlyphClass: 1
Flags: W
LayerCount: 2
Fore
SplineSet
219 -10 m 0,0,1
 290 -10 290 -10 349.5 17.5 c 128,-1,2
 409 45 409 45 452.5 90 c 128,-1,3
 496 135 496 135 520 193.5 c 128,-1,4
 544 252 544 252 544 315 c 0,5,6
 544 360 544 360 530.5 399.5 c 128,-1,7
 517 439 517 439 490 469 c 128,-1,8
 463 499 463 499 423.5 516 c 128,-1,9
 384 533 384 533 333 533 c 0,10,11
 292 533 292 533 253 523 c 128,-1,12
 214 513 214 513 180.5 494.5 c 128,-1,13
 147 476 147 476 119 451.5 c 128,-1,14
 91 427 91 427 72 397 c 1,15,-1
 175 366 l 1,16,17
 184 382 184 382 199.5 395.5 c 128,-1,18
 215 409 215 409 232.5 418.5 c 128,-1,19
 250 428 250 428 269.5 433 c 128,-1,20
 289 438 289 438 308 438 c 0,21,22
 330 438 330 438 348.5 431 c 128,-1,23
 367 424 367 424 381 409 c 128,-1,24
 395 394 395 394 402.5 374 c 128,-1,25
 410 354 410 354 410 328 c 0,26,27
 410 322 410 322 410 315.5 c 128,-1,28
 410 309 410 309 409 302 c 1,29,-1
 26 302 l 1,30,31
 16 279 16 279 11.5 250.5 c 128,-1,32
 7 222 7 222 7 197 c 0,33,34
 7 153 7 153 20.5 115 c 128,-1,35
 34 77 34 77 60.5 49.5 c 128,-1,36
 87 22 87 22 127 6 c 128,-1,37
 167 -10 167 -10 219 -10 c 0,0,1
240 84 m 0,38,39
 217 84 217 84 198 92 c 128,-1,40
 179 100 179 100 165.5 114.5 c 128,-1,41
 152 129 152 129 144.5 150 c 128,-1,42
 137 171 137 171 137 197 c 0,43,44
 137 203 137 203 137 209.5 c 128,-1,45
 137 216 137 216 139 222 c 1,46,-1
 395 222 l 1,47,48
 386 192 386 192 370.5 166 c 128,-1,49
 355 140 355 140 334.5 122 c 128,-1,50
 314 104 314 104 290 94 c 128,-1,51
 266 84 266 84 240 84 c 0,38,39
EndSplineSet
EndChar

StartChar: uni02BC
Encoding: 700 700 375
Width: 230
GlyphClass: 1
Flags: W
LayerCount: 2
Fore
SplineSet
315 730 m 1,0,-1
 188 730 l 1,1,-1
 100 570 l 1,2,-1
 172 570 l 1,3,-1
 315 730 l 1,0,-1
EndSplineSet
EndChar

StartChar: uni02BE
Encoding: 702 702 376
Width: 134
GlyphClass: 1
Flags: W
LayerCount: 2
Fore
SplineSet
92 567 m 1,0,1
 113 567 113 567 131.5 575 c 128,-1,2
 150 583 150 583 163.5 598 c 128,-1,3
 177 613 177 613 185 633.5 c 128,-1,4
 193 654 193 654 193 678 c 0,5,6
 193 709 193 709 179.5 728 c 128,-1,7
 166 747 166 747 140 747 c 1,8,-1
 127 700 l 1,9,10
 135 700 135 700 139 691.5 c 128,-1,11
 143 683 143 683 143 669 c 0,12,13
 143 645 143 645 130 629 c 128,-1,14
 117 613 117 613 104 613 c 1,15,-1
 92 567 l 1,0,1
EndSplineSet
EndChar

StartChar: uni02BF
Encoding: 703 703 377
Width: 133
GlyphClass: 1
Flags: W
LayerCount: 2
Fore
SplineSet
175 613 m 1,0,1
 167 613 167 613 163.5 622.5 c 128,-1,2
 160 632 160 632 160 645 c 0,3,4
 160 669 160 669 172 684.5 c 128,-1,5
 184 700 184 700 197 700 c 1,6,-1
 210 747 l 1,7,8
 189 747 189 747 170.5 738.5 c 128,-1,9
 152 730 152 730 138.5 715 c 128,-1,10
 125 700 125 700 117 679.5 c 128,-1,11
 109 659 109 659 109 635 c 0,12,13
 109 604 109 604 123 585.5 c 128,-1,14
 137 567 137 567 162 567 c 1,15,-1
 175 613 l 1,0,1
EndSplineSet
EndChar

StartChar: uni02C8
Encoding: 712 712 380
Width: 209
GlyphClass: 1
Flags: W
LayerCount: 2
Fore
SplineSet
109 775 m 1,0,-1
 109 380 l 1,1,-1
 219 380 l 1,2,-1
 219 775 l 1,3,-1
 109 775 l 1,0,-1
EndSplineSet
EndChar

StartChar: uni02C9
Encoding: 713 713 381
Width: 393
GlyphClass: 1
Flags: W
LayerCount: 2
Fore
SplineSet
411 635 m 1,0,-1
 430 715 l 1,1,-1
 158 715 l 1,2,-1
 139 635 l 1,3,-1
 411 635 l 1,0,-1
EndSplineSet
EndChar

StartChar: uni02CB
Encoding: 715 715 382
Width: 226
GlyphClass: 1
Flags: W
LayerCount: 2
Fore
SplineSet
204 499 m 1,0,-1
 263 723 l 1,1,-1
 159 723 l 1,2,-1
 127 499 l 1,3,-1
 204 499 l 1,0,-1
EndSplineSet
EndChar

StartChar: uni02CC
Encoding: 716 716 383
Width: 210
GlyphClass: 1
Flags: W
LayerCount: 2
Fore
SplineSet
1 265 m 1,0,-1
 1 -130 l 1,1,-1
 111 -130 l 1,2,-1
 111 265 l 1,3,-1
 1 265 l 1,0,-1
EndSplineSet
EndChar

StartChar: hungarumlaut
Encoding: 733 733 389
Width: 362
GlyphClass: 1
Flags: W
LayerCount: 2
Fore
SplineSet
448 730 m 1,0,-1
 327 730 l 1,1,-1
 229 576 l 1,2,-1
 295 576 l 1,3,-1
 448 730 l 1,0,-1
290 730 m 1,4,-1
 169 730 l 1,5,-1
 71 576 l 1,6,-1
 137 576 l 1,7,-1
 290 730 l 1,4,-1
EndSplineSet
EndChar

StartChar: gravecomb
Encoding: 768 768 390
Width: 253
GlyphClass: 1
Flags: W
LayerCount: 2
Fore
SplineSet
76 760 m 1,0,-1
 185 600 l 1,1,-1
 251 600 l 1,2,-1
 197 760 l 1,3,-1
 76 760 l 1,0,-1
EndSplineSet
EndChar

StartChar: acutecomb
Encoding: 769 769 391
Width: 253
GlyphClass: 1
Flags: W
LayerCount: 2
Fore
SplineSet
275 760 m 1,0,-1
 147 760 l 1,1,-1
 59 600 l 1,2,-1
 132 600 l 1,3,-1
 275 760 l 1,0,-1
EndSplineSet
EndChar

StartChar: uni0302
Encoding: 770 770 392
Width: 366
GlyphClass: 1
Flags: W
LayerCount: 2
Fore
SplineSet
68 600 m 1,0,-1
 134 600 l 1,1,-1
 243 686 l 1,2,-1
 314 600 l 1,3,-1
 380 600 l 1,4,-1
 316 748 l 1,5,-1
 195 748 l 1,6,-1
 68 600 l 1,0,-1
EndSplineSet
EndChar

StartChar: tildecomb
Encoding: 771 771 393
Width: 459
GlyphClass: 1
Flags: W
LayerCount: 2
Fore
SplineSet
365 617 m 0,0,1
 398 617 398 617 424 634 c 128,-1,2
 450 651 450 651 468 673 c 128,-1,3
 486 695 486 695 496.5 715 c 128,-1,4
 507 735 507 735 508 742 c 1,5,-1
 438 742 l 1,6,7
 438 741 438 741 434.5 733 c 128,-1,8
 431 725 431 725 423.5 716 c 128,-1,9
 416 707 416 707 404.5 699.5 c 128,-1,10
 393 692 393 692 376 692 c 256,11,12
 359 692 359 692 347 699 c 128,-1,13
 335 706 335 706 323 715 c 128,-1,14
 311 724 311 724 297 731 c 128,-1,15
 283 738 283 738 261 738 c 0,16,17
 230 738 230 738 205 722 c 128,-1,18
 180 706 180 706 162 685 c 128,-1,19
 144 664 144 664 134.5 643 c 128,-1,20
 125 622 125 622 123 613 c 1,21,-1
 194 613 l 1,22,23
 194 615 194 615 196.5 622.5 c 128,-1,24
 199 630 199 630 205.5 638.5 c 128,-1,25
 212 647 212 647 222.5 654 c 128,-1,26
 233 661 233 661 249 661 c 0,27,28
 264 661 264 661 276.5 654.5 c 128,-1,29
 289 648 289 648 301 639.5 c 128,-1,30
 313 631 313 631 328 624 c 128,-1,31
 343 617 343 617 365 617 c 0,0,1
EndSplineSet
EndChar

StartChar: uni0304
Encoding: 772 772 394
Width: 386
GlyphClass: 1
Flags: W
LayerCount: 2
Fore
SplineSet
414 634 m 1,0,-1
 432 714 l 1,1,-1
 146 714 l 1,2,-1
 129 634 l 1,3,-1
 414 634 l 1,0,-1
EndSplineSet
EndChar

StartChar: uni0306
Encoding: 774 774 395
Width: 351
GlyphClass: 1
Flags: W
LayerCount: 2
Fore
SplineSet
260 657 m 0,0,1
 240 657 240 657 228.5 672.5 c 128,-1,2
 217 688 217 688 217 711 c 0,3,4
 217 716 217 716 217.5 720.5 c 128,-1,5
 218 725 218 725 219 730 c 1,6,-1
 150 730 l 1,7,8
 148 721 148 721 147 713.5 c 128,-1,9
 146 706 146 706 146 698 c 0,10,11
 146 653 146 653 173 626 c 128,-1,12
 200 599 200 599 248 599 c 0,13,14
 275 599 275 599 300 608.5 c 128,-1,15
 325 618 325 618 345.5 636 c 128,-1,16
 366 654 366 654 380.5 677.5 c 128,-1,17
 395 701 395 701 400 730 c 1,18,-1
 331 730 l 1,19,20
 321 699 321 699 301 678 c 128,-1,21
 281 657 281 657 260 657 c 0,0,1
EndSplineSet
EndChar

StartChar: uni0307
Encoding: 775 775 396
Width: 216
GlyphClass: 1
Flags: W
LayerCount: 2
Fore
SplineSet
99 668 m 0,0,1
 93 639 93 639 109.5 618 c 128,-1,2
 126 597 126 597 155 597 c 0,3,4
 171 597 171 597 185 603 c 128,-1,5
 199 609 199 609 210.5 618.5 c 128,-1,6
 222 628 222 628 230.5 641 c 128,-1,7
 239 654 239 654 242 668 c 0,8,9
 248 698 248 698 231.5 719 c 128,-1,10
 215 740 215 740 186 740 c 0,11,12
 171 740 171 740 157 734 c 128,-1,13
 143 728 143 728 131 718.5 c 128,-1,14
 119 709 119 709 111 696.5 c 128,-1,15
 103 684 103 684 99 668 c 0,0,1
EndSplineSet
EndChar

StartChar: uni0308
Encoding: 776 776 397
Width: 447
GlyphClass: 1
Flags: W
LayerCount: 2
Fore
SplineSet
161 594 m 0,0,1
 176 594 176 594 190 599.5 c 128,-1,2
 204 605 204 605 216 614.5 c 128,-1,3
 228 624 228 624 236.5 637 c 128,-1,4
 245 650 245 650 247 665 c 0,5,6
 254 694 254 694 237.5 715 c 128,-1,7
 221 736 221 736 191 736 c 0,8,9
 177 736 177 736 162.5 730.5 c 128,-1,10
 148 725 148 725 136.5 715.5 c 128,-1,11
 125 706 125 706 116.5 693 c 128,-1,12
 108 680 108 680 105 665 c 0,13,14
 99 635 99 635 115.5 614.5 c 128,-1,15
 132 594 132 594 161 594 c 0,0,1
382 594 m 0,16,17
 397 594 397 594 411 599.5 c 128,-1,18
 425 605 425 605 437 614.5 c 128,-1,19
 449 624 449 624 457.5 637 c 128,-1,20
 466 650 466 650 468 665 c 0,21,22
 475 694 475 694 458.5 715 c 128,-1,23
 442 736 442 736 412 736 c 0,24,25
 398 736 398 736 383.5 730.5 c 128,-1,26
 369 725 369 725 357.5 715.5 c 128,-1,27
 346 706 346 706 337.5 693 c 128,-1,28
 329 680 329 680 326 665 c 0,29,30
 320 635 320 635 336.5 614.5 c 128,-1,31
 353 594 353 594 382 594 c 0,16,17
EndSplineSet
EndChar

StartChar: hookabovecomb
Encoding: 777 777 398
Width: 276
GlyphClass: 1
Flags: W
LayerCount: 2
Fore
SplineSet
173 688 m 1,0,1
 193 701 193 701 205 706.5 c 128,-1,2
 217 712 217 712 230 712 c 256,3,4
 243 712 243 712 248 704 c 128,-1,5
 253 696 253 696 248 684 c 0,6,7
 243 671 243 671 231 659.5 c 128,-1,8
 219 648 219 648 196 634 c 1,9,-1
 215 598 l 1,10,11
 259 625 259 625 283.5 648.5 c 128,-1,12
 308 672 308 672 318 700 c 0,13,14
 329 730 329 730 316.5 751.5 c 128,-1,15
 304 773 304 773 265 773 c 0,16,17
 238 773 238 773 209.5 762 c 128,-1,18
 181 751 181 751 149 728 c 1,19,-1
 173 688 l 1,0,1
EndSplineSet
EndChar

StartChar: uni030A
Encoding: 778 778 399
Width: 288
GlyphClass: 1
Flags: W
LayerCount: 2
Fore
SplineSet
132 639 m 0,0,1
 132 610 132 610 153.5 594 c 128,-1,2
 175 578 175 578 211 578 c 0,3,4
 260 578 260 578 291 602 c 128,-1,5
 322 626 322 626 322 668 c 0,6,7
 322 698 322 698 301.5 714 c 128,-1,8
 281 730 281 730 244 730 c 0,9,10
 196 730 196 730 164 706 c 128,-1,11
 132 682 132 682 132 639 c 0,0,1
235 690 m 0,12,13
 249 690 249 690 258 682 c 128,-1,14
 267 674 267 674 267 660 c 0,15,16
 267 642 267 642 252 630 c 128,-1,17
 237 618 237 618 220 618 c 0,18,19
 206 618 206 618 197.5 626.5 c 128,-1,20
 189 635 189 635 189 648 c 0,21,22
 189 666 189 666 202.5 678 c 128,-1,23
 216 690 216 690 235 690 c 0,12,13
EndSplineSet
EndChar

StartChar: uni030B
Encoding: 779 779 400
Width: 362
GlyphClass: 1
Flags: W
LayerCount: 2
Fore
SplineSet
492 760 m 1,0,-1
 365 760 l 1,1,-1
 260 600 l 1,2,-1
 332 600 l 1,3,-1
 492 760 l 1,0,-1
303 760 m 1,4,-1
 175 760 l 1,5,-1
 70 600 l 1,6,-1
 143 600 l 1,7,-1
 303 760 l 1,4,-1
EndSplineSet
EndChar

StartChar: uni030C
Encoding: 780 780 401
Width: 366
GlyphClass: 1
Flags: W
LayerCount: 2
Fore
SplineSet
100 748 m 1,0,-1
 163 600 l 1,1,-1
 285 600 l 1,2,-1
 411 748 l 1,3,-1
 346 748 l 1,4,-1
 238 662 l 1,5,-1
 165 748 l 1,6,-1
 100 748 l 1,0,-1
EndSplineSet
EndChar

StartChar: uni030F
Encoding: 783 783 402
Width: 362
GlyphClass: 1
Flags: W
LayerCount: 2
Fore
SplineSet
223 760 m 1,0,-1
 315 600 l 1,1,-1
 381 600 l 1,2,-1
 344 760 l 1,3,-1
 223 760 l 1,0,-1
35 760 m 1,4,-1
 127 600 l 1,5,-1
 192 600 l 1,6,-1
 155 760 l 1,7,-1
 35 760 l 1,4,-1
EndSplineSet
EndChar

StartChar: uni0311
Encoding: 785 785 403
Width: 350
GlyphClass: 1
Flags: W
LayerCount: 2
Fore
SplineSet
122 599 m 1,0,-1
 190 599 l 1,1,2
 198 635 198 635 216 653.5 c 128,-1,3
 234 672 234 672 263 672 c 0,4,5
 285 672 285 672 295.5 661 c 128,-1,6
 306 650 306 650 306 626 c 0,7,8
 306 620 306 620 305.5 613 c 128,-1,9
 305 606 305 606 303 599 c 1,10,-1
 372 599 l 1,11,12
 374 606 374 606 374.5 613.5 c 128,-1,13
 375 621 375 621 375 628 c 0,14,15
 375 671 375 671 348 700.5 c 128,-1,16
 321 730 321 730 274 730 c 0,17,18
 247 730 247 730 222 720 c 128,-1,19
 197 710 197 710 176.5 692.5 c 128,-1,20
 156 675 156 675 142 651 c 128,-1,21
 128 627 128 627 122 599 c 1,0,-1
EndSplineSet
EndChar

StartChar: uni0312
Encoding: 786 786 404
Width: 197
GlyphClass: 1
Flags: W
LayerCount: 2
Fore
SplineSet
64 583 m 1,0,-1
 185 583 l 1,1,-1
 283 736 l 1,2,-1
 218 736 l 1,3,-1
 64 583 l 1,0,-1
EndSplineSet
EndChar

StartChar: uni031B
Encoding: 795 795 405
Width: 298
GlyphClass: 1
Flags: W
LayerCount: 2
Fore
SplineSet
97 484 m 1,0,1
 122 484 122 484 146.5 487.5 c 128,-1,2
 171 491 171 491 193.5 497.5 c 128,-1,3
 216 504 216 504 234.5 513 c 128,-1,4
 253 522 253 522 266 534 c 0,5,6
 283 548 283 548 294 563.5 c 128,-1,7
 305 579 305 579 312 595.5 c 128,-1,8
 319 612 319 612 324 628.5 c 128,-1,9
 329 645 329 645 333 661 c 1,10,-1
 238 661 l 1,11,12
 233 641 233 641 228 625.5 c 128,-1,13
 223 610 223 610 209 596 c 0,14,15
 195 584 195 584 173 578.5 c 128,-1,16
 151 573 151 573 116 573 c 1,17,-1
 97 484 l 1,0,1
EndSplineSet
EndChar

StartChar: dotbelowcomb
Encoding: 803 803 406
Width: 216
GlyphClass: 1
Flags: W
LayerCount: 2
Fore
SplineSet
-61 -138 m 0,0,1
 -67 -167 -67 -167 -51 -188 c 128,-1,2
 -35 -209 -35 -209 -5 -209 c 0,3,4
 10 -209 10 -209 24 -203 c 128,-1,5
 38 -197 38 -197 50 -187.5 c 128,-1,6
 62 -178 62 -178 70 -165.5 c 128,-1,7
 78 -153 78 -153 81 -138 c 0,8,9
 87 -108 87 -108 71 -87 c 128,-1,10
 55 -66 55 -66 25 -66 c 0,11,12
 10 -66 10 -66 -4 -72 c 128,-1,13
 -18 -78 -18 -78 -29.5 -87.5 c 128,-1,14
 -41 -97 -41 -97 -49.5 -110 c 128,-1,15
 -58 -123 -58 -123 -61 -138 c 0,0,1
EndSplineSet
EndChar

StartChar: uni0324
Encoding: 804 804 407
Width: 447
GlyphClass: 1
Flags: W
LayerCount: 2
Fore
SplineSet
75 -210 m 0,0,1
 90 -210 90 -210 104 -204.5 c 128,-1,2
 118 -199 118 -199 130 -189.5 c 128,-1,3
 142 -180 142 -180 150.5 -167 c 128,-1,4
 159 -154 159 -154 161 -139 c 0,5,6
 168 -110 168 -110 151.5 -89 c 128,-1,7
 135 -68 135 -68 105 -68 c 0,8,9
 91 -68 91 -68 76.5 -73.5 c 128,-1,10
 62 -79 62 -79 50.5 -88.5 c 128,-1,11
 39 -98 39 -98 30.5 -111 c 128,-1,12
 22 -124 22 -124 19 -139 c 0,13,14
 13 -169 13 -169 29.5 -189.5 c 128,-1,15
 46 -210 46 -210 75 -210 c 0,0,1
296 -210 m 0,16,17
 311 -210 311 -210 325 -204.5 c 128,-1,18
 339 -199 339 -199 351 -189.5 c 128,-1,19
 363 -180 363 -180 371.5 -167 c 128,-1,20
 380 -154 380 -154 382 -139 c 0,21,22
 389 -110 389 -110 372.5 -89 c 128,-1,23
 356 -68 356 -68 326 -68 c 0,24,25
 312 -68 312 -68 297.5 -73.5 c 128,-1,26
 283 -79 283 -79 271.5 -88.5 c 128,-1,27
 260 -98 260 -98 251.5 -111 c 128,-1,28
 243 -124 243 -124 240 -139 c 0,29,30
 234 -169 234 -169 250.5 -189.5 c 128,-1,31
 267 -210 267 -210 296 -210 c 0,16,17
EndSplineSet
EndChar

StartChar: uni0326
Encoding: 806 806 408
Width: 197
GlyphClass: 1
Flags: W
LayerCount: 2
Fore
SplineSet
21 -261 m 1,0,-1
 156 -47 l 1,1,-1
 43 -47 l 1,2,-1
 -37 -261 l 1,3,-1
 21 -261 l 1,0,-1
EndSplineSet
EndChar

StartChar: uni0327
Encoding: 807 807 409
Width: 310
GlyphClass: 1
Flags: W
LayerCount: 2
Fore
SplineSet
-43 -179 m 1,0,1
 -20 -190 -20 -190 4 -194.5 c 128,-1,2
 28 -199 28 -199 54 -199 c 0,3,4
 77 -199 77 -199 102.5 -194 c 128,-1,5
 128 -189 128 -189 149 -177.5 c 128,-1,6
 170 -166 170 -166 183.5 -146.5 c 128,-1,7
 197 -127 197 -127 197 -99 c 0,8,9
 197 -68 197 -68 176.5 -55.5 c 128,-1,10
 156 -43 156 -43 129 -43 c 0,11,12
 120 -43 120 -43 112.5 -43.5 c 128,-1,13
 105 -44 105 -44 98 -47 c 1,14,-1
 143 7 l 1,15,-1
 95 23 l 1,16,-1
 13 -95 l 1,17,18
 32 -90 32 -90 51.5 -87 c 128,-1,19
 71 -84 71 -84 91 -84 c 0,20,21
 98 -84 98 -84 106 -85 c 128,-1,22
 114 -86 114 -86 120.5 -88.5 c 128,-1,23
 127 -91 127 -91 131 -96.5 c 128,-1,24
 135 -102 135 -102 135 -111 c 0,25,26
 135 -123 135 -123 129 -131 c 128,-1,27
 123 -139 123 -139 114 -143 c 128,-1,28
 105 -147 105 -147 94 -148.5 c 128,-1,29
 83 -150 83 -150 73 -150 c 0,30,31
 64 -150 64 -150 53.5 -149 c 128,-1,32
 43 -148 43 -148 31.5 -145.5 c 128,-1,33
 20 -143 20 -143 10 -139.5 c 128,-1,34
 0 -136 0 -136 -7 -131 c 1,35,36
 -17 -143 -17 -143 -25.5 -154.5 c 128,-1,37
 -34 -166 -34 -166 -43 -179 c 1,0,1
EndSplineSet
EndChar

StartChar: uni0328
Encoding: 808 808 410
Width: 237
GlyphClass: 1
Flags: W
LayerCount: 2
Fore
SplineSet
-30 -124 m 0,0,1
 -30 -150 -30 -150 -9.5 -171.5 c 128,-1,2
 11 -193 11 -193 57 -199 c 1,3,-1
 99 -125 l 1,4,5
 77 -124 77 -124 65.5 -116.5 c 128,-1,6
 54 -109 54 -109 54 -95 c 0,7,8
 54 -75 54 -75 73.5 -52.5 c 128,-1,9
 93 -30 93 -30 132 0 c 1,10,-1
 126 21 l 1,11,-1
 85 21 l 1,12,13
 27 -14 27 -14 -1.5 -51 c 128,-1,14
 -30 -88 -30 -88 -30 -124 c 0,0,1
EndSplineSet
EndChar

StartChar: uni032E
Encoding: 814 814 411
Width: 300
GlyphClass: 1
Flags: W
LayerCount: 2
Fore
SplineSet
51 -185 m 0,0,1
 77 -185 77 -185 100.5 -175 c 128,-1,2
 124 -165 124 -165 143.5 -147.5 c 128,-1,3
 163 -130 163 -130 177.5 -106 c 128,-1,4
 192 -82 192 -82 199 -53 c 1,5,-1
 133 -53 l 1,6,7
 122 -85 122 -85 103 -106 c 128,-1,8
 84 -127 84 -127 66 -127 c 0,9,10
 45 -127 45 -127 35.5 -105 c 128,-1,11
 26 -83 26 -83 34 -53 c 1,12,-1
 -33 -53 l 1,13,14
 -47 -111 -47 -111 -23.5 -148 c 128,-1,15
 0 -185 0 -185 51 -185 c 0,0,1
EndSplineSet
EndChar

StartChar: uni0331
Encoding: 817 817 412
Width: 374
GlyphClass: 1
Flags: W
LayerCount: 2
Fore
SplineSet
232 -161 m 1,0,-1
 251 -81 l 1,1,-1
 -21 -81 l 1,2,-1
 -40 -161 l 1,3,-1
 232 -161 l 1,0,-1
EndSplineSet
EndChar

StartChar: uni0335
Encoding: 821 821 413
Width: 363
GlyphClass: 1
Flags: W
LayerCount: 2
Fore
SplineSet
309 254 m 1,0,-1
 328 331 l 1,1,-1
 66 331 l 1,2,-1
 48 254 l 1,3,-1
 309 254 l 1,0,-1
EndSplineSet
EndChar

StartChar: tonos
Encoding: 900 900 415
Width: 204
GlyphClass: 1
Flags: W
LayerCount: 2
Fore
SplineSet
193 819 m 1,0,-1
 114 580 l 1,1,-1
 184 569 l 1,2,-1
 285 799 l 1,3,-1
 193 819 l 1,0,-1
EndSplineSet
EndChar

StartChar: dieresistonos
Encoding: 901 901 416
Width: 516
GlyphClass: 1
Flags: W
LayerCount: 2
Fore
SplineSet
120 664 m 0,0,1
 111 629 111 629 129.5 603 c 128,-1,2
 148 577 148 577 183 577 c 0,3,4
 213 577 213 577 236 595.5 c 128,-1,5
 259 614 259 614 265 642 c 0,6,7
 274 679 274 679 256.5 703.5 c 128,-1,8
 239 728 239 728 204 728 c 0,9,10
 174 728 174 728 150.5 711 c 128,-1,11
 127 694 127 694 120 664 c 0,0,1
429 664 m 0,12,13
 421 629 421 629 439.5 603 c 128,-1,14
 458 577 458 577 492 577 c 0,15,16
 522 577 522 577 545.5 595.5 c 128,-1,17
 569 614 569 614 575 642 c 0,18,19
 584 679 584 679 565.5 703.5 c 128,-1,20
 547 728 547 728 513 728 c 0,21,22
 483 728 483 728 459 711 c 128,-1,23
 435 694 435 694 429 664 c 0,12,13
363 827 m 1,24,-1
 284 588 l 1,25,-1
 354 577 l 1,26,-1
 455 807 l 1,27,-1
 363 827 l 1,24,-1
EndSplineSet
EndChar

StartChar: Gamma
Encoding: 915 915 428
Width: 493
GlyphClass: 1
Flags: W
LayerCount: 2
Fore
SplineSet
148 714 m 1,0,-1
 619 714 l 1,1,-1
 589 599 l 1,2,-1
 248 599 l 1,3,-1
 91 10 l 1,4,-1
 -40 10 l 1,5,-1
 148 714 l 1,0,-1
EndSplineSet
EndChar

StartChar: uni0394
Encoding: 916 916 429
Width: 658
GlyphClass: 1
Flags: W
LayerCount: 2
Fore
SplineSet
-49 0 m 1,0,-1
 589 0 l 1,1,-1
 592 22 l 1,2,-1
 513 714 l 1,3,-1
 348 714 l 1,4,-1
 -45 22 l 1,5,-1
 -49 0 l 1,0,-1
128 108 m 1,6,-1
 289 381 l 1,7,-1
 407 604 l 1,8,-1
 410 604 l 1,9,-1
 429 381 l 1,10,-1
 459 108 l 1,11,-1
 128 108 l 1,6,-1
EndSplineSet
EndChar

StartChar: Eta
Encoding: 919 919 432
Width: 717
GlyphClass: 1
Flags: W
LayerCount: 2
Fore
SplineSet
-29 0 m 1,0,-1
 102 0 l 1,1,-1
 166 302 l 1,2,-1
 467 302 l 1,3,-1
 403 0 l 1,4,-1
 534 0 l 1,5,-1
 684 704 l 1,6,-1
 553 704 l 1,7,-1
 492 418 l 1,8,-1
 191 418 l 1,9,-1
 252 704 l 1,10,-1
 121 704 l 1,11,-1
 -29 0 l 1,0,-1
EndSplineSet
EndChar

StartChar: Theta
Encoding: 920 920 433
Width: 728
GlyphClass: 1
Flags: W
LayerCount: 2
Fore
SplineSet
215 299 m 1,0,-1
 505 299 l 1,1,-1
 531 418 l 1,2,-1
 242 418 l 1,3,-1
 215 299 l 1,0,-1
296 -5 m 0,4,5
 376 -5 376 -5 450.5 30.5 c 128,-1,6
 525 66 525 66 582 125 c 128,-1,7
 639 184 639 184 673 259.5 c 128,-1,8
 707 335 707 335 707 415 c 0,9,10
 707 472 707 472 690 524.5 c 128,-1,11
 673 577 673 577 640.5 618.5 c 128,-1,12
 608 660 608 660 560 684.5 c 128,-1,13
 512 709 512 709 450 709 c 0,14,15
 370 709 370 709 295 673 c 128,-1,16
 220 637 220 637 162.5 578 c 128,-1,17
 105 519 105 519 71.5 443 c 128,-1,18
 38 367 38 367 38 288 c 0,19,20
 38 230 38 230 55 177 c 128,-1,21
 72 124 72 124 104.5 83.5 c 128,-1,22
 137 43 137 43 185.5 19 c 128,-1,23
 234 -5 234 -5 296 -5 c 0,4,5
321 111 m 0,24,25
 284 111 284 111 255.5 126.5 c 128,-1,26
 227 142 227 142 208.5 167.5 c 128,-1,27
 190 193 190 193 180.5 227 c 128,-1,28
 171 261 171 261 171 298 c 0,29,30
 171 349 171 349 190 401 c 128,-1,31
 209 453 209 453 242 495.5 c 128,-1,32
 275 538 275 538 321.5 564.5 c 128,-1,33
 368 591 368 591 423 591 c 0,34,35
 460 591 460 591 488 576 c 128,-1,36
 516 561 516 561 535 536 c 128,-1,37
 554 511 554 511 563.5 477 c 128,-1,38
 573 443 573 443 573 406 c 0,39,40
 573 355 573 355 554.5 303 c 128,-1,41
 536 251 536 251 503 208.5 c 128,-1,42
 470 166 470 166 423.5 138.5 c 128,-1,43
 377 111 377 111 321 111 c 0,24,25
EndSplineSet
EndChar

StartChar: Lambda
Encoding: 923 923 436
Width: 684
GlyphClass: 1
Flags: W
LayerCount: 2
Fore
SplineSet
-46 0 m 1,0,-1
 89 0 l 1,1,-1
 300 377 l 1,2,-1
 419 594 l 1,3,-1
 423 594 l 1,4,-1
 445 376 l 1,5,-1
 482 0 l 1,6,-1
 612 0 l 1,7,-1
 530 714 l 1,8,-1
 362 714 l 1,9,-1
 -46 0 l 1,0,-1
EndSplineSet
EndChar

StartChar: Xi
Encoding: 926 926 439
Width: 652
GlyphClass: 1
Flags: W
LayerCount: 2
Fore
SplineSet
7 0 m 1,0,-1
 527 0 l 1,1,-1
 552 108 l 1,2,-1
 32 108 l 1,3,-1
 7 0 l 1,0,-1
147 303 m 1,4,-1
 523 303 l 1,5,-1
 548 410 l 1,6,-1
 172 410 l 1,7,-1
 147 303 l 1,4,-1
145 604 m 1,8,-1
 665 604 l 1,9,-1
 689 713 l 1,10,-1
 168 713 l 1,11,-1
 145 604 l 1,8,-1
EndSplineSet
EndChar

StartChar: Pi
Encoding: 928 928 441
Width: 665
GlyphClass: 1
Flags: W
LayerCount: 2
Fore
SplineSet
17 0 m 1,0,-1
 145 0 l 1,1,-1
 283 604 l 1,2,-1
 540 604 l 1,3,-1
 402 0 l 1,4,-1
 530 0 l 1,5,-1
 692 713 l 1,6,-1
 179 713 l 1,7,-1
 17 0 l 1,0,-1
EndSplineSet
EndChar

StartChar: Sigma
Encoding: 931 931 443
Width: 569
GlyphClass: 1
Flags: W
LayerCount: 2
Fore
SplineSet
-9 0 m 1,0,-1
 465 0 l 1,1,-1
 490 108 l 1,2,-1
 193 108 l 1,3,-1
 443 364 l 1,4,-1
 305 604 l 1,5,-1
 581 604 l 1,6,-1
 605 713 l 1,7,-1
 155 713 l 1,8,-1
 140 635 l 1,9,-1
 305 361 l 1,10,-1
 7 77 l 1,11,-1
 -9 0 l 1,0,-1
EndSplineSet
EndChar

StartChar: Upsilon
Encoding: 933 933 445
Width: 640
GlyphClass: 1
Flags: W
LayerCount: 2
Fore
SplineSet
196 0 m 1,0,-1
 325 0 l 1,1,-1
 378 228 l 2,2,3
 393 297 393 297 427 355 c 128,-1,4
 461 413 461 413 505.5 463.5 c 128,-1,5
 550 514 550 514 600.5 558.5 c 128,-1,6
 651 603 651 603 700 644 c 1,7,-1
 617 723 l 1,8,9
 565 681 565 681 525.5 646.5 c 128,-1,10
 486 612 486 612 456 579 c 128,-1,11
 426 546 426 546 403 512.5 c 128,-1,12
 380 479 380 479 361 439 c 2,13,-1
 354 427 l 1,14,15
 353 467 353 467 345.5 501.5 c 128,-1,16
 338 536 338 536 323 569 c 128,-1,17
 308 602 308 602 284.5 637 c 128,-1,18
 261 672 261 672 226 714 c 1,19,-1
 120 652 l 1,20,21
 150 613 150 613 180.5 570 c 128,-1,22
 211 527 211 527 232 477.5 c 128,-1,23
 253 428 253 428 260 369.5 c 128,-1,24
 267 311 267 311 251 241 c 2,25,-1
 196 0 l 1,0,-1
EndSplineSet
EndChar

StartChar: Phi
Encoding: 934 934 446
Width: 753
GlyphClass: 1
Flags: W
LayerCount: 2
Fore
SplineSet
332 179 m 1,0,1
 291 179 291 179 259.5 191.5 c 128,-1,2
 228 204 228 204 208.5 226 c 128,-1,3
 189 248 189 248 182 278.5 c 128,-1,4
 175 309 175 309 184 346 c 0,5,6
 193 388 193 388 216 423 c 128,-1,7
 239 458 239 458 270.5 483.5 c 128,-1,8
 302 509 302 509 340.5 523 c 128,-1,9
 379 537 379 537 420 537 c 1,10,-1
 438 643 l 1,11,12
 369 643 369 643 307.5 623 c 128,-1,13
 246 603 246 603 198 567 c 128,-1,14
 150 531 150 531 116.5 480.5 c 128,-1,15
 83 430 83 430 69 369 c 0,16,17
 54 303 54 303 65 249 c 128,-1,18
 76 195 76 195 108.5 155.5 c 128,-1,19
 141 116 141 116 193.5 94.5 c 128,-1,20
 246 73 246 73 315 73 c 1,21,-1
 332 179 l 1,0,1
371 -32 m 1,22,-1
 547 745 l 1,23,-1
 427 745 l 1,24,-1
 251 -32 l 1,25,-1
 371 -32 l 1,22,-1
365 73 m 1,26,27
 434 73 434 73 494.5 93 c 128,-1,28
 555 113 555 113 602.5 149 c 128,-1,29
 650 185 650 185 683 235.5 c 128,-1,30
 716 286 716 286 730 346 c 0,31,32
 745 412 745 412 735 466.5 c 128,-1,33
 725 521 725 521 692.5 560 c 128,-1,34
 660 599 660 599 608.5 621 c 128,-1,35
 557 643 557 643 488 643 c 1,36,-1
 470 537 l 1,37,38
 511 537 511 537 542 525 c 128,-1,39
 573 513 573 513 592 491 c 128,-1,40
 611 469 611 469 617.5 438 c 128,-1,41
 624 407 624 407 615 369 c 0,42,43
 606 328 606 328 584 293.5 c 128,-1,44
 562 259 562 259 531 233.5 c 128,-1,45
 500 208 500 208 461.5 193.5 c 128,-1,46
 423 179 423 179 382 179 c 1,47,-1
 365 73 l 1,26,27
EndSplineSet
EndChar

StartChar: Psi
Encoding: 936 936 448
Width: 789
GlyphClass: 1
Flags: W
LayerCount: 2
Fore
SplineSet
276 0 m 1,0,-1
 396 0 l 1,1,-1
 559 714 l 1,2,-1
 438 714 l 1,3,-1
 276 0 l 1,0,-1
120 448 m 2,4,5
 107 391 107 391 112 342 c 128,-1,6
 117 293 117 293 143 256.5 c 128,-1,7
 169 220 169 220 218.5 199 c 128,-1,8
 268 178 268 178 344 177 c 1,9,-1
 354 278 l 1,10,11
 310 278 310 278 283 289 c 128,-1,12
 256 300 256 300 243 319.5 c 128,-1,13
 230 339 230 339 228.5 365 c 128,-1,14
 227 391 227 391 233 421 c 0,15,16
 238 438 238 438 242.5 457 c 128,-1,17
 247 476 247 476 252 496 c 128,-1,18
 257 516 257 516 262 536 c 128,-1,19
 267 556 267 556 270 573 c 0,20,21
 280 614 280 614 286 650 c 128,-1,22
 292 686 292 686 287 708 c 1,23,-1
 171 720 l 1,24,25
 171 697 171 697 168 674.5 c 128,-1,26
 165 652 165 652 161.5 632 c 128,-1,27
 158 612 158 612 154 594 c 128,-1,28
 150 576 150 576 146 561 c 2,29,-1
 120 448 l 2,4,5
775 549 m 2,30,31
 779 567 779 567 784 584.5 c 128,-1,32
 789 602 789 602 794.5 622 c 128,-1,33
 800 642 800 642 808 663.5 c 128,-1,34
 816 685 816 685 826 708 c 1,35,-1
 703 720 l 1,36,37
 697 710 697 710 691.5 695 c 128,-1,38
 686 680 686 680 681 663 c 128,-1,39
 676 646 676 646 672.5 629 c 128,-1,40
 669 612 669 612 666 596 c 0,41,42
 661 574 661 574 656.5 552.5 c 128,-1,43
 652 531 652 531 648 511 c 128,-1,44
 644 491 644 491 640.5 474 c 128,-1,45
 637 457 637 457 634 444 c 0,46,47
 626 411 626 411 610.5 380.5 c 128,-1,48
 595 350 595 350 571 327.5 c 128,-1,49
 547 305 547 305 514 291.5 c 128,-1,50
 481 278 481 278 438 278 c 1,51,-1
 415 177 l 1,52,53
 491 178 491 178 548.5 197.5 c 128,-1,54
 606 217 606 217 646 251.5 c 128,-1,55
 686 286 686 286 711.5 333 c 128,-1,56
 737 380 737 380 749 435 c 2,57,-1
 775 549 l 2,30,31
EndSplineSet
EndChar

StartChar: uni03A9
Encoding: 937 937 449
Width: 718
GlyphClass: 1
Flags: W
LayerCount: 2
Fore
SplineSet
-20 0 m 1,0,-1
 259 0 l 1,1,-1
 306 211 l 1,2,3
 275 221 275 221 253 239.5 c 128,-1,4
 231 258 231 258 219 283.5 c 128,-1,5
 207 309 207 309 204.5 339.5 c 128,-1,6
 202 370 202 370 210 405 c 0,7,8
 219 447 219 447 240.5 483 c 128,-1,9
 262 519 262 519 292 546 c 128,-1,10
 322 573 322 573 359 588 c 128,-1,11
 396 603 396 603 437 603 c 0,12,13
 476 603 476 603 506 589 c 128,-1,14
 536 575 536 575 555 550.5 c 128,-1,15
 574 526 574 526 581 492.5 c 128,-1,16
 588 459 588 459 579 421 c 0,17,18
 572 385 572 385 553 350.5 c 128,-1,19
 534 316 534 316 507.5 287 c 128,-1,20
 481 258 481 258 450 237.5 c 128,-1,21
 419 217 419 217 387 210 c 1,22,-1
 338 0 l 1,23,-1
 620 0 l 1,24,-1
 645 110 l 1,25,-1
 402 110 l 1,26,-1
 451 62 l 1,27,-1
 479 190 l 1,28,-1
 424 118 l 1,29,30
 475 129 475 129 521.5 157 c 128,-1,31
 568 185 568 185 605.5 224 c 128,-1,32
 643 263 643 263 669.5 311 c 128,-1,33
 696 359 696 359 707 411 c 0,34,35
 722 476 722 476 709.5 532.5 c 128,-1,36
 697 589 697 589 662.5 631 c 128,-1,37
 628 673 628 673 574 697.5 c 128,-1,38
 520 722 520 722 451 722 c 0,39,40
 385 722 385 722 324.5 699.5 c 128,-1,41
 264 677 264 677 215.5 637 c 128,-1,42
 167 597 167 597 132.5 542.5 c 128,-1,43
 98 488 98 488 84 424 c 0,44,45
 72 371 72 371 77 324 c 128,-1,46
 82 277 82 277 101.5 238 c 128,-1,47
 121 199 121 199 155.5 169 c 128,-1,48
 190 139 190 139 236 122 c 1,49,-1
 208 190 l 1,50,-1
 181 62 l 1,51,-1
 251 110 l 1,52,-1
 7 110 l 1,53,-1
 -20 0 l 1,0,-1
EndSplineSet
EndChar

StartChar: Iotadieresis
Encoding: 938 938 450
Width: 346
GlyphClass: 1
Flags: W
LayerCount: 2
Fore
SplineSet
11 0 m 1,0,-1
 141 0 l 1,1,-1
 291 703 l 1,2,-1
 161 703 l 1,3,-1
 11 0 l 1,0,-1
272 844 m 0,4,5
 265 815 265 815 276 794 c 128,-1,6
 287 773 287 773 309 773 c 0,7,8
 332 773 332 773 351.5 794 c 128,-1,9
 371 815 371 815 377 844 c 0,10,11
 383 874 383 874 372.5 894 c 128,-1,12
 362 914 362 914 340 914 c 256,13,14
 318 914 318 914 298 894 c 128,-1,15
 278 874 278 874 272 844 c 0,4,5
131 844 m 0,16,17
 124 815 124 815 134.5 794 c 128,-1,18
 145 773 145 773 168 773 c 0,19,20
 190 773 190 773 210 794 c 128,-1,21
 230 815 230 815 236 844 c 0,22,23
 242 874 242 874 231 894 c 128,-1,24
 220 914 220 914 198 914 c 256,25,26
 176 914 176 914 156 894 c 128,-1,27
 136 874 136 874 131 844 c 0,16,17
EndSplineSet
EndChar

StartChar: alphatonos
Encoding: 940 940 452
Width: 654
GlyphClass: 1
Flags: W
LayerCount: 2
Fore
SplineSet
399 252 m 2,0,1
 388 231 388 231 373.5 205 c 128,-1,2
 359 179 359 179 338.5 157 c 128,-1,3
 318 135 318 135 291.5 120 c 128,-1,4
 265 105 265 105 231 105 c 0,5,6
 207 105 207 105 187 114 c 128,-1,7
 167 123 167 123 154.5 141 c 128,-1,8
 142 159 142 159 139 186 c 128,-1,9
 136 213 136 213 144 250 c 0,10,11
 153 291 153 291 171.5 323 c 128,-1,12
 190 355 190 355 212 376 c 128,-1,13
 234 397 234 397 258.5 408 c 128,-1,14
 283 419 283 419 306 419 c 0,15,16
 326 419 326 419 340.5 411 c 128,-1,17
 355 403 355 403 365.5 389.5 c 128,-1,18
 376 376 376 376 383 357 c 128,-1,19
 390 338 390 338 393.5 316 c 128,-1,20
 397 294 397 294 397.5 269.5 c 128,-1,21
 398 245 398 245 396 220 c 1,22,-1
 468 302 l 1,23,24
 470 352 470 352 460.5 394 c 128,-1,25
 451 436 451 436 430.5 466.5 c 128,-1,26
 410 497 410 497 379.5 513.5 c 128,-1,27
 349 530 349 530 308 530 c 0,28,29
 263 530 263 530 220.5 510 c 128,-1,30
 178 490 178 490 142 455 c 128,-1,31
 106 420 106 420 79 371 c 128,-1,32
 52 322 52 322 39 265 c 0,33,34
 26 205 26 205 32 155.5 c 128,-1,35
 38 106 38 106 60 69.5 c 128,-1,36
 82 33 82 33 118.5 12.5 c 128,-1,37
 155 -8 155 -8 203 -8 c 0,38,39
 244 -8 244 -8 282 6 c 128,-1,40
 320 20 320 20 354.5 45 c 128,-1,41
 389 70 389 70 418 104.5 c 128,-1,42
 447 139 447 139 470 179 c 2,43,-1
 659 522 l 1,44,-1
 547 522 l 1,45,-1
 399 252 l 2,0,1
573 95 m 1,46,-1
 550 104 l 2,47,48
 541 109 541 109 531 116 c 128,-1,49
 521 123 521 123 511.5 136 c 128,-1,50
 502 149 502 149 493.5 167.5 c 128,-1,51
 485 186 485 186 479 213 c 1,52,-1
 402 140 l 1,53,54
 400 109 400 109 404.5 86 c 128,-1,55
 409 63 409 63 419 46.5 c 128,-1,56
 429 30 429 30 443.5 18 c 128,-1,57
 458 6 458 6 475 -2 c 2,58,-1
 490 -8 l 1,59,-1
 573 95 l 1,46,-1
403 821 m 1,60,-1
 324 581 l 1,61,-1
 393 570 l 1,62,-1
 495 800 l 1,63,-1
 403 821 l 1,60,-1
EndSplineSet
EndChar

StartChar: epsilontonos
Encoding: 941 941 453
Width: 501
GlyphClass: 1
Flags: W
LayerCount: 2
Fore
SplineSet
397 127 m 1,0,1
 357 117 357 117 319 109.5 c 128,-1,2
 281 102 281 102 242 102 c 0,3,4
 187 102 187 102 160.5 117 c 128,-1,5
 134 132 134 132 139 158 c 0,6,7
 143 174 143 174 156 185.5 c 128,-1,8
 169 197 169 197 187.5 204.5 c 128,-1,9
 206 212 206 212 228.5 215.5 c 128,-1,10
 251 219 251 219 275 219 c 2,11,-1
 319 219 l 1,12,-1
 340 312 l 1,13,-1
 293 312 l 2,14,15
 272 312 272 312 253.5 315.5 c 128,-1,16
 235 319 235 319 223 325 c 128,-1,17
 211 331 211 331 205 339.5 c 128,-1,18
 199 348 199 348 202 358 c 0,19,20
 205 370 205 370 214 380.5 c 128,-1,21
 223 391 223 391 238.5 399.5 c 128,-1,22
 254 408 254 408 277 413 c 128,-1,23
 300 418 300 418 330 418 c 0,24,25
 347 418 347 418 364 416.5 c 128,-1,26
 381 415 381 415 397 412 c 128,-1,27
 413 409 413 409 426.5 405.5 c 128,-1,28
 440 402 440 402 450 397 c 1,29,-1
 504 504 l 1,30,31
 469 522 469 522 428.5 527 c 128,-1,32
 388 532 388 532 351 530 c 0,33,34
 297 531 297 531 253.5 521 c 128,-1,35
 210 511 210 511 178.5 492.5 c 128,-1,36
 147 474 147 474 127 449 c 128,-1,37
 107 424 107 424 100 394 c 0,38,39
 95 373 95 373 97.5 353.5 c 128,-1,40
 100 334 100 334 107 318 c 128,-1,41
 114 302 114 302 124.5 290.5 c 128,-1,42
 135 279 135 279 149 275 c 1,43,-1
 144 274 l 2,44,45
 124 268 124 268 105 256.5 c 128,-1,46
 86 245 86 245 69.5 228.5 c 128,-1,47
 53 212 53 212 41.5 192.5 c 128,-1,48
 30 173 30 173 25 151 c 0,49,50
 16 115 16 115 28 85 c 128,-1,51
 40 55 40 55 67.5 33.5 c 128,-1,52
 95 12 95 12 136.5 1 c 128,-1,53
 178 -10 178 -10 227 -10 c 0,54,55
 250 -10 250 -10 274 -8.5 c 128,-1,56
 298 -7 298 -7 321.5 -4 c 128,-1,57
 345 -1 345 -1 366 3 c 128,-1,58
 387 7 387 7 403 12 c 1,59,-1
 397 127 l 1,0,1
406 866 m 1,60,-1
 328 626 l 1,61,-1
 397 615 l 1,62,-1
 499 845 l 1,63,-1
 406 866 l 1,60,-1
EndSplineSet
EndChar

StartChar: etatonos
Encoding: 942 942 454
Width: 617
GlyphClass: 1
Flags: W
LayerCount: 2
Fore
SplineSet
120 -4 m 1,0,1
 152 91 152 91 177 171 c 128,-1,2
 202 251 202 251 219 328 c 0,3,4
 228 367 228 367 229 399 c 128,-1,5
 230 431 230 431 222 455.5 c 128,-1,6
 214 480 214 480 196 498.5 c 128,-1,7
 178 517 178 517 151 530 c 1,8,-1
 72 430 l 1,9,10
 86 422 86 422 94 411 c 128,-1,11
 102 400 102 400 104 383 c 128,-1,12
 106 366 106 366 103 341 c 128,-1,13
 100 316 100 316 92 282 c 0,14,15
 77 219 77 219 54 147.5 c 128,-1,16
 31 76 31 76 6 4 c 1,17,-1
 120 -4 l 1,0,1
382 -210 m 1,18,19
 403 -163 403 -163 425.5 -102.5 c 128,-1,20
 448 -42 448 -42 469 21.5 c 128,-1,21
 490 85 490 85 507.5 145.5 c 128,-1,22
 525 206 525 206 537 253 c 0,23,24
 570 398 570 398 545.5 464 c 128,-1,25
 521 530 521 530 436 530 c 0,26,27
 405 530 405 530 372 519.5 c 128,-1,28
 339 509 339 509 308.5 489 c 128,-1,29
 278 469 278 469 251.5 440.5 c 128,-1,30
 225 412 225 412 206 377 c 1,31,-1
 190 219 l 1,32,33
 202 256 202 256 222 290.5 c 128,-1,34
 242 325 242 325 267 351.5 c 128,-1,35
 292 378 292 378 320 393.5 c 128,-1,36
 348 409 348 409 375 409 c 0,37,38
 418 409 418 409 428 369.5 c 128,-1,39
 438 330 438 330 417 235 c 0,40,41
 408 197 408 197 395 151.5 c 128,-1,42
 382 106 382 106 363.5 52 c 128,-1,43
 345 -2 345 -2 321 -64.5 c 128,-1,44
 297 -127 297 -127 267 -198 c 1,45,-1
 382 -210 l 1,18,19
451 821 m 1,46,-1
 372 581 l 1,47,-1
 442 570 l 1,48,-1
 543 800 l 1,49,-1
 451 821 l 1,46,-1
EndSplineSet
EndChar

StartChar: iotatonos
Encoding: 943 943 455
Width: 321
GlyphClass: 1
Flags: W
LayerCount: 2
Fore
SplineSet
138 -8 m 0,0,1
 158 -8 158 -8 182 -5.5 c 128,-1,2
 206 -3 206 -3 225 6 c 1,3,-1
 225 124 l 1,4,5
 216 120 216 120 203 114.5 c 128,-1,6
 190 109 190 109 178 108 c 0,7,8
 171 109 171 109 166.5 111.5 c 128,-1,9
 162 114 162 114 160.5 121 c 128,-1,10
 159 128 159 128 161 142 c 128,-1,11
 163 156 163 156 168 179 c 0,12,13
 174 204 174 204 185 245.5 c 128,-1,14
 196 287 196 287 208.5 334.5 c 128,-1,15
 221 382 221 382 234 430.5 c 128,-1,16
 247 479 247 479 257 518 c 1,17,-1
 135 530 l 1,18,19
 121 476 121 476 109.5 427.5 c 128,-1,20
 98 379 98 379 87 333.5 c 128,-1,21
 76 288 76 288 66.5 244 c 128,-1,22
 57 200 57 200 47 157 c 0,23,24
 38 115 38 115 39.5 84 c 128,-1,25
 41 53 41 53 53 33 c 128,-1,26
 65 13 65 13 87 2.5 c 128,-1,27
 109 -8 109 -8 138 -8 c 0,0,1
253 834 m 1,28,-1
 174 595 l 1,29,-1
 243 584 l 1,30,-1
 345 814 l 1,31,-1
 253 834 l 1,28,-1
EndSplineSet
EndChar

StartChar: upsilondieresistonos
Encoding: 944 944 456
Width: 582
GlyphClass: 1
Flags: W
LayerCount: 2
Fore
SplineSet
57 195 m 0,0,1
 45 145 45 145 53 106.5 c 128,-1,2
 61 68 61 68 85.5 43 c 128,-1,3
 110 18 110 18 148 5 c 128,-1,4
 186 -8 186 -8 232 -8 c 0,5,6
 289 -8 289 -8 336 9 c 128,-1,7
 383 26 383 26 421 61 c 128,-1,8
 459 96 459 96 486 148.5 c 128,-1,9
 513 201 513 201 529 272 c 0,10,11
 536 302 536 302 543 335 c 128,-1,12
 550 368 550 368 555.5 401 c 128,-1,13
 561 434 561 434 565 464.5 c 128,-1,14
 569 495 569 495 569 518 c 1,15,-1
 451 530 l 1,16,17
 449 494 449 494 445 461 c 128,-1,18
 441 428 441 428 436 398 c 128,-1,19
 431 368 431 368 425.5 342.5 c 128,-1,20
 420 317 420 317 414 297 c 0,21,22
 393 196 393 196 350.5 151.5 c 128,-1,23
 308 107 308 107 245 107 c 0,24,25
 225 107 225 107 209 111 c 128,-1,26
 193 115 193 115 183.5 124.5 c 128,-1,27
 174 134 174 134 171 150 c 128,-1,28
 168 166 168 166 173 190 c 0,29,30
 176 202 176 202 180.5 216.5 c 128,-1,31
 185 231 185 231 189.5 248.5 c 128,-1,32
 194 266 194 266 199 286 c 128,-1,33
 204 306 204 306 209 328 c 0,34,35
 218 366 218 366 222.5 393 c 128,-1,36
 227 420 227 420 229 442 c 128,-1,37
 231 464 231 464 230.5 481.5 c 128,-1,38
 230 499 230 499 229 518 c 1,39,-1
 115 530 l 1,40,41
 116 499 116 499 114.5 457 c 128,-1,42
 113 415 113 415 100 352 c 0,43,44
 94 328 94 328 87.5 304 c 128,-1,45
 81 280 81 280 75 259 c 128,-1,46
 69 238 69 238 64.5 221.5 c 128,-1,47
 60 205 60 205 57 195 c 0,0,1
136 665 m 0,48,49
 127 629 127 629 145 603.5 c 128,-1,50
 163 578 163 578 198 578 c 0,51,52
 229 578 229 578 251.5 596.5 c 128,-1,53
 274 615 274 615 280 643 c 0,54,55
 289 680 289 680 271.5 704.5 c 128,-1,56
 254 729 254 729 219 729 c 0,57,58
 188 729 188 729 165 712 c 128,-1,59
 142 695 142 695 136 665 c 0,48,49
444 665 m 0,60,61
 436 629 436 629 455 603.5 c 128,-1,62
 474 578 474 578 508 578 c 0,63,64
 538 578 538 578 561.5 596.5 c 128,-1,65
 585 615 585 615 591 643 c 0,66,67
 599 680 599 680 581 704.5 c 128,-1,68
 563 729 563 729 529 729 c 0,69,70
 499 729 499 729 475 712 c 128,-1,71
 451 695 451 695 444 665 c 0,60,61
379 829 m 1,72,-1
 299 589 l 1,73,-1
 369 578 l 1,74,-1
 471 809 l 1,75,-1
 379 829 l 1,72,-1
EndSplineSet
EndChar

StartChar: alpha
Encoding: 945 945 457
Width: 634
GlyphClass: 1
Flags: W
LayerCount: 2
Fore
SplineSet
399 252 m 2,0,1
 388 231 388 231 373.5 205 c 128,-1,2
 359 179 359 179 338.5 157 c 128,-1,3
 318 135 318 135 291.5 120 c 128,-1,4
 265 105 265 105 231 105 c 0,5,6
 207 105 207 105 187 114 c 128,-1,7
 167 123 167 123 154.5 141 c 128,-1,8
 142 159 142 159 139 186 c 128,-1,9
 136 213 136 213 144 250 c 0,10,11
 153 291 153 291 171.5 323 c 128,-1,12
 190 355 190 355 212 376 c 128,-1,13
 234 397 234 397 258.5 408 c 128,-1,14
 283 419 283 419 306 419 c 0,15,16
 326 419 326 419 340.5 411 c 128,-1,17
 355 403 355 403 365.5 389.5 c 128,-1,18
 376 376 376 376 383 357 c 128,-1,19
 390 338 390 338 393.5 316 c 128,-1,20
 397 294 397 294 397.5 269.5 c 128,-1,21
 398 245 398 245 396 220 c 1,22,-1
 468 302 l 1,23,24
 470 352 470 352 460.5 394 c 128,-1,25
 451 436 451 436 430.5 466.5 c 128,-1,26
 410 497 410 497 379.5 513.5 c 128,-1,27
 349 530 349 530 308 530 c 0,28,29
 263 530 263 530 220.5 510 c 128,-1,30
 178 490 178 490 142 455 c 128,-1,31
 106 420 106 420 79 371 c 128,-1,32
 52 322 52 322 39 265 c 0,33,34
 26 205 26 205 32 155.5 c 128,-1,35
 38 106 38 106 60 69.5 c 128,-1,36
 82 33 82 33 118.5 12.5 c 128,-1,37
 155 -8 155 -8 203 -8 c 0,38,39
 244 -8 244 -8 282 6 c 128,-1,40
 320 20 320 20 354.5 45 c 128,-1,41
 389 70 389 70 418 104.5 c 128,-1,42
 447 139 447 139 470 179 c 2,43,-1
 659 522 l 1,44,-1
 547 522 l 1,45,-1
 399 252 l 2,0,1
573 95 m 1,46,-1
 550 104 l 2,47,48
 541 109 541 109 531 116 c 128,-1,49
 521 123 521 123 511.5 136 c 128,-1,50
 502 149 502 149 493.5 167.5 c 128,-1,51
 485 186 485 186 479 213 c 1,52,-1
 402 140 l 1,53,54
 400 109 400 109 404.5 86 c 128,-1,55
 409 63 409 63 419 46.5 c 128,-1,56
 429 30 429 30 443.5 18 c 128,-1,57
 458 6 458 6 475 -2 c 2,58,-1
 490 -8 l 1,59,-1
 573 95 l 1,46,-1
EndSplineSet
EndChar

StartChar: beta
Encoding: 946 946 458
Width: 672
GlyphClass: 1
Flags: W
LayerCount: 2
Fore
SplineSet
133 46 m 1,0,1
 149 33 149 33 170 22.5 c 128,-1,2
 191 12 191 12 215 5.5 c 128,-1,3
 239 -1 239 -1 264.5 -4.5 c 128,-1,4
 290 -8 290 -8 315 -8 c 0,5,6
 368 -8 368 -8 416.5 10 c 128,-1,7
 465 28 465 28 503.5 57.5 c 128,-1,8
 542 87 542 87 568.5 126.5 c 128,-1,9
 595 166 595 166 604 209 c 0,10,11
 613 246 613 246 610 279.5 c 128,-1,12
 607 313 607 313 591 339.5 c 128,-1,13
 575 366 575 366 547.5 384 c 128,-1,14
 520 402 520 402 480 409 c 1,15,-1
 487 412 l 2,16,17
 514 425 514 425 536 443.5 c 128,-1,18
 558 462 558 462 575 484 c 128,-1,19
 592 506 592 506 603.5 530.5 c 128,-1,20
 615 555 615 555 619 578 c 0,21,22
 628 617 628 617 619.5 651 c 128,-1,23
 611 685 611 685 587 710.5 c 128,-1,24
 563 736 563 736 526 750.5 c 128,-1,25
 489 765 489 765 441 764 c 0,26,27
 383 765 383 765 332.5 743.5 c 128,-1,28
 282 722 282 722 241.5 683 c 128,-1,29
 201 644 201 644 172.5 590.5 c 128,-1,30
 144 537 144 537 130 472 c 2,31,-1
 -24 -206 l 1,32,-1
 99 -212 l 1,33,34
 116 -119 116 -119 125 -56.5 c 128,-1,35
 134 6 134 6 137 42 c 1,36,-1
 161 133 l 2,37,38
 173 175 173 175 182 209.5 c 128,-1,39
 191 244 191 244 199.5 280 c 128,-1,40
 208 316 208 316 218 359 c 128,-1,41
 228 402 228 402 241 461 c 0,42,43
 251 503 251 503 268.5 539 c 128,-1,44
 286 575 286 575 309 601 c 128,-1,45
 332 627 332 627 361 641 c 128,-1,46
 390 655 390 655 422 655 c 0,47,48
 446 655 446 655 463 649 c 128,-1,49
 480 643 480 643 490.5 631.5 c 128,-1,50
 501 620 501 620 504 604 c 128,-1,51
 507 588 507 588 503 571 c 0,52,53
 497 547 497 547 481.5 525 c 128,-1,54
 466 503 466 503 443 485 c 128,-1,55
 420 467 420 467 390 454.5 c 128,-1,56
 360 442 360 442 327 437 c 1,57,-1
 314 350 l 1,58,59
 317 351 317 351 324 352 c 128,-1,60
 331 353 331 353 340.5 353.5 c 128,-1,61
 350 354 350 354 360 354.5 c 128,-1,62
 370 355 370 355 379 354 c 0,63,64
 413 355 413 355 438.5 347 c 128,-1,65
 464 339 464 339 480.5 323.5 c 128,-1,66
 497 308 497 308 503.5 287 c 128,-1,67
 510 266 510 266 505 241 c 0,68,69
 498 212 498 212 479.5 186.5 c 128,-1,70
 461 161 461 161 434.5 141.5 c 128,-1,71
 408 122 408 122 376 110.5 c 128,-1,72
 344 99 344 99 310 99 c 0,73,74
 294 99 294 99 273 102 c 128,-1,75
 252 105 252 105 230.5 112.5 c 128,-1,76
 209 120 209 120 188.5 130.5 c 128,-1,77
 168 141 168 141 152 157 c 1,78,-1
 133 46 l 1,0,1
EndSplineSet
EndChar

StartChar: gamma
Encoding: 947 947 459
Width: 598
GlyphClass: 1
Flags: W
LayerCount: 2
Fore
SplineSet
226 -212 m 1,0,1
 258 -102 258 -102 282 9.5 c 128,-1,2
 306 121 306 121 308.5 221.5 c 128,-1,3
 311 322 311 322 284 404.5 c 128,-1,4
 257 487 257 487 188 541 c 1,5,-1
 101 445 l 1,6,7
 137 421 137 421 156 379 c 128,-1,8
 175 337 175 337 181.5 285 c 128,-1,9
 188 233 188 233 184 172.5 c 128,-1,10
 180 112 180 112 169.5 48.5 c 128,-1,11
 159 -15 159 -15 143.5 -78.5 c 128,-1,12
 128 -142 128 -142 112 -200 c 1,13,-1
 226 -212 l 1,0,1
265 -7 m 1,14,15
 341 70 341 70 395.5 135 c 128,-1,16
 450 200 450 200 492 261.5 c 128,-1,17
 534 323 534 323 567 385.5 c 128,-1,18
 600 448 600 448 633 517 c 1,19,-1
 505 530 l 1,20,21
 486 476 486 476 460 422.5 c 128,-1,22
 434 369 434 369 403.5 319.5 c 128,-1,23
 373 270 373 270 338.5 226.5 c 128,-1,24
 304 183 304 183 268 148 c 1,25,-1
 265 -7 l 1,14,15
EndSplineSet
EndChar

StartChar: delta
Encoding: 948 948 460
Width: 608
GlyphClass: 1
Flags: W
LayerCount: 2
Fore
SplineSet
253 -8 m 0,0,1
 306 -8 306 -8 355.5 10 c 128,-1,2
 405 28 405 28 445.5 61.5 c 128,-1,3
 486 95 486 95 516 142 c 128,-1,4
 546 189 546 189 559 246 c 0,5,6
 572 305 572 305 564 348.5 c 128,-1,7
 556 392 556 392 536.5 424 c 128,-1,8
 517 456 517 456 490.5 478.5 c 128,-1,9
 464 501 464 501 440 516 c 0,10,11
 421 530 421 530 401 543.5 c 128,-1,12
 381 557 381 557 365 569.5 c 128,-1,13
 349 582 349 582 340 594.5 c 128,-1,14
 331 607 331 607 333 620 c 0,15,16
 337 637 337 637 356 648.5 c 128,-1,17
 375 660 375 660 405 660 c 0,18,19
 428 660 428 660 454 653.5 c 128,-1,20
 480 647 480 647 506 636.5 c 128,-1,21
 532 626 532 626 556.5 610.5 c 128,-1,22
 581 595 581 595 601 575 c 1,23,-1
 668 663 l 1,24,25
 651 680 651 680 624.5 698 c 128,-1,26
 598 716 598 716 565 730 c 128,-1,27
 532 744 532 744 493 753 c 128,-1,28
 454 762 454 762 411 761 c 0,29,30
 331 762 331 762 279.5 731.5 c 128,-1,31
 228 701 228 701 215 645 c 0,32,33
 207 610 207 610 217.5 582.5 c 128,-1,34
 228 555 228 555 249 533 c 128,-1,35
 270 511 270 511 297.5 493.5 c 128,-1,36
 325 476 325 476 352 458 c 0,37,38
 376 440 376 440 398 420.5 c 128,-1,39
 420 401 420 401 435.5 378 c 128,-1,40
 451 355 451 355 457 327 c 128,-1,41
 463 299 463 299 455 264 c 0,42,43
 447 227 447 227 428 198 c 128,-1,44
 409 169 409 169 383.5 148 c 128,-1,45
 358 127 358 127 328 116 c 128,-1,46
 298 105 298 105 267 105 c 256,47,48
 236 105 236 105 211.5 115 c 128,-1,49
 187 125 187 125 171 144 c 128,-1,50
 155 163 155 163 149 189 c 128,-1,51
 143 215 143 215 151 246 c 0,52,53
 159 281 159 281 178.5 311.5 c 128,-1,54
 198 342 198 342 224.5 364.5 c 128,-1,55
 251 387 251 387 284 400 c 128,-1,56
 317 413 317 413 351 413 c 0,57,58
 377 413 377 413 403.5 406 c 128,-1,59
 430 399 430 399 446 382 c 1,60,-1
 407 478 l 1,61,62
 396 486 396 486 372 492 c 128,-1,63
 348 498 348 498 321 499 c 0,64,65
 272 500 272 500 227 481 c 128,-1,66
 182 462 182 462 146 429.5 c 128,-1,67
 110 397 110 397 84 354 c 128,-1,68
 58 311 58 311 48 262 c 0,69,70
 35 208 35 208 43.5 159 c 128,-1,71
 52 110 52 110 79 73 c 128,-1,72
 106 36 106 36 150 14 c 128,-1,73
 194 -8 194 -8 253 -8 c 0,0,1
EndSplineSet
EndChar

StartChar: epsilon
Encoding: 949 949 461
Width: 493
GlyphClass: 1
Flags: W
LayerCount: 2
Fore
SplineSet
397 127 m 1,0,1
 357 117 357 117 319 109.5 c 128,-1,2
 281 102 281 102 242 102 c 0,3,4
 187 102 187 102 160.5 117 c 128,-1,5
 134 132 134 132 139 158 c 0,6,7
 143 174 143 174 156 185.5 c 128,-1,8
 169 197 169 197 187.5 204.5 c 128,-1,9
 206 212 206 212 228.5 215.5 c 128,-1,10
 251 219 251 219 275 219 c 2,11,-1
 319 219 l 1,12,-1
 340 312 l 1,13,-1
 293 312 l 2,14,15
 272 312 272 312 253.5 315.5 c 128,-1,16
 235 319 235 319 223 325 c 128,-1,17
 211 331 211 331 205 339.5 c 128,-1,18
 199 348 199 348 202 358 c 0,19,20
 205 370 205 370 214 380.5 c 128,-1,21
 223 391 223 391 238.5 399.5 c 128,-1,22
 254 408 254 408 277 413 c 128,-1,23
 300 418 300 418 330 418 c 0,24,25
 347 418 347 418 364 416.5 c 128,-1,26
 381 415 381 415 397 412 c 128,-1,27
 413 409 413 409 426.5 405.5 c 128,-1,28
 440 402 440 402 450 397 c 1,29,-1
 504 504 l 1,30,31
 469 522 469 522 428.5 527 c 128,-1,32
 388 532 388 532 351 530 c 0,33,34
 297 531 297 531 253.5 521 c 128,-1,35
 210 511 210 511 178.5 492.5 c 128,-1,36
 147 474 147 474 127 449 c 128,-1,37
 107 424 107 424 100 394 c 0,38,39
 95 373 95 373 97.5 353.5 c 128,-1,40
 100 334 100 334 107 318 c 128,-1,41
 114 302 114 302 124.5 290.5 c 128,-1,42
 135 279 135 279 149 275 c 1,43,-1
 144 274 l 2,44,45
 124 268 124 268 105 256.5 c 128,-1,46
 86 245 86 245 69.5 228.5 c 128,-1,47
 53 212 53 212 41.5 192.5 c 128,-1,48
 30 173 30 173 25 151 c 0,49,50
 16 115 16 115 28 85 c 128,-1,51
 40 55 40 55 67.5 33.5 c 128,-1,52
 95 12 95 12 136.5 1 c 128,-1,53
 178 -10 178 -10 227 -10 c 0,54,55
 250 -10 250 -10 274 -8.5 c 128,-1,56
 298 -7 298 -7 321.5 -4 c 128,-1,57
 345 -1 345 -1 366 3 c 128,-1,58
 387 7 387 7 403 12 c 1,59,-1
 397 127 l 1,0,1
EndSplineSet
EndChar

StartChar: zeta
Encoding: 950 950 462
Width: 517
GlyphClass: 1
Flags: W
LayerCount: 2
Fore
SplineSet
235 -194 m 0,0,1
 272 -194 272 -194 308 -181.5 c 128,-1,2
 344 -169 344 -169 373.5 -147.5 c 128,-1,3
 403 -126 403 -126 424 -95.5 c 128,-1,4
 445 -65 445 -65 453 -30 c 0,5,6
 460 0 460 0 456 25 c 128,-1,7
 452 50 452 50 438 69 c 128,-1,8
 424 88 424 88 401.5 98 c 128,-1,9
 379 108 379 108 350 108 c 0,10,11
 343 108 343 108 331.5 107 c 128,-1,12
 320 106 320 106 306.5 105 c 128,-1,13
 293 104 293 104 278.5 103.5 c 128,-1,14
 264 103 264 103 250 103 c 0,15,16
 233 103 233 103 213 105 c 128,-1,17
 193 107 193 107 177.5 116 c 128,-1,18
 162 125 162 125 155 144 c 128,-1,19
 148 163 148 163 156 196 c 0,20,21
 164 232 164 232 186.5 272.5 c 128,-1,22
 209 313 209 313 241.5 354.5 c 128,-1,23
 274 396 274 396 314 437.5 c 128,-1,24
 354 479 354 479 396.5 516 c 128,-1,25
 439 553 439 553 481.5 584.5 c 128,-1,26
 524 616 524 616 562 637 c 1,27,-1
 576 719 l 1,28,-1
 404 719 l 2,29,30
 393 719 393 719 382 719.5 c 128,-1,31
 371 720 371 720 363 722.5 c 128,-1,32
 355 725 355 725 350.5 730.5 c 128,-1,33
 346 736 346 736 348 745 c 0,34,35
 351 756 351 756 357.5 769.5 c 128,-1,36
 364 783 364 783 372 792 c 1,37,-1
 281 837 l 1,38,39
 261 813 261 813 251 794.5 c 128,-1,40
 241 776 241 776 236 757 c 0,41,42
 230 728 230 728 236.5 704.5 c 128,-1,43
 243 681 243 681 261 664 c 128,-1,44
 279 647 279 647 307 638 c 128,-1,45
 335 629 335 629 373 629 c 2,46,-1
 449 629 l 1,47,-1
 425 674 l 1,48,49
 366 635 366 635 304.5 581 c 128,-1,50
 243 527 243 527 189.5 464.5 c 128,-1,51
 136 402 136 402 96 334.5 c 128,-1,52
 56 267 56 267 41 199 c 0,53,54
 27 138 27 138 37 98 c 128,-1,55
 47 58 47 58 72.5 34.5 c 128,-1,56
 98 11 98 11 134 1.5 c 128,-1,57
 170 -8 170 -8 207 -8 c 0,58,59
 222 -8 222 -8 238 -7 c 128,-1,60
 254 -6 254 -6 269 -5 c 128,-1,61
 284 -4 284 -4 296 -3.5 c 128,-1,62
 308 -3 308 -3 316 -3 c 0,63,64
 336 -3 336 -3 341.5 -11.5 c 128,-1,65
 347 -20 347 -20 346 -27 c 0,66,67
 343 -39 343 -39 333 -50 c 128,-1,68
 323 -61 323 -61 307 -68.5 c 128,-1,69
 291 -76 291 -76 270 -81 c 128,-1,70
 249 -86 249 -86 225 -86 c 0,71,72
 208 -86 208 -86 189.5 -83.5 c 128,-1,73
 171 -81 171 -81 158 -79 c 1,74,-1
 141 -183 l 1,75,76
 168 -189 168 -189 192 -192 c 128,-1,77
 216 -195 216 -195 235 -194 c 0,0,1
EndSplineSet
EndChar

StartChar: eta
Encoding: 951 951 463
Width: 594
GlyphClass: 1
Flags: W
LayerCount: 2
Fore
SplineSet
120 -4 m 1,0,1
 152 91 152 91 177 171 c 128,-1,2
 202 251 202 251 219 328 c 0,3,4
 228 367 228 367 229 399 c 128,-1,5
 230 431 230 431 222 455.5 c 128,-1,6
 214 480 214 480 196 498.5 c 128,-1,7
 178 517 178 517 151 530 c 1,8,-1
 72 430 l 1,9,10
 86 422 86 422 94 411 c 128,-1,11
 102 400 102 400 104 383 c 128,-1,12
 106 366 106 366 103 341 c 128,-1,13
 100 316 100 316 92 282 c 0,14,15
 77 219 77 219 54 147.5 c 128,-1,16
 31 76 31 76 6 4 c 1,17,-1
 120 -4 l 1,0,1
382 -210 m 1,18,19
 403 -163 403 -163 425.5 -102.5 c 128,-1,20
 448 -42 448 -42 469 21.5 c 128,-1,21
 490 85 490 85 507.5 145.5 c 128,-1,22
 525 206 525 206 537 253 c 0,23,24
 570 398 570 398 545.5 464 c 128,-1,25
 521 530 521 530 436 530 c 0,26,27
 405 530 405 530 372 519.5 c 128,-1,28
 339 509 339 509 308.5 489 c 128,-1,29
 278 469 278 469 251.5 440.5 c 128,-1,30
 225 412 225 412 206 377 c 1,31,-1
 190 219 l 1,32,33
 202 256 202 256 222 290.5 c 128,-1,34
 242 325 242 325 267 351.5 c 128,-1,35
 292 378 292 378 320 393.5 c 128,-1,36
 348 409 348 409 375 409 c 0,37,38
 418 409 418 409 428 369.5 c 128,-1,39
 438 330 438 330 417 235 c 0,40,41
 408 197 408 197 395 151.5 c 128,-1,42
 382 106 382 106 363.5 52 c 128,-1,43
 345 -2 345 -2 321 -64.5 c 128,-1,44
 297 -127 297 -127 267 -198 c 1,45,-1
 382 -210 l 1,18,19
EndSplineSet
EndChar

StartChar: theta
Encoding: 952 952 464
Width: 661
GlyphClass: 1
Flags: W
LayerCount: 2
Fore
SplineSet
278 -8 m 0,0,1
 338 -8 338 -8 392.5 19.5 c 128,-1,2
 447 47 447 47 492 97 c 128,-1,3
 537 147 537 147 570.5 215.5 c 128,-1,4
 604 284 604 284 623 368 c 0,5,6
 643 457 643 457 640.5 530.5 c 128,-1,7
 638 604 638 604 614 656 c 128,-1,8
 590 708 590 708 546.5 736.5 c 128,-1,9
 503 765 503 765 442 764 c 0,10,11
 385 765 385 765 330.5 739 c 128,-1,12
 276 713 276 713 230 664.5 c 128,-1,13
 184 616 184 616 148.5 546.5 c 128,-1,14
 113 477 113 477 93 391 c 0,15,16
 72 300 72 300 75.5 226 c 128,-1,17
 79 152 79 152 103.5 100 c 128,-1,18
 128 48 128 48 172.5 20 c 128,-1,19
 217 -8 217 -8 278 -8 c 0,0,1
278 103 m 0,20,21
 245 103 245 103 222.5 124.5 c 128,-1,22
 200 146 200 146 190 181.5 c 128,-1,23
 180 217 180 217 181.5 264.5 c 128,-1,24
 183 312 183 312 197 365 c 0,25,26
 213 428 213 428 240 480.5 c 128,-1,27
 267 533 267 533 299.5 570.5 c 128,-1,28
 332 608 332 608 367.5 629 c 128,-1,29
 403 650 403 650 437 650 c 0,30,31
 470 650 470 650 492.5 630.5 c 128,-1,32
 515 611 515 611 525.5 577 c 128,-1,33
 536 543 536 543 534.5 496 c 128,-1,34
 533 449 533 449 519 393 c 0,35,36
 504 333 504 333 478 280 c 128,-1,37
 452 227 452 227 419.5 188 c 128,-1,38
 387 149 387 149 350.5 126 c 128,-1,39
 314 103 314 103 278 103 c 0,20,21
547 336 m 1,40,-1
 568 422 l 1,41,-1
 169 422 l 1,42,-1
 149 336 l 1,43,-1
 547 336 l 1,40,-1
EndSplineSet
EndChar

StartChar: iota
Encoding: 953 953 465
Width: 321
GlyphClass: 1
Flags: W
LayerCount: 2
Fore
SplineSet
138 -8 m 0,0,1
 158 -8 158 -8 182 -5.5 c 128,-1,2
 206 -3 206 -3 225 6 c 1,3,-1
 225 124 l 1,4,5
 216 120 216 120 203 114.5 c 128,-1,6
 190 109 190 109 178 108 c 0,7,8
 171 109 171 109 166.5 111.5 c 128,-1,9
 162 114 162 114 160.5 121 c 128,-1,10
 159 128 159 128 161 142 c 128,-1,11
 163 156 163 156 168 179 c 0,12,13
 174 204 174 204 185 245.5 c 128,-1,14
 196 287 196 287 208.5 334.5 c 128,-1,15
 221 382 221 382 234 430.5 c 128,-1,16
 247 479 247 479 257 518 c 1,17,-1
 135 530 l 1,18,19
 121 476 121 476 109.5 427.5 c 128,-1,20
 98 379 98 379 87 333.5 c 128,-1,21
 76 288 76 288 66.5 244 c 128,-1,22
 57 200 57 200 47 157 c 0,23,24
 38 115 38 115 39.5 84 c 128,-1,25
 41 53 41 53 53 33 c 128,-1,26
 65 13 65 13 87 2.5 c 128,-1,27
 109 -8 109 -8 138 -8 c 0,0,1
EndSplineSet
EndChar

